<svg xmlns="http://www.w3.org/2000/svg" style="isolation:isolate" viewBox="0 0 1366 441" width="1821" height="588"><linearGradient id="a" y1="1" x2="1" y2="1" gradientTransform="scale(1366 440.999)" gradientUnits="userSpaceOnUse"><stop offset="0%" stop-color="#04ded4"/><stop offset="100%" stop-color="#6004de"/></linearGradient><path d="M0 281h237L445 73h670l251 251v-14L1119 63H441L233 271H0v10zm0 127h319a20 20 0 1 0 0-10H0v10zm1366 2l-293-293H753l-58 51H563a20 20 0 0 1-39-5 20 20 0 0 1 39-5h128l58-51h328l289 289v14zM0 362h321l147-147a20 20 0 1 0-10-17c0 4 1 7 3 10L317 352H0v10zm1288 79l-202-202H753l-58 42h-58L515 408h-69a20 20 0 0 1-39-5 20 20 0 0 1 39-5h65l122-127h58l58-42h341l212 212h-14zM0 321h283l147-147a20 20 0 1 0-10-17c0 4 1 7 3 10L279 311H0v10zm653 120l69-74-2-9a20 20 0 0 1 39-6h331l89 89h-14l-79-79H760a20 20 0 0 1-31 13l-62 66h-14zM0 186h163l83-83c-3-3-4-7-4-11a20 20 0 1 1 11 18l-86 86H0v-10zm0-62h33l76-76c-3-3-4-7-4-11a20 20 0 1 1 12 18l-80 79H0v-10zm1366 30L1261 50a20 20 0 0 1-27-19 20 20 0 1 1 36 13l96 96v14zm0 77L1150 15H776a20 20 0 0 0-38 0H412L215 216a20 20 0 0 0-31 13H0v10h185a20 20 0 1 0 37-16L416 25h322a20 20 0 0 0 38 0h370l220 220v-14zM115 37a10 10 0 0 1 17-8 10 10 0 0 1-7 18 10 10 0 0 1-10-10zm213 366a10 10 0 0 1 17-7 10 10 0 0 1-7 17 10 10 0 0 1-10-10zM20 38a10 10 0 0 1 17-8 10 10 0 0 1-7 18 10 10 0 0 1-10-10zm232 54a10 10 0 0 1 17-7 10 10 0 0 1-7 17 10 10 0 0 1-10-10zm216 180a10 10 0 0 1 17-7 10 10 0 0 1-7 17 10 10 0 0 1-10-10zm65 0a10 10 0 0 1 17-7 10 10 0 0 1-7 17 10 10 0 0 1-10-10zm-45-160a10 10 0 0 1 17-7c2 2 3 4 3 7a10 10 0 0 1-17 7c-2-2-3-4-3-7zM302 38a10 10 0 0 1 17-8 10 10 0 0 1-7 18 10 10 0 0 1-10-10zm166 294a10 10 0 0 1 17-7 10 10 0 0 1-7 17 10 10 0 0 1-10-10zm562-40a10 10 0 0 1 17-7 10 10 0 0 1-7 17 10 10 0 0 1-10-10zm-562-94a10 10 0 0 1 17-7 10 10 0 0 1-7 17 10 10 0 0 1-10-10zm262 160a10 10 0 0 1 17-7 10 10 0 0 1-7 17 10 10 0 0 1-10-10zM430 157a10 10 0 0 1 17-7 10 10 0 0 1-7 17 10 10 0 0 1-10-10zm328 135a10 10 0 0 1 17-7c2 2 3 4 3 7a10 10 0 0 1-17 7c-2-2-3-4-3-7zm276-131a10 10 0 0 1 17-7 10 10 0 0 1-7 17 10 10 0 0 1-10-10zm-500 2a10 10 0 0 1 17-7 10 10 0 0 1-7 17 10 10 0 0 1-10-10zm112-51a10 10 0 0 1 17-7 10 10 0 0 1-7 17 10 10 0 0 1-10-10zM216 38a10 10 0 0 1 17-8 10 10 0 0 1-7 18 10 10 0 0 1-10-10zm318 172a10 10 0 0 1 17-7 10 10 0 0 1-7 17 10 10 0 0 1-10-10zM417 403a10 10 0 0 1 17-7 10 10 0 0 1-7 17 10 10 0 0 1-10-10zM110 140a10 10 0 0 1 17-7 10 10 0 0 1-7 17 10 10 0 0 1-10-10zm556 178a10 10 0 0 1 17-8 10 10 0 0 1-7 18 10 10 0 0 1-10-10zm-85 85a10 10 0 0 1 17-7 10 10 0 0 1-7 17 10 10 0 0 1-10-10zm663-372a10 10 0 0 1 17-7 10 10 0 0 1-7 17 10 10 0 0 1-10-10zM194 233a10 10 0 0 1 17-7 10 10 0 0 1-7 17 10 10 0 0 1-10-10zM747 20a10 10 0 0 1 17-7 10 10 0 0 1-7 17 10 10 0 0 1-10-10zM292 38a20 20 0 1 1 40 0 20 20 0 0 1-40 0zm231 234a20 20 0 1 1 40 0 20 20 0 0 1-40 0zM10 38a20 20 0 1 1 40 0 20 20 0 0 1-40 0zm448 294a20 20 0 1 1 40 0 20 20 0 0 1-40 0zm0-60a20 20 0 1 1 40 0 20 20 0 0 1-40 0zm59-165a20 20 0 0 0-39 5 20 20 0 0 0 39 5h120a20 20 0 1 0 0-10H517zm-384 17a20 20 0 0 0-33 16 20 20 0 1 0 39-7l77-78a20 20 0 1 0-10-17c0 3 1 7 3 10l-76 76zm431 82a20 20 0 0 0-40 4 20 20 0 0 0 39 6h132l66-48h264a20 20 0 1 0-1-10H757l-66 48H564zm37 180a20 20 0 0 0-30 17 20 20 0 1 0 37-10l58-58a20 20 0 1 0-10-17c0 3 1 7 3 10l-58 58zm186-99a20 20 0 0 0-39 5 20 20 0 0 0 39 5h234a20 20 0 1 0 0-10H787z" fill-rule="evenodd" fill="url(#a)"/><path d="M622 50l-6 3c-5-2-10-3-14 1-7-1-9 1-11 3-2 0-11-2-16 5-11-1-15 7-11 14-2 4-4 7 1 14-2 4-1 8 4 13-1 5 1 9 5 12-1 7 7 12 9 13 1 4 3 8 11 10 2 7 7 8 12 9-17 10-31 22-31 53l-2 4a52 52 0 0 0-9 78c1 10 4 17 7 24 4 30 29 44 36 46 9 7 20 14 34 19 13 14 27 19 42 19s29-5 42-19c14-5 25-12 34-19 7-2 32-16 36-46 3-7 6-14 7-24 27-29 10-66-9-78l-2-4c0-31-14-43-31-53 5-1 10-2 12-9 8-2 10-6 11-10 2-1 10-6 9-13 4-3 6-7 5-12 5-5 6-9 4-13 5-7 3-10 1-14 4-7 0-15-11-14-5-7-14-5-16-5-2-2-4-4-11-3-4-4-9-3-14-1-6-5-10-1-15 0-7-2-9 1-13 2-8-1-10 2-14 6h-5c-12 7-18 22-20 29-2-7-8-22-20-29h-5c-4-4-6-7-14-6-4-1-6-4-13-2l-9-3z"/><path d="M598 82c32 16 51 30 61 41-5 21-33 22-43 22l5-4c-3-2-12 0-18-4 2 0 4-1 5-3-6-2-13-3-16-6 2 0 4 0 6-2-5-2-11-5-15-9l6-1-12-10 7-1c-4-3-9-7-11-11h7c-1-3-6-5-9-11h7c-2-6-4-9-7-12 7 0 17 0 16-1l-4-4c6-1 13 0 17 2 2-2 0-4-2-6l14 4c3-2-1-5-3-7 8 2 12 4 15 6 2-2 0-4-2-6 7 2 10 5 13 8 1-2 3-3 1-6 4 2 8 5 10 8 3-1 2-4 2-6l11 12 2-5c10 10 26 37 3 47-18-15-41-27-66-35zm171 0c-32 16-51 30-61 41 5 21 32 22 42 22l-4-4c3-2 11 0 18-4-3 0-4-1-5-3 6-2 12-3 16-6-2 0-4 0-7-2 6-2 11-5 16-9l-7-1 13-10-7-1 11-11h-8c2-3 7-5 10-11h-7l6-12c-6 0-16 0-15-1l4-4c-7-1-13 0-18 2-2-2 0-4 3-6l-14 4c-3-2 1-5 3-7-8 2-12 4-15 6-3-2 0-4 1-6-6 2-9 5-12 8-2-2-3-3-1-6-5 2-8 5-10 8-3-1-2-4-2-6l-11 12-2-5c-11 10-26 37-4 47 19-15 42-27 67-35z" fill-rule="evenodd" fill="#64DD17"/><linearGradient id="b" x1="1" x2="1" y2="1" gradientTransform="matrix(241.056 0 0 233.663 561 146)" gradientUnits="userSpaceOnUse"><stop offset="0%" stop-color="#f71a72"/><stop offset="100%" stop-color="#b00f4f"/></linearGradient><path d="M722 296c1 20-17 36-38 36s-39-16-39-35v-1c0-19 17-35 39-35 21-1 38 15 38 35zm-61-101c16 10 19 34 7 53-13 19-36 25-52 15-16-11-19-34-6-53 12-19 35-26 51-15zm44-2c-16 10-19 34-7 53 13 19 36 25 52 15 16-11 19-34 6-53-12-19-35-26-51-15zm-124 19c18-5 6 71-8 65-15-12-20-49 8-65zm200-1c-17-5-6 71 8 65 16-12 21-49-8-65zm-59-57c30-5 55 13 54 45-1 13-65-43-54-45zm-82-1c-30-5-55 13-54 45 1 13 65-43 54-45zm43-7c-18-1-35 13-35 21 0 9 14 19 35 20 21 0 35-8 35-18 0-12-19-24-35-23zm1 197c15 0 36 5 36 13 1 7-19 24-37 23-19 1-38-15-38-21 0-9 24-15 39-15zm-57-44c11 13 16 36 6 43-8 5-29 3-44-18-11-18-9-37-2-42 10-7 27 2 40 17zm112-5c-12 14-19 40-10 48 8 7 31 6 47-17 12-16 8-41 2-48-11-8-25 2-39 17z" fill-rule="evenodd" fill="url(#b)"/></svg>