<?xml version="1.0" encoding="UTF-8" standalone="no"?><!-- Generator: Gravit.io --><svg xmlns="http://www.w3.org/2000/svg" xmlns:xlink="http://www.w3.org/1999/xlink" style="isolation:isolate" viewBox="0 0 1366 440.999" width="1366pt" height="440.999pt"><g><linearGradient id="_lgradient_2" x1="1.1102230246251565e-16" y1="0.5" x2="1" y2="0.5000000000000002" gradientTransform="matrix(1366,0,0,440.999,0,0)" gradientUnits="userSpaceOnUse"><stop offset="0%" stop-opacity="1" style="stop-color:rgb(4,222,212)"/><stop offset="100%" stop-opacity="1" style="stop-color:rgb(96,4,222)"/></linearGradient><path d=" M 0 281.08 L 0 281.08 L 237.07 281.08 L 445.07 73.08 L 1114.93 73.08 L 1366 324.159 L 1366 310.001 L 1119.07 63.08 L 440.93 63.08 L 232.93 271.08 L 0 271.08 L 0 281.08 Z  M 0 408.08 L 318.657 408.08 L 318.657 408.08 C 319.551 411.478 321.333 414.613 323.86 417.14 C 327.61 420.89 332.7 423 338 423 C 343.3 423 348.39 420.89 352.14 417.14 C 355.89 413.39 358 408.3 358 403 C 358 397.7 355.89 392.61 352.14 388.86 C 348.39 385.11 343.3 383 338 383 C 332.7 383 327.61 385.11 323.86 388.86 C 321.294 391.426 319.495 394.621 318.616 398.08 L 318.616 398.08 L 318.616 398.08 L 318.616 398.08 L 318.616 398.08 L 318.616 398.08 L 0 398.08 L 0 408.08 Z  M 1366 410.159 L 1072.93 117.08 L 752.89 117.08 L 694.89 168.08 L 563.343 168.08 C 562.449 171.478 560.667 174.613 558.14 177.14 C 554.39 180.89 549.3 183 544 183 C 538.7 183 533.61 180.89 529.86 177.14 C 526.11 173.39 524 168.3 524 163 L 524 163 C 524 157.7 526.11 152.61 529.86 148.86 C 533.61 145.11 538.7 143 544 143 C 549.3 143 554.39 145.11 558.14 148.86 C 560.706 151.426 562.505 154.621 563.384 158.08 L 563.384 158.08 L 563.384 158.08 L 563.384 158.08 L 563.384 158.08 L 563.384 158.08 L 563.384 158.08 L 563.384 158.08 L 563.384 158.08 L 563.384 158.08 L 563.384 158.08 L 563.384 158.08 L 691.11 158.08 L 749.11 107.08 L 1077.07 107.08 L 1366 396.001 L 1366 410.159 Z  M 0 362.08 L 321.07 362.08 L 467.9 215.259 L 467.9 215.259 L 467.9 215.259 L 467.9 215.259 L 467.9 215.259 L 467.9 215.259 L 467.9 215.259 L 467.9 215.259 L 467.9 215.259 L 467.9 215.259 L 467.9 215.259 L 467.9 215.259 L 467.9 215.259 L 467.9 215.259 L 467.9 215.259 L 467.9 215.259 L 467.9 215.259 L 467.9 215.259 C 470.939 217.038 474.422 218 478 218 C 483.3 218 488.39 215.89 492.14 212.14 C 495.89 208.39 498 203.3 498 198 C 498 192.7 495.89 187.61 492.14 183.86 C 488.39 180.11 483.3 178 478 178 C 472.7 178 467.61 180.11 463.86 183.86 C 460.11 187.61 458 192.7 458 198 L 458 198 C 458 201.618 458.983 205.138 460.8 208.2 L 316.93 352.08 L 0 352.08 L 0 362.08 Z  M 1287.84 440.999 L 1085.93 239.08 L 752.62 239.08 L 694.62 281.08 L 637.13 281.08 L 515.13 408.08 L 446.343 408.08 C 445.449 411.478 443.667 414.613 441.14 417.14 C 437.39 420.89 432.3 423 427 423 C 421.7 423 416.61 420.89 412.86 417.14 C 409.11 413.39 407 408.3 407 403 L 407 403 C 407 397.7 409.11 392.61 412.86 388.86 C 416.61 385.11 421.7 383 427 383 C 432.3 383 437.39 385.11 441.14 388.86 C 443.706 391.426 445.505 394.621 446.384 398.08 L 446.384 398.08 L 446.384 398.08 L 446.384 398.08 L 446.384 398.08 L 446.384 398.08 L 446.384 398.08 L 446.384 398.08 L 446.384 398.08 L 510.87 398.08 L 632.87 271.08 L 691.38 271.08 L 749.38 229.08 L 1090.07 229.08 L 1301.998 440.999 L 1287.84 440.999 Z  M 0 321.08 L 283.07 321.08 L 429.9 174.259 L 429.9 174.259 L 429.9 174.259 L 429.9 174.259 L 429.9 174.259 L 429.9 174.259 L 429.9 174.259 L 429.9 174.259 L 429.9 174.259 L 429.9 174.259 L 429.9 174.259 C 432.939 176.038 436.422 177 440 177 C 445.3 177 450.39 174.89 454.14 171.14 C 457.89 167.39 460 162.3 460 157 C 460 151.7 457.89 146.61 454.14 142.86 C 450.39 139.11 445.3 137 440 137 C 434.7 137 429.61 139.11 425.86 142.86 C 422.11 146.61 420 151.7 420 157 L 420 157 C 420 160.618 420.983 164.138 422.8 167.2 L 278.93 311.08 L 0 311.08 L 0 321.08 Z  M 652.777 440.999 L 722.355 367.41 L 722.355 367.41 L 722.355 367.41 L 722.355 367.41 L 722.355 367.41 L 722.355 367.41 L 722.355 367.41 L 722.355 367.41 L 722.355 367.41 L 722.355 367.41 L 722.355 367.41 L 722.355 367.41 L 722.355 367.41 L 722.355 367.41 L 722.355 367.41 C 720.823 364.539 720 361.31 720 358 L 720 358 C 720 352.7 722.11 347.61 725.86 343.86 C 729.61 340.11 734.7 338 740 338 C 745.3 338 750.39 340.11 754.14 343.86 C 756.457 346.177 758.148 349.006 759.102 352.08 L 1090.07 352.08 L 1178.996 440.999 L 1164.843 440.999 L 1085.93 362.08 L 774 362.08 L 759.579 362.08 C 758.789 365.861 756.913 369.367 754.14 372.14 C 750.39 375.89 745.3 378 740 378 C 736.118 378 732.348 376.868 729.135 374.788 L 666.539 440.999 L 652.777 440.999 Z  M 0 186.08 L 162.93 186.08 L 245.583 103.417 C 243.267 100.088 242 96.107 242 92 L 242 92 C 242 86.7 244.11 81.61 247.86 77.86 C 251.61 74.11 256.7 72 262 72 C 267.3 72 272.39 74.11 276.14 77.86 C 279.89 81.61 282 86.7 282 92 C 282 97.3 279.89 102.39 276.14 106.14 C 272.39 109.89 267.3 112 262 112 C 258.923 112 255.916 111.289 253.202 109.958 L 253.202 109.958 L 253.202 109.958 L 253.202 109.958 L 253.202 109.958 L 253.202 109.958 L 253.202 109.958 L 253.202 109.958 L 253.202 109.958 L 253.202 109.958 L 253.202 109.958 L 253.202 109.958 L 253.202 109.958 L 253.202 109.958 L 253.202 109.958 L 253.202 109.958 L 253.202 109.958 L 253.202 109.958 L 167.07 196.08 L 0 196.08 L 0 186.08 Z  M 0 124.08 L 32.93 124.08 L 108.79 48.21 C 106.343 44.823 105 40.728 105 36.5 L 105 36.5 C 105 31.2 107.11 26.11 110.86 22.36 C 114.61 18.61 119.7 16.5 125 16.5 C 130.3 16.5 135.39 18.61 139.14 22.36 C 142.89 26.11 145 31.2 145 36.5 C 145 41.8 142.89 46.89 139.14 50.64 C 135.39 54.39 130.3 56.5 125 56.5 C 122.05 56.5 119.165 55.846 116.54 54.62 L 116.54 54.62 L 116.54 54.62 L 116.54 54.62 L 116.54 54.62 L 37.07 134.08 L 0 134.08 L 0 124.08 Z  M 1366 154.16 L 1261.413 49.573 C 1259.076 50.507 1256.563 51 1254 51 C 1248.7 51 1243.61 48.89 1239.86 45.14 C 1236.11 41.39 1234 36.3 1234 31 L 1234 31 C 1234 25.7 1236.11 20.61 1239.86 16.86 C 1243.61 13.11 1248.7 11 1254 11 C 1259.3 11 1264.39 13.11 1268.14 16.86 C 1271.89 20.61 1274 25.7 1274 31 C 1274 35.589 1272.418 40.02 1269.56 43.56 L 1269.56 43.56 L 1269.56 43.56 L 1269.56 43.56 L 1366 140 L 1366 154.16 Z  M 1366 231.001 L 1150.07 15.08 L 776.384 15.08 C 775.505 11.621 773.706 8.426 771.14 5.86 C 767.39 2.11 762.3 0 757 0 C 751.7 0 746.61 2.11 742.86 5.86 C 740.294 8.426 738.495 11.621 737.616 15.08 L 737.616 15.08 L 411.9 15.08 L 214.658 216.079 L 214.658 216.079 L 214.658 216.079 C 211.49 214.084 207.799 213 204 213 C 198.7 213 193.61 215.11 189.86 218.86 C 187.048 221.672 185.158 225.238 184.389 229.08 L 0 229.08 L 0 239.08 L 184.948 239.08 L 184.948 239.08 C 185.911 242.092 187.583 244.863 189.86 247.14 C 193.61 250.89 198.7 253 204 253 C 209.3 253 214.39 250.89 218.14 247.14 C 221.89 243.39 224 238.3 224 233 C 224 229.602 223.133 226.291 221.522 223.364 L 221.522 223.364 L 416.1 25.08 L 737.657 25.08 L 737.657 25.08 C 738.551 28.478 740.333 31.613 742.86 34.14 C 746.61 37.89 751.7 40 757 40 C 762.3 40 767.39 37.89 771.14 34.14 C 773.667 31.613 775.449 28.478 776.343 25.08 L 776.343 25.08 L 1145.93 25.08 L 1366 245.159 L 1366 231.001 Z  M 115 36.5 C 115 33.85 116.05 31.3 117.93 29.43 C 119.8 27.55 122.35 26.5 125 26.5 C 127.65 26.5 130.2 27.55 132.07 29.43 C 133.95 31.3 135 33.85 135 36.5 C 135 39.15 133.95 41.7 132.07 43.57 C 130.2 45.44 127.65 46.5 125 46.5 C 122.35 46.5 119.8 45.44 117.93 43.57 C 116.05 41.7 115 39.15 115 36.5 L 115 36.5 L 115 36.5 L 115 36.5 L 115 36.5 L 115 36.5 Z  M 328 403 C 328 400.35 329.05 397.8 330.93 395.93 C 332.8 394.05 335.35 393 338 393 C 340.65 393 343.2 394.05 345.07 395.93 C 346.95 397.8 348 400.35 348 403 C 348 405.65 346.95 408.2 345.07 410.07 C 343.2 411.94 340.65 413 338 413 C 335.35 413 332.8 411.94 330.93 410.07 C 329.05 408.2 328 405.65 328 403 L 328 403 L 328 403 L 328 403 L 328 403 L 328 403 L 328 403 Z  M 20 37.5 C 20 34.85 21.05 32.3 22.93 30.43 C 24.8 28.55 27.35 27.5 30 27.5 C 32.65 27.5 35.2 28.55 37.07 30.43 C 38.95 32.3 40 34.85 40 37.5 C 40 40.15 38.95 42.7 37.07 44.57 C 35.2 46.44 32.65 47.5 30 47.5 C 27.35 47.5 24.8 46.44 22.93 44.57 C 21.05 42.7 20 40.15 20 37.5 L 20 37.5 L 20 37.5 L 20 37.5 L 20 37.5 L 20 37.5 L 20 37.5 L 20 37.5 L 20 37.5 L 20 37.5 L 20 37.5 L 20 37.5 L 20 37.5 L 20 37.5 L 20 37.5 L 20 37.5 L 20 37.5 L 20 37.5 L 20 37.5 L 20 37.5 Z  M 252 92 C 252 89.35 253.05 86.8 254.93 84.93 C 256.8 83.05 259.35 82 262 82 C 264.65 82 267.2 83.05 269.07 84.93 C 270.95 86.8 272 89.35 272 92 C 272 94.65 270.95 97.2 269.07 99.07 C 267.2 100.94 264.65 102 262 102 C 259.35 102 256.8 100.94 254.93 99.07 C 253.05 97.2 252 94.65 252 92 L 252 92 L 252 92 L 252 92 L 252 92 L 252 92 L 252 92 L 252 92 L 252 92 L 252 92 L 252 92 L 252 92 L 252 92 L 252 92 L 252 92 L 252 92 L 252 92 L 252 92 L 252 92 Z  M 468 272 C 468 269.35 469.05 266.8 470.93 264.93 C 472.8 263.05 475.35 262 478 262 C 480.65 262 483.2 263.05 485.07 264.93 C 486.95 266.8 488 269.35 488 272 C 488 274.65 486.95 277.2 485.07 279.07 C 483.2 280.94 480.65 282 478 282 C 475.35 282 472.8 280.94 470.93 279.07 C 469.05 277.2 468 274.65 468 272 L 468 272 L 468 272 L 468 272 L 468 272 L 468 272 L 468 272 L 468 272 L 468 272 L 468 272 L 468 272 L 468 272 L 468 272 L 468 272 L 468 272 L 468 272 L 468 272 L 468 272 L 468 272 L 468 272 L 468 272 Z  M 533 272 C 533 269.35 534.05 266.8 535.93 264.93 C 537.8 263.05 540.35 262 543 262 C 545.65 262 548.2 263.05 550.07 264.93 C 551.95 266.8 553 269.35 553 272 C 553 274.65 551.95 277.2 550.07 279.07 C 548.2 280.94 545.65 282 543 282 C 540.35 282 537.8 280.94 535.93 279.07 C 534.05 277.2 533 274.65 533 272 L 533 272 L 533 272 L 533 272 L 533 272 L 533 272 L 533 272 L 533 272 L 533 272 L 533 272 L 533 272 L 533 272 L 533 272 L 533 272 L 533 272 L 533 272 L 533 272 L 533 272 Z  M 488 112 C 488 109.35 489.05 106.8 490.93 104.93 C 492.8 103.05 495.35 102 498 102 C 500.65 102 503.2 103.05 505.07 104.93 C 506.95 106.8 508 109.35 508 112 L 508 112 C 508 114.65 506.95 117.2 505.07 119.07 C 503.2 120.94 500.65 122 498 122 C 495.35 122 492.8 120.94 490.93 119.07 C 489.05 117.2 488 114.65 488 112 L 488 112 L 488 112 L 488 112 L 488 112 L 488 112 L 488 112 L 488 112 L 488 112 L 488 112 L 488 112 L 488 112 L 488 112 L 488 112 L 488 112 L 488 112 Z  M 302 37.5 C 302 34.85 303.05 32.3 304.93 30.43 C 306.8 28.55 309.35 27.5 312 27.5 C 314.65 27.5 317.2 28.55 319.07 30.43 C 320.95 32.3 322 34.85 322 37.5 C 322 40.15 320.95 42.7 319.07 44.57 C 317.2 46.44 314.65 47.5 312 47.5 C 309.35 47.5 306.8 46.44 304.93 44.57 C 303.05 42.7 302 40.15 302 37.5 L 302 37.5 L 302 37.5 L 302 37.5 L 302 37.5 L 302 37.5 L 302 37.5 L 302 37.5 L 302 37.5 L 302 37.5 L 302 37.5 L 302 37.5 L 302 37.5 L 302 37.5 L 302 37.5 L 302 37.5 L 302 37.5 L 302 37.5 L 302 37.5 L 302 37.5 L 302 37.5 Z  M 468 332 C 468 329.35 469.05 326.8 470.93 324.93 C 472.8 323.05 475.35 322 478 322 C 480.65 322 483.2 323.05 485.07 324.93 C 486.95 326.8 488 329.35 488 332 C 488 334.65 486.95 337.2 485.07 339.07 C 483.2 340.94 480.65 342 478 342 C 475.35 342 472.8 340.94 470.93 339.07 C 469.05 337.2 468 334.65 468 332 L 468 332 L 468 332 L 468 332 L 468 332 L 468 332 L 468 332 L 468 332 L 468 332 L 468 332 L 468 332 L 468 332 L 468 332 L 468 332 L 468 332 L 468 332 L 468 332 L 468 332 L 468 332 Z  M 1030 292 L 1030 292 L 1030 292 L 1030 292 C 1030 289.35 1031.05 286.8 1032.93 284.93 C 1034.8 283.05 1037.35 282 1040 282 C 1042.65 282 1045.2 283.05 1047.07 284.93 C 1048.95 286.8 1050 289.35 1050 292 C 1050 294.65 1048.95 297.2 1047.07 299.07 C 1045.2 300.94 1042.65 302 1040 302 C 1037.35 302 1034.8 300.94 1032.93 299.07 C 1031.05 297.2 1030 294.65 1030 292 L 1030 292 L 1030 292 L 1030 292 L 1030 292 L 1030 292 L 1030 292 L 1030 292 L 1030 292 L 1030 292 L 1030 292 L 1030 292 L 1030 292 L 1030 292 Z  M 468 198 C 468 195.35 469.05 192.8 470.93 190.93 C 472.8 189.05 475.35 188 478 188 C 480.65 188 483.2 189.05 485.07 190.93 C 486.95 192.8 488 195.35 488 198 C 488 200.65 486.95 203.2 485.07 205.07 C 483.2 206.94 480.65 208 478 208 C 475.35 208 472.8 206.94 470.93 205.07 C 469.05 203.2 468 200.65 468 198 L 468 198 L 468 198 L 468 198 L 468 198 L 468 198 L 468 198 L 468 198 L 468 198 L 468 198 L 468 198 L 468 198 L 468 198 L 468 198 L 468 198 L 468 198 L 468 198 L 468 198 L 468 198 Z  M 730 358 C 730 355.35 731.05 352.8 732.93 350.93 C 734.8 349.05 737.35 348 740 348 C 742.65 348 745.2 349.05 747.07 350.93 C 748.95 352.8 750 355.35 750 358 C 750 360.65 748.95 363.2 747.07 365.07 C 745.2 366.94 742.65 368 740 368 C 737.35 368 734.8 366.94 732.93 365.07 C 731.05 363.2 730 360.65 730 358 L 730 358 L 730 358 L 730 358 L 730 358 L 730 358 L 730 358 L 730 358 L 730 358 L 730 358 L 730 358 L 730 358 L 730 358 L 730 358 L 730 358 L 730 358 Z  M 430 157 C 430 154.35 431.05 151.8 432.93 149.93 C 434.8 148.05 437.35 147 440 147 C 442.65 147 445.2 148.05 447.07 149.93 C 448.95 151.8 450 154.35 450 157 C 450 159.65 448.95 162.2 447.07 164.07 C 445.2 165.94 442.65 167 440 167 C 437.35 167 434.8 165.94 432.93 164.07 C 431.05 162.2 430 159.65 430 157 L 430 157 L 430 157 L 430 157 L 430 157 L 430 157 L 430 157 L 430 157 L 430 157 L 430 157 L 430 157 L 430 157 Z  M 758 292 C 758 289.35 759.05 286.8 760.93 284.93 C 762.8 283.05 765.35 282 768 282 C 770.65 282 773.2 283.05 775.07 284.93 C 776.95 286.8 778 289.35 778 292 L 778 292 C 778 294.65 776.95 297.2 775.07 299.07 C 773.2 300.94 770.65 302 768 302 C 765.35 302 762.8 300.94 760.93 299.07 C 759.05 297.2 758 294.65 758 292 L 758 292 L 758 292 L 758 292 L 758 292 L 758 292 L 758 292 L 758 292 L 758 292 L 758 292 L 758 292 L 758 292 L 758 292 L 758 292 L 758 292 Z  M 1034 161 C 1034 158.35 1035.05 155.8 1036.93 153.93 C 1038.8 152.05 1041.35 151 1044 151 C 1046.65 151 1049.2 152.05 1051.07 153.93 C 1052.95 155.8 1054 158.35 1054 161 C 1054 163.65 1052.95 166.2 1051.07 168.07 C 1049.2 169.94 1046.65 171 1044 171 C 1041.35 171 1038.8 169.94 1036.93 168.07 C 1035.05 166.2 1034 163.65 1034 161 L 1034 161 L 1034 161 L 1034 161 L 1034 161 L 1034 161 L 1034 161 L 1034 161 L 1034 161 L 1034 161 L 1034 161 L 1034 161 Z  M 534 163 C 534 160.35 535.05 157.8 536.93 155.93 C 538.8 154.05 541.35 153 544 153 C 546.65 153 549.2 154.05 551.07 155.93 C 552.95 157.8 554 160.35 554 163 C 554 165.65 552.95 168.2 551.07 170.07 C 549.2 171.94 546.65 173 544 173 C 541.35 173 538.8 171.94 536.93 170.07 C 535.05 168.2 534 165.65 534 163 L 534 163 L 534 163 L 534 163 L 534 163 L 534 163 L 534 163 L 534 163 L 534 163 L 534 163 L 534 163 L 534 163 L 534 163 Z  M 646 112 C 646 109.35 647.05 106.8 648.93 104.93 C 650.8 103.05 653.35 102 656 102 C 658.65 102 661.2 103.05 663.07 104.93 C 664.95 106.8 666 109.35 666 112 C 666 114.65 664.95 117.2 663.07 119.07 C 661.2 120.94 658.65 122 656 122 C 653.35 122 650.8 120.94 648.93 119.07 C 647.05 117.2 646 114.65 646 112 L 646 112 L 646 112 L 646 112 L 646 112 L 646 112 L 646 112 L 646 112 L 646 112 L 646 112 L 646 112 L 646 112 L 646 112 L 646 112 L 646 112 L 646 112 Z  M 216 37.5 C 216 34.85 217.05 32.3 218.93 30.43 C 220.8 28.55 223.35 27.5 226 27.5 C 228.65 27.5 231.2 28.55 233.07 30.43 C 234.95 32.3 236 34.85 236 37.5 C 236 40.15 234.95 42.7 233.07 44.57 C 231.2 46.44 228.65 47.5 226 47.5 C 223.35 47.5 220.8 46.44 218.93 44.57 C 217.05 42.7 216 40.15 216 37.5 L 216 37.5 L 216 37.5 L 216 37.5 L 216 37.5 L 216 37.5 L 216 37.5 L 216 37.5 L 216 37.5 L 216 37.5 Z  M 534 210 C 534 207.35 535.05 204.8 536.93 202.93 C 538.8 201.05 541.35 200 544 200 C 546.65 200 549.2 201.05 551.07 202.93 C 552.95 204.8 554 207.35 554 210 C 554 212.65 552.95 215.2 551.07 217.07 C 549.2 218.94 546.65 220 544 220 C 541.35 220 538.8 218.94 536.93 217.07 C 535.05 215.2 534 212.65 534 210 L 534 210 L 534 210 L 534 210 L 534 210 L 534 210 L 534 210 L 534 210 L 534 210 L 534 210 L 534 210 L 534 210 Z  M 417 403 C 417 400.35 418.05 397.8 419.93 395.93 C 421.8 394.05 424.35 393 427 393 C 429.65 393 432.2 394.05 434.07 395.93 C 435.95 397.8 437 400.35 437 403 C 437 405.65 435.95 408.2 434.07 410.07 C 432.2 411.94 429.65 413 427 413 C 424.35 413 421.8 411.94 419.93 410.07 C 418.05 408.2 417 405.65 417 403 L 417 403 L 417 403 L 417 403 L 417 403 L 417 403 L 417 403 L 417 403 L 417 403 L 417 403 Z  M 110 140 C 110 137.35 111.05 134.8 112.93 132.93 C 114.8 131.05 117.35 130 120 130 C 122.65 130 125.2 131.05 127.07 132.93 C 128.95 134.8 130 137.35 130 140 C 130 142.65 128.95 145.2 127.07 147.07 C 125.2 148.94 122.65 150 120 150 C 117.35 150 114.8 148.94 112.93 147.07 C 111.05 145.2 110 142.65 110 140 L 110 140 L 110 140 L 110 140 L 110 140 L 110 140 L 110 140 L 110 140 L 110 140 L 110 140 Z  M 666 317.5 C 666 314.85 667.05 312.3 668.93 310.43 C 670.8 308.55 673.35 307.5 676 307.5 C 678.65 307.5 681.2 308.55 683.07 310.43 C 684.95 312.3 686 314.85 686 317.5 C 686 320.15 684.95 322.7 683.07 324.57 C 681.2 326.44 678.65 327.5 676 327.5 C 673.35 327.5 670.8 326.44 668.93 324.57 C 667.05 322.7 666 320.15 666 317.5 L 666 317.5 L 666 317.5 L 666 317.5 L 666 317.5 L 666 317.5 L 666 317.5 L 666 317.5 L 666 317.5 Z  M 581 403 C 581 400.35 582.05 397.8 583.93 395.93 C 585.8 394.05 588.35 393 591 393 C 593.65 393 596.2 394.05 598.07 395.93 C 599.95 397.8 601 400.35 601 403 C 601 405.65 599.95 408.2 598.07 410.07 C 596.2 411.94 593.65 413 591 413 C 588.35 413 585.8 411.94 583.93 410.07 C 582.05 408.2 581 405.65 581 403 L 581 403 L 581 403 L 581 403 L 581 403 L 581 403 L 581 403 L 581 403 L 581 403 Z  M 1244 31 C 1244 28.35 1245.05 25.8 1246.93 23.93 C 1248.8 22.05 1251.35 21 1254 21 C 1256.65 21 1259.2 22.05 1261.07 23.93 C 1262.95 25.8 1264 28.35 1264 31 C 1264 33.65 1262.95 36.2 1261.07 38.07 C 1259.2 39.94 1256.65 41 1254 41 C 1251.35 41 1248.8 39.94 1246.93 38.07 C 1245.05 36.2 1244 33.65 1244 31 L 1244 31 L 1244 31 L 1244 31 L 1244 31 Z  M 194 233 C 194 230.35 195.05 227.8 196.93 225.93 C 198.8 224.05 201.35 223 204 223 C 206.65 223 209.2 224.05 211.07 225.93 C 212.95 227.8 214 230.35 214 233 C 214 235.65 212.95 238.2 211.07 240.07 C 209.2 241.94 206.65 243 204 243 C 201.35 243 198.8 241.94 196.93 240.07 C 195.05 238.2 194 235.65 194 233 L 194 233 L 194 233 L 194 233 Z  M 747 20 C 747 17.35 748.05 14.8 749.93 12.93 C 751.8 11.05 754.35 10 757 10 C 759.65 10 762.2 11.05 764.07 12.93 C 765.95 14.8 767 17.35 767 20 C 767 22.65 765.95 25.2 764.07 27.07 C 762.2 28.94 759.65 30 757 30 C 754.35 30 751.8 28.94 749.93 27.07 C 748.05 25.2 747 22.65 747 20 L 747 20 L 747 20 L 747 20 L 747 20 L 747 20 Z  M 292 37.5 C 292 32.2 294.11 27.11 297.86 23.36 C 301.61 19.61 306.7 17.5 312 17.5 C 317.3 17.5 322.39 19.61 326.14 23.36 C 329.89 27.11 332 32.2 332 37.5 C 332 42.8 329.89 47.89 326.14 51.64 C 322.39 55.39 317.3 57.5 312 57.5 C 306.7 57.5 301.61 55.39 297.86 51.64 C 294.11 47.89 292 42.8 292 37.5 L 292 37.5 L 292 37.5 L 292 37.5 L 292 37.5 L 292 37.5 L 292 37.5 L 292 37.5 L 292 37.5 L 292 37.5 L 292 37.5 L 292 37.5 L 292 37.5 L 292 37.5 L 292 37.5 L 292 37.5 L 292 37.5 L 292 37.5 L 292 37.5 L 292 37.5 L 292 37.5 Z  M 523 272 C 523 266.7 525.11 261.61 528.86 257.86 C 532.61 254.11 537.7 252 543 252 C 548.3 252 553.39 254.11 557.14 257.86 C 560.89 261.61 563 266.7 563 272 C 563 277.3 560.89 282.39 557.14 286.14 C 553.39 289.89 548.3 292 543 292 C 537.7 292 532.61 289.89 528.86 286.14 C 525.11 282.39 523 277.3 523 272 L 523 272 L 523 272 L 523 272 L 523 272 L 523 272 L 523 272 L 523 272 L 523 272 L 523 272 L 523 272 L 523 272 L 523 272 L 523 272 L 523 272 L 523 272 L 523 272 L 523 272 Z  M 10 37.5 C 10 32.2 12.11 27.11 15.86 23.36 C 19.61 19.61 24.7 17.5 30 17.5 C 35.3 17.5 40.39 19.61 44.14 23.36 C 47.89 27.11 50 32.2 50 37.5 C 50 42.8 47.89 47.89 44.14 51.64 C 40.39 55.39 35.3 57.5 30 57.5 C 24.7 57.5 19.61 55.39 15.86 51.64 C 12.11 47.89 10 42.8 10 37.5 L 10 37.5 L 10 37.5 L 10 37.5 L 10 37.5 L 10 37.5 L 10 37.5 L 10 37.5 L 10 37.5 L 10 37.5 L 10 37.5 L 10 37.5 L 10 37.5 L 10 37.5 L 10 37.5 L 10 37.5 L 10 37.5 L 10 37.5 L 10 37.5 L 10 37.5 Z  M 458 332 C 458 326.7 460.11 321.61 463.86 317.86 C 467.61 314.11 472.7 312 478 312 C 483.3 312 488.39 314.11 492.14 317.86 C 495.89 321.61 498 326.7 498 332 C 498 337.3 495.89 342.39 492.14 346.14 C 488.39 349.89 483.3 352 478 352 C 472.7 352 467.61 349.89 463.86 346.14 C 460.11 342.39 458 337.3 458 332 L 458 332 L 458 332 L 458 332 L 458 332 L 458 332 L 458 332 L 458 332 L 458 332 L 458 332 L 458 332 L 458 332 L 458 332 L 458 332 L 458 332 L 458 332 L 458 332 L 458 332 L 458 332 Z  M 458 272 C 458 266.7 460.11 261.61 463.86 257.86 C 467.61 254.11 472.7 252 478 252 C 483.3 252 488.39 254.11 492.14 257.86 C 495.89 261.61 498 266.7 498 272 C 498 277.3 495.89 282.39 492.14 286.14 C 488.39 289.89 483.3 292 478 292 C 472.7 292 467.61 289.89 463.86 286.14 C 460.11 282.39 458 277.3 458 272 L 458 272 L 458 272 L 458 272 L 458 272 L 458 272 L 458 272 L 458 272 L 458 272 L 458 272 L 458 272 L 458 272 L 458 272 L 458 272 L 458 272 L 458 272 L 458 272 L 458 272 L 458 272 L 458 272 L 458 272 Z  M 517.384 107.08 C 516.505 103.621 514.706 100.426 512.14 97.86 C 508.39 94.11 503.3 92 498 92 C 492.7 92 487.61 94.11 483.86 97.86 C 480.11 101.61 478 106.7 478 112 L 478 112 L 478 112 C 478 117.3 480.11 122.39 483.86 126.14 C 487.61 129.89 492.7 132 498 132 C 503.3 132 508.39 129.89 512.14 126.14 C 514.667 123.613 516.449 120.478 517.343 117.08 L 635 117.08 L 636.657 117.08 L 636.657 117.08 C 637.551 120.478 639.333 123.613 641.86 126.14 C 645.61 129.89 650.7 132 656 132 C 661.3 132 666.39 129.89 670.14 126.14 C 673.89 122.39 676 117.3 676 112 C 676 106.7 673.89 101.61 670.14 97.86 C 666.39 94.11 661.3 92 656 92 C 650.7 92 645.61 94.11 641.86 97.86 C 639.294 100.426 637.495 103.621 636.616 107.08 L 635 107.08 L 517.384 107.08 L 517.384 107.08 L 517.384 107.08 L 517.384 107.08 L 517.384 107.08 L 517.384 107.08 L 517.384 107.08 L 517.384 107.08 L 517.384 107.08 L 517.384 107.08 L 517.384 107.08 L 517.384 107.08 L 517.384 107.08 L 517.384 107.08 Z  M 132.56 124.44 C 129.02 121.582 124.589 120 120 120 C 114.7 120 109.61 122.11 105.86 125.86 C 102.11 129.61 100 134.7 100 140 L 100 140 L 100 140 C 100 145.3 102.11 150.39 105.86 154.14 C 109.61 157.89 114.7 160 120 160 C 125.3 160 130.39 157.89 134.14 154.14 C 137.89 150.39 140 145.3 140 140 C 140 137.437 139.507 134.924 138.573 132.587 L 216.218 54.942 C 219.181 56.604 222.546 57.5 226 57.5 C 231.3 57.5 236.39 55.39 240.14 51.64 C 243.89 47.89 246 42.8 246 37.5 C 246 32.2 243.89 27.11 240.14 23.36 C 236.39 19.61 231.3 17.5 226 17.5 C 220.7 17.5 215.61 19.61 211.86 23.36 C 208.11 27.11 206 32.2 206 37.5 L 206 37.5 L 206 37.5 C 206 41.241 207.051 44.877 208.988 48.012 L 132.56 124.44 L 132.56 124.44 L 132.56 124.44 L 132.56 124.44 L 132.56 124.44 L 132.56 124.44 L 132.56 124.44 L 132.56 124.44 Z  M 563.611 206.08 C 562.842 202.237 560.952 198.672 558.14 195.86 C 554.39 192.11 549.3 190 544 190 C 538.7 190 533.61 192.11 529.86 195.86 C 526.11 199.61 524 204.7 524 210 L 524 210 L 524 210 C 524 215.3 526.11 220.39 529.86 224.14 C 533.61 227.89 538.7 230 544 230 C 549.3 230 554.39 227.89 558.14 224.14 C 560.417 221.863 562.089 219.092 563.052 216.08 L 694.63 216.08 L 760.63 168.08 L 1025.297 168.08 L 1025.297 168.08 C 1026.292 170.705 1027.837 173.117 1029.86 175.14 C 1033.61 178.89 1038.7 181 1044 181 C 1049.3 181 1054.39 178.89 1058.14 175.14 C 1061.89 171.39 1064 166.3 1064 161 C 1064 155.7 1061.89 150.61 1058.14 146.86 C 1054.39 143.11 1049.3 141 1044 141 C 1038.7 141 1033.61 143.11 1029.86 146.86 C 1026.806 149.914 1024.839 153.858 1024.215 158.08 L 757.37 158.08 L 691.37 206.08 L 563.611 206.08 L 563.611 206.08 L 563.611 206.08 L 563.611 206.08 L 563.611 206.08 L 563.611 206.08 L 563.611 206.08 L 563.611 206.08 L 563.611 206.08 L 563.611 206.08 Z  M 601.2 385.8 C 598.138 383.983 594.618 383 591 383 C 585.7 383 580.61 385.11 576.86 388.86 C 573.11 392.61 571 397.7 571 403 L 571 403 L 571 403 C 571 408.3 573.11 413.39 576.86 417.14 C 580.61 420.89 585.7 423 591 423 C 596.3 423 601.39 420.89 605.14 417.14 C 608.89 413.39 611 408.3 611 403 C 611 399.422 610.038 395.939 608.26 392.9 L 666.218 334.942 C 669.181 336.604 672.546 337.5 676 337.5 C 681.3 337.5 686.39 335.39 690.14 331.64 C 693.89 327.89 696 322.8 696 317.5 C 696 312.2 693.89 307.11 690.14 303.36 C 686.39 299.61 681.3 297.5 676 297.5 C 670.7 297.5 665.61 299.61 661.86 303.36 C 658.11 307.11 656 312.2 656 317.5 L 656 317.5 L 656 317.5 C 656 321.241 657.051 324.877 658.988 328.012 L 601.2 385.8 L 601.2 385.8 L 601.2 385.8 L 601.2 385.8 L 601.2 385.8 L 601.2 385.8 L 601.2 385.8 Z  M 787.384 287.08 C 786.505 283.621 784.706 280.426 782.14 277.86 C 778.39 274.11 773.3 272 768 272 C 762.7 272 757.61 274.11 753.86 277.86 C 750.11 281.61 748 286.7 748 292 L 748 292 L 748 292 C 748 297.3 750.11 302.39 753.86 306.14 C 757.61 309.89 762.7 312 768 312 C 773.3 312 778.39 309.89 782.14 306.14 C 784.667 303.613 786.449 300.478 787.343 297.08 L 1020.657 297.08 L 1020.657 297.08 C 1021.551 300.478 1023.333 303.613 1025.86 306.14 C 1029.61 309.89 1034.7 312 1040 312 C 1045.3 312 1050.39 309.89 1054.14 306.14 C 1057.89 302.39 1060 297.3 1060 292 C 1060 286.7 1057.89 281.61 1054.14 277.86 C 1050.39 274.11 1045.3 272 1040 272 C 1034.7 272 1029.61 274.11 1025.86 277.86 C 1023.294 280.426 1021.495 283.621 1020.616 287.08 L 787.384 287.08 L 787.384 287.08 L 787.384 287.08 L 787.384 287.08 L 787.384 287.08 L 787.384 287.08 L 787.384 287.08 L 787.384 287.08 L 787.384 287.08 L 787.384 287.08 L 787.384 287.08 L 787.384 287.08 L 787.384 287.08 Z " fill-rule="evenodd" fill="url(#_lgradient_2)"/><g><path d=" M 621.997 50.189 C 620.291 50.221 618.427 50.884 616.342 52.527 C 611.193 50.537 606.233 49.842 601.747 53.886 C 594.86 53.001 592.648 54.833 590.942 56.981 C 589.426 56.95 579.664 55.433 575.147 62.131 C 563.869 60.804 560.299 68.765 564.342 76.189 C 562.036 79.759 559.667 83.297 565.037 90.121 C 563.142 93.912 564.311 97.987 568.797 102.979 C 567.628 108.318 569.966 112.077 574.136 115.015 C 573.346 122.281 580.802 126.514 583.045 128.031 C 583.898 132.264 585.698 136.276 594.196 138.487 C 595.618 144.837 600.736 145.911 605.696 147.238 C 589.3 156.779 575.241 169.321 575.336 200.091 L 572.935 204.387 C 554.107 215.823 537.205 252.596 563.647 282.481 C 565.385 291.801 568.291 298.53 570.882 305.954 C 574.736 335.934 599.914 349.961 606.58 351.635 C 616.31 359.028 626.672 366.072 640.699 371.001 C 653.936 384.648 668.278 389.861 682.684 389.829 C 682.905 389.829 683.126 389.829 683.316 389.829 C 697.722 389.861 712.064 384.648 725.301 371.001 C 739.328 366.072 749.69 359.028 759.451 351.635 C 766.086 349.961 791.296 335.934 795.118 305.954 C 797.709 298.53 800.615 291.801 802.353 282.481 C 828.795 252.596 811.893 215.823 793.065 204.387 L 790.664 200.091 C 790.759 169.321 776.7 156.779 760.304 147.238 C 765.264 145.911 770.382 144.837 771.804 138.487 C 780.333 136.276 782.102 132.264 782.955 127.999 C 785.198 126.514 792.654 122.281 791.896 114.983 C 796.066 112.077 798.404 108.318 797.203 102.979 C 801.689 98.019 802.858 93.88 800.963 90.121 C 806.365 83.297 803.964 79.791 801.658 76.189 C 805.701 68.765 802.131 60.804 790.853 62.131 C 786.367 55.433 776.574 56.95 775.058 56.981 C 773.383 54.833 771.14 53.001 764.253 53.886 C 759.799 49.842 754.807 50.537 749.658 52.527 C 743.561 47.694 739.517 51.548 734.905 53.033 C 727.544 50.6 725.838 53.917 722.205 55.276 C 714.149 53.57 711.717 57.266 707.831 61.183 L 703.345 61.088 C 691.182 68.26 685.148 82.855 683 90.342 C 680.883 82.823 674.849 68.26 662.687 61.088 L 658.201 61.183 C 654.315 57.266 651.882 53.57 643.827 55.276 C 640.194 53.917 638.488 50.6 631.127 53.033 C 628.062 52.053 625.282 50.095 621.997 50.189 Z " fill="rgb(0,0,0)" fill-opacity="0.9"/><path d=" M 597.798 81.718 C 630.053 98.335 648.786 111.761 659.054 123.229 C 653.809 144.3 626.388 145.28 616.342 144.679 C 618.395 143.732 620.133 142.563 620.733 140.794 C 618.206 139.025 609.266 140.636 603.042 137.129 C 605.443 136.624 606.549 136.15 607.686 134.381 C 601.81 132.485 595.46 130.874 591.732 127.778 C 593.723 127.81 595.618 128.22 598.24 126.388 C 592.964 123.545 587.341 121.302 582.981 116.974 C 585.698 116.879 588.636 116.942 589.489 115.931 C 584.656 112.93 580.58 109.613 577.2 105.98 C 581.023 106.454 582.634 106.043 583.55 105.38 C 579.917 101.652 575.305 98.493 573.093 93.88 C 575.937 94.86 578.527 95.239 580.391 93.786 C 579.159 91.005 573.851 89.331 570.787 82.823 C 573.757 83.108 576.947 83.455 577.579 82.823 C 576.158 77.168 573.788 74.009 571.482 70.724 C 577.864 70.629 587.531 70.755 587.088 70.218 L 583.139 66.175 C 589.394 64.5 595.776 66.427 600.388 67.881 C 602.473 66.238 600.357 64.184 597.829 62.068 C 603.105 62.763 607.907 63.995 612.235 65.669 C 614.541 63.584 610.719 61.499 608.886 59.414 C 617.069 60.962 620.544 63.142 623.987 65.322 C 626.483 62.921 624.145 60.867 622.439 58.782 C 628.631 61.088 631.79 64.026 635.139 66.933 C 636.276 65.416 638.045 64.279 635.929 60.614 C 640.32 63.142 643.605 66.111 646.038 69.429 C 648.755 67.691 647.681 65.353 647.681 63.173 C 652.23 66.87 655.136 70.819 658.643 74.673 C 659.37 74.167 660.001 72.398 660.538 69.618 C 671.406 80.138 686.759 106.706 664.487 117.226 C 645.533 101.589 622.881 90.216 597.798 81.718 Z  M 768.897 81.718 C 736.674 98.335 717.909 111.761 707.673 123.229 C 712.917 144.3 740.37 145.28 750.385 144.679 C 748.331 143.732 746.625 142.563 745.993 140.794 C 748.521 139.025 757.43 140.636 763.685 137.129 C 761.284 136.624 760.178 136.15 759.041 134.381 C 764.948 132.485 771.298 130.874 775.026 127.778 C 773.004 127.81 771.109 128.22 768.487 126.388 C 773.762 123.545 779.386 121.302 783.777 116.974 C 781.028 116.879 778.09 116.942 777.237 115.931 C 782.071 112.93 786.146 109.613 789.526 105.98 C 785.704 106.454 784.093 106.043 783.177 105.38 C 786.81 101.652 791.422 98.493 793.633 93.88 C 790.79 94.86 788.2 95.239 786.336 93.786 C 787.568 91.005 792.907 89.331 795.971 82.823 C 792.97 83.108 789.811 83.455 789.179 82.823 C 790.569 77.168 792.938 74.009 795.276 70.724 C 788.895 70.629 779.228 70.755 779.638 70.218 L 783.587 66.175 C 777.364 64.5 770.982 66.427 766.338 67.881 C 764.253 66.238 766.401 64.184 768.929 62.068 C 763.621 62.763 758.82 63.963 754.523 65.669 C 752.185 63.584 756.008 61.499 757.872 59.414 C 749.658 60.93 746.215 63.142 742.771 65.322 C 740.244 62.921 742.613 60.867 744.287 58.782 C 738.127 61.088 734.936 64.026 731.588 66.933 C 730.45 65.416 728.713 64.279 730.829 60.614 C 726.438 63.11 723.153 66.111 720.689 69.429 C 718.003 67.691 719.077 65.353 719.077 63.173 C 714.528 66.87 711.622 70.819 708.084 74.673 C 707.389 74.167 706.757 72.398 706.22 69.618 C 695.321 80.138 679.999 106.706 702.271 117.226 C 721.194 101.589 743.814 90.216 768.897 81.718 Z " fill-rule="evenodd" fill="rgb(100,221,23)"/><linearGradient id="_lgradient_3" x1="0.5" y1="0" x2="0.5000000000000001" y2="1" gradientTransform="matrix(241.056,0,0,233.663,560.766,145.615)" gradientUnits="userSpaceOnUse"><stop offset="0%" stop-opacity="1" style="stop-color:rgb(247,26,114)"/><stop offset="100%" stop-opacity="1" style="stop-color:rgb(176,15,79)"/></linearGradient><path d=" M 722.395 296.35 C 722.521 316.032 705.335 332.048 683.979 332.175 C 662.655 332.27 645.28 316.411 645.153 296.729 C 645.153 296.603 645.153 296.476 645.153 296.35 C 645.059 276.669 662.244 260.652 683.569 260.525 C 704.924 260.431 722.3 276.289 722.395 295.971 C 722.395 296.097 722.395 296.224 722.395 296.35 L 722.395 296.35 L 722.395 296.35 L 722.395 296.35 L 722.395 296.35 L 722.395 296.35 L 722.395 296.35 L 722.395 296.35 L 722.395 296.35 L 722.395 296.35 Z  M 661.423 194.626 C 677.44 205.082 680.315 228.839 667.868 247.699 C 655.421 266.528 632.359 273.288 616.374 262.8 C 600.357 252.312 597.482 228.555 609.929 209.726 C 622.376 190.898 645.438 184.137 661.423 194.626 L 661.423 194.626 L 661.423 194.626 L 661.423 194.626 L 661.423 194.626 L 661.423 194.626 L 661.423 194.626 L 661.423 194.626 L 661.423 194.626 L 661.423 194.626 Z  M 704.64 192.698 C 688.623 203.187 685.748 226.944 698.195 245.772 C 710.643 264.632 733.704 271.393 749.69 260.904 C 765.706 250.416 768.613 226.659 756.166 207.799 C 743.719 188.971 720.625 182.21 704.64 192.698 L 704.64 192.698 L 704.64 192.698 L 704.64 192.698 L 704.64 192.698 L 704.64 192.698 L 704.64 192.698 L 704.64 192.698 L 704.64 192.698 Z  M 581.433 211.748 C 598.714 207.136 587.278 283.24 573.22 276.984 C 557.771 264.537 552.78 228.112 581.433 211.748 L 581.433 211.748 L 581.433 211.748 L 581.433 211.748 L 581.433 211.748 L 581.433 211.748 L 581.433 211.748 L 581.433 211.748 Z  M 781.155 210.8 C 763.843 206.188 775.31 282.292 789.368 276.037 C 804.817 263.59 809.808 227.165 781.155 210.8 L 781.155 210.8 L 781.155 210.8 L 781.155 210.8 L 781.155 210.8 L 781.155 210.8 L 781.155 210.8 Z  M 722.426 154.125 C 752.249 149.071 777.079 166.793 776.068 199.111 C 775.089 211.527 711.432 155.958 722.426 154.125 L 722.426 154.125 L 722.426 154.125 L 722.426 154.125 L 722.426 154.125 L 722.426 154.125 Z  M 640.036 153.146 C 610.213 148.123 585.414 165.846 586.393 198.164 C 587.373 210.579 651.029 155.01 640.036 153.146 L 640.036 153.146 L 640.036 153.146 L 640.036 153.146 L 640.036 153.146 Z  M 682.874 145.627 C 665.056 145.153 647.997 158.832 647.933 166.762 C 647.902 176.397 662.023 186.254 682.968 186.506 C 704.387 186.664 718.067 178.609 718.13 168.689 C 718.224 157.411 698.669 145.438 682.874 145.627 L 682.874 145.627 L 682.874 145.627 L 682.874 145.627 Z  M 683.948 343.232 C 699.459 342.537 720.278 348.223 720.341 355.742 C 720.594 363.071 701.449 379.594 682.937 379.246 C 663.729 380.099 644.932 363.545 645.185 357.827 C 644.869 349.392 668.531 342.853 683.948 343.232 L 683.948 343.232 L 683.948 343.232 Z  M 626.641 298.593 C 637.698 311.893 642.721 335.302 633.496 342.189 C 624.777 347.465 603.611 345.285 588.542 323.677 C 578.401 305.512 579.696 287.062 586.836 281.628 C 597.482 275.121 613.973 283.871 626.641 298.593 L 626.641 298.593 Z  M 739.075 294.391 C 727.102 308.386 720.467 333.912 729.187 342.158 C 737.495 348.539 759.894 347.655 776.416 324.719 C 788.421 309.303 784.409 283.556 777.553 276.7 C 767.349 268.865 752.722 278.912 739.075 294.391 Z " fill-rule="evenodd" fill="url(#_lgradient_3)"/></g></g></svg>