<svg xmlns="http://www.w3.org/2000/svg" style="isolation:isolate" viewBox="22 22 1846 256" width="1824" height="256"><circle  cx="189" cy="178" r="97" fill="none" stroke-width="2" stroke="#E00873" stroke-linecap="square" stroke-miterlimit="3"/><path d="M239 80l2 1-2 2-2-2 2-1zM139 80l2 1-2 2-2-2 2-1z" fill="#e00873"/><path  stroke-width="2" stroke="#E00873" stroke-linecap="square" stroke-miterlimit="3" d="M141 81h96"/><path d="M187 78c2 0 4 1 4 3s-2 3-4 3c-1 0-3-1-3-3s2-3 3-3zM284 128l2-2 1 2-1 2-2-2zM284 228l2-2 1 2-1 2-2-2z" fill="#e00873"/><path  stroke-width="2" stroke="#E00873" stroke-linecap="square" stroke-miterlimit="3" d="M286 226v-96"/><path d="M283 180c0-2 1-4 3-4s3 2 3 4c0 1-1 3-3 3s-3-2-3-3zM91 128l1-2 2 2-2 2-1-2zM91 228l1-2 2 2-2 2-1-2z" fill="#e00873"/><path  stroke-width="2" stroke="#E00873" stroke-linecap="round" stroke-miterlimit="3" d="M92 226v-96"/><path d="M89 180c0-2 1-4 3-4s3 2 3 4c0 1-1 3-3 3s-3-2-3-3z" fill="#e00873"/><g><path d="M239 273l2 2-2 1-2-1 2-2zM139 273l2 2-2 1-2-1 2-2z" fill="#e00873"/><path  stroke-width="2" stroke="#E00873" stroke-linecap="square" stroke-miterlimit="3" d="M141 275h96"/><path d="M187 272c2 0 4 1 4 3s-2 3-4 3c-1 0-3-1-3-3s2-3 3-3z" fill="#e00873"/></g><g fill="none" stroke-width="2" stroke="#FFF" stroke-linejoin="round" stroke-linecap="round" stroke-miterlimit="3"><path d="M189 201l16-17 32 20-16-39-19-13-10 10-3 39zm-48 3l19-39 19-13 13 10-3 39-19-17-29 20zM179 152l-9 32 9-32zm23 0l3 32-3-32z" /></g><g fill="none" stroke-width="2" stroke="#FFD581" stroke-miterlimit="3"><path d="M25 238V25h133v20H46v193H25z"  stroke-linecap="square"/><path d="M25 25l10 10-10-10zm9 172h-9 9zM88 25v7-7zm-33 0v9-9zm8 0v7-7zm8 0v7-7zm-25 0v7-7zm34 0v9-9zm-42 0v7-7zm67 0v9-9zm8 0v7-7zm9 0v7-7zm8 0v9-9zm8 0v7-7zm9 0v7-7zm8 0v9-9zM32 84h-7 7zm0-46h-7 7zm2 174h-9 9zM32 53h-7 7zm0 152h-7 7zm0-68h-7 7zM97 25v7-7zM32 46h-7 7zm0 15h-7 7zm0 121h-7 7zm2-76h-9 9zm-2-38h-7 7zm0 91h-7 7zm2-7h-9 9zm0-23h-9 9zm-2-38h-7 7zm0 83h-7 7zm2-60h-9 9zm-2-15h-7 7zm0 22h-7 7zm2 23h-9 9zm-2-68h-7 7zm0 91h-7 7zm2 22h-9 9zm-2 31h-7 7zm0 7h-7 7zm2 8h-9 9z"  stroke-linejoin="round" stroke-linecap="round"/></g><g><path d="M382 146h337c3 0 5 2 5 5 0 2-2 5-5 5H382c-3 0-5-3-5-5 0-3 2-5 5-5z" fill="none" stroke="#ffd581" stroke-linecap="square" stroke-miterlimit="2"/><path d="M382 146h106c3 0 5 2 5 4v1c0 2-2 5-5 5H382c-3 0-5-3-5-5v-1c0-2 2-4 5-4z" fill="#ffd581"/><path d="M382 146h106c3 0 5 2 5 4v1c0 2-2 5-5 5H382c-3 0-5-3-5-5v-1c0-2 2-4 5-4z" fill="none" stroke="#ffd581" stroke-linecap="square" stroke-miterlimit="2"/><circle  cx="501" cy="150" r="13" fill="#FFD581"/><g><path d="M382 91h337c3 0 5 2 5 5 0 2-2 5-5 5H382c-3 0-5-3-5-5 0-3 2-5 5-5z" fill="none" stroke="#04ded4" stroke-linecap="square" stroke-miterlimit="2"/><path d="M384 91h253c4 0 7 2 7 5 0 2-3 5-7 5H384c-4 0-7-3-7-5 0-3 3-5 7-5z" fill="#04ded4"/><path d="M384 91h253c4 0 7 2 7 5 0 2-3 5-7 5H384c-4 0-7-3-7-5 0-3 3-5 7-5z" fill="none" stroke="#04ded4" stroke-linecap="square" stroke-miterlimit="2"/><circle  cx="651" cy="95" r="13" fill="#04DED4"/></g><g><path d="M382 36h337c3 0 5 2 5 5 0 2-2 5-5 5H382c-3 0-5-3-5-5 0-3 2-5 5-5z" fill="none" stroke="#e00873" stroke-linecap="square" stroke-miterlimit="2"/><path d="M383 36h177c3 0 6 2 6 5 0 2-3 5-6 5H383c-3 0-6-3-6-5 0-3 3-5 6-5z" fill="#e00873"/><path d="M383 36h177c3 0 6 2 6 5 0 2-3 5-6 5H383c-3 0-6-3-6-5 0-3 3-5 6-5z" fill="none" stroke="#e00873" stroke-linecap="square" stroke-miterlimit="2"/><circle  cx="561" cy="41" r="13" fill="#E00873"/></g></g><g fill="none" stroke-width="2" stroke-linejoin="round" stroke-miterlimit="3"><path d="M801 43h-12v130h82l7 10h19l8-10h84V43h-14"  stroke="#E00873" stroke-linecap="round"/><path d="M801 31h80c4 0 7 3 7 7v128c-3-9-13-7-87-7V31zM975 31h-80c-4 0-7 3-7 7v128c3-9 12-7 87-7V31z"  stroke="#E00873" stroke-linecap="square"/><path d="M820 45h53-53zm56 11h-65 65zm0 11h-65 65zm0 11h-65 65zm0 10h-65 65zm0 11h-65 65zm0 11h-65 65zm0 10h-65 65zm0 11h-65 65zm-27 11h-38 38zm60-97h53-53zm56 11h-65 65zm0 11h-65 65zm0 11h-65 65zm0 10h-65 65zm0 22h-53 53zm0 10h-65 65zm0 11h-65 65zm-27 11h-38 38z"  stroke="#FFF" stroke-linecap="round"/></g><g fill="none" stroke-width="2"><path d="M624 232l11 11 11 11-22-22zm22 0l-11 11-11 11 22-22z"  stroke="#FFD581" stroke-linejoin="round" stroke-linecap="round" stroke-miterlimit="3"/><path d="M622 228h26l2 1v27l-2 2h-26l-2-2v-27l2-1z" stroke="#ffd581" stroke-linecap="square" stroke-miterlimit="2"/><path d="M514 230l11 11 11 11-22-22zm22 0l-11 11-11 11 22-22z"  stroke="#04DED4" stroke-linejoin="round" stroke-linecap="round" stroke-miterlimit="3"/><path d="M512 226h26l2 1v27l-2 2h-26l-2-2v-27l2-1z" stroke="#04ded4" stroke-linecap="square" stroke-miterlimit="2"/><g><path d="M404 232l11 11 11 11-22-22zm22 0l-11 11-11 11 22-22z"  stroke="#E00873" stroke-linejoin="round" stroke-linecap="round" stroke-miterlimit="3"/><path d="M402 228h26l2 1v27l-2 2h-26l-2-2v-27l2-1z" stroke="#e00873" stroke-linecap="square" stroke-miterlimit="2"/></g></g><g fill="none" stroke-width="2" stroke-miterlimit="3"><path d="M783 193v75h311l-17-17v-58H783z"  stroke="#FFD581" stroke-linecap="square"/><g stroke="#FFF" stroke-linejoin="round" stroke-linecap="round"><path d="M799 212l12-5c3-2 7-2 10 0l6 2c3 2 7 2 11 1l8-4c4-1 8-1 11 1l7 2c3 2 7 2 11 1l7-4h12l7 4h11l8-4c3-1 7-1 10 1l7 2c3 2 7 2 11 1l7-4h11l8 4h11l9-4h11l8 4h11l8-4c4-1 8-1 11 1l12 5M799 232l12-5c3-2 7-2 10 0l6 2c3 2 7 2 11 1l8-4c4-1 8-1 11 1l7 2c3 2 7 2 11 1l7-4h12l7 4h11l8-4c3-1 7-1 10 1l7 2c3 2 7 2 11 1l7-4h11l8 4h11l9-4h11l8 4h11l8-4c4-1 8-1 11 1l12 5M799 252l12-5c3-2 7-2 10 0l6 2c3 2 7 2 11 1l8-4c4-1 8-1 11 1l7 2c3 2 7 2 11 1l7-4h12l7 4h11l8-4c3-1 7-1 10 1l7 2c3 2 7 2 11 1l7-4h11l8 4h11l9-4h11l8 4h11l8-4c4-1 8-1 11 1l12 5" /></g></g><g fill="none" stroke-width="2" stroke-miterlimit="3"><path d="M1357 143v75h-244l17-17v-58h227z"  stroke="#04DED4" stroke-linecap="square"/><g stroke="#FFF" stroke-linejoin="round" stroke-linecap="round"><path d="M1338 162l-13-6h-12l-7 4h-11l-8-4c-3-1-7-1-10 1l-7 2c-3 2-7 2-11 1l-7-4h-11l-8 4h-11l-9-4h-11l-8 4h-11l-8-4c-4-1-8-1-11 1l-12 5M1338 182l-13-6h-12l-7 4h-11l-8-4c-3-1-7-1-10 1l-7 2c-3 2-7 2-11 1l-7-4h-11l-8 4h-11l-9-4h-11l-8 4h-11l-8-4c-4-1-8-1-11 1l-12 5M1338 202l-13-6h-12l-7 4h-11l-8-4c-3-1-7-1-10 1l-7 2c-3 2-7 2-11 1l-7-4h-11l-8 4h-11l-9-4h-11l-8 4h-11l-8-4c-4-1-8-1-11 1l-12 5" /></g></g><g><g fill="#e00873"><path d="M1216 62h4l1 1v3l-1 2h-4l-1-2v-3l1-1zM1216 85h4l1 2v3l-1 2h-4l-1-2v-3l1-2z"/></g><path d="M1140 38h156c4 0 7 3 7 7v61c0 4-3 7-7 7h-156c-4 0-7-3-7-7V45c0-4 3-7 7-7z" fill="none" stroke="#e00873" stroke-width="2" stroke-linecap="square" stroke-miterlimit="2"/><path d="M1253 56v5h-13l-4 13q-3 1-5 4h-1l6-22h17zm1 28v1h-5v-1q0-4-3-7t-7-3h-1l1-1v-2-1h1v-1q6 0 10 5 4 4 4 10zm-6 3h5q-1 5-5 9-4 3-10 3-4 0-7-2-4-2-5-5l4-4q0 3 3 5l6 1 6-2 3-5zm33-18h5q0 5-5 11l-14 19-3-2 11-16h-1l-4 1q-5 0-8-4t-3-9q0-6 4-10t9-4q5 0 9 3 4 4 5 8h-5l-3-4-5-2q-4 0-7 2-3 3-3 7 0 3 3 6l6 2q4 0 6-2 3-3 3-6zm-121-14v5q-3 0-5 2l-2 6h-5q1-6 4-9 3-4 8-4zm14 13q0 4-3 8l-17 22h-6l18-23q3-4 3-7t-2-5q-2-3-5-3v-5q5 0 9 4 3 3 3 9zm0 25v5h-17l3-5h14zm31-27h-5q0-3-2-5t-5-2q-3 0-5 2t-2 5h-5q0-6 4-8 3-3 8-3t8 3q4 3 4 8zm0 19h-5q0-4-2-5l-6-2v-4q7 0 8-5h5q-1 4-5 7 5 2 5 9zm-5 2h5q0 6-4 9-3 3-9 3-5 0-8-3-4-3-4-8h5q0 3 2 5l6 2q3 0 5-3 2-2 2-5z" fill-rule="evenodd" fill="#21D5FA"/><path d="M1162 34h12l2 1v2l-2 1h-12l-1-1v-2l1-1zM1260 34h13l1 1v2l-1 1h-13l-1-1v-2l1-1z" fill="#e00873"/></g><g><path d="M1608 31h124c1 0 2 1 2 3v154l-2 2h-124l-2-2V34c0-2 1-3 2-3z" fill="none" stroke="#e00873" stroke-linecap="square" stroke-miterlimit="2"/><path  stroke="#E00873" stroke-linecap="square" stroke-miterlimit="3" d="M1606 40h128M1606 47h128"/><path d="M1617 35a2 2 0 1 1 4 0 2 2 0 0 1-4 0zm-7 0a2 2 0 1 1 5 0 2 2 0 0 1-5 0zm13 0a2 2 0 1 1 5 0 2 2 0 0 1-5 0z" fill-rule="evenodd" fill="#E00873"/><path fill="none"  stroke="#E00873" stroke-linecap="square" stroke-miterlimit="2" d="M1641 66h9v9h-9z"/><path d="M1641 82h51-51zm0 13h51-51zm0 25h51-51zm0-7h51-51zm0-6h51-51zm16-32h35-35zm-16 26h51-51zm16-32h35-35zm-16 19h51-51zm0 38h51-51zm0 51h51-51zm0-6h51-51zm0-6h51-51zm0-7h51-51zm0-6h51-51zm0-6h51-51zm0-6h51-51z" fill="none"  stroke="#E00873" stroke-linejoin="round" stroke-linecap="round" stroke-miterlimit="3"/><g><path d="M1498 78h123l2 2v154c0 2-1 3-2 3h-123c-2 0-3-1-3-3V80c0-1 1-2 3-2z" fill="none" stroke="#04ded4" stroke-linecap="square" stroke-miterlimit="2"/><path d="M1495 86h128-128zm0 7h128-128z" fill="none"  stroke="#04DED4" stroke-linecap="square" stroke-miterlimit="3"/><path d="M1506 82a2 2 0 1 1 5 0 2 2 0 0 1-5 0zm-7 0a2 2 0 1 1 5 0 2 2 0 0 1-5 0zm14 0a2 2 0 1 1 4 0 2 2 0 0 1-4 0z" fill-rule="evenodd" fill="#04DED4"/><path d="M1530 128h51-51zm0 13h51-51zm0 25h51-51zm0-6h51-51zm0-6h51-51zm16-32h35-35zm-16 25h51-51zm16-32h35-35zm-16 20h51-51zm0 38h51-51zm0 51h51-51zm0-6h51-51zm0-7h51-51zm0-6h51-51zm0-6h51-51zm0-7h51-51zm0-6h51-51zM1535 124v-11 11zm5-5h-11 11z" fill="none"  stroke="#04DED4" stroke-linejoin="round" stroke-linecap="round" stroke-miterlimit="3"/></g><g><path d="M1717 111h128-128zm0 6h128-128z" fill="none"  stroke="#FFD581" stroke-linecap="square" stroke-miterlimit="3"/><path d="M1719 104h123c2 0 3 1 3 3v154c0 1-1 3-3 3h-123l-2-3V107c0-2 1-3 2-3z" fill="none" stroke="#ffd581" stroke-linecap="square" stroke-miterlimit="2"/><path d="M1728 106a2 2 0 1 1 4 0 2 2 0 0 1-4 0zm-7 0a2 2 0 1 1 4 0 2 2 0 0 1-4 0zm13 0a2 2 0 1 1 5 0 2 2 0 0 1-5 0z" fill-rule="evenodd" fill="#FFD581"/><path d="M1752 153h51-51zm0 12h51-51zm0 26h51-51zm0-7h51-51zm0-6h51-51zm15-32h36-36zm-15 26h51-51zm15-32h36-36zm-15 19h51-51zm0 38h51-51zm0 51h51-51zm0-6h51-51zm0-6h51-51zm0-7h51-51zm0-6h51-51zm0-6h51-51zm0-7h51-51zM1756 148v-11 11zm6-5h-11 11z" fill="none"  stroke="#FFD581" stroke-linejoin="round" stroke-linecap="round" stroke-miterlimit="3"/></g></g><g><path d="M1064 37q5 0 43 29-11 75-15 80c-5 5-27 18-34 17s-29-15-32-19q-2-4-9-82 41-26 47-25z" fill="none"  stroke-width="2" stroke="#E00873" stroke-linecap="square" stroke-miterlimit="3"/><path d="M1062 76c-6 0-11 6-11 12v5h-3c-2 0-3 2-3 3v24c0 2 1 3 3 3h28c2 0 3-1 3-3V96c0-1-1-3-3-3h-3v-5c0-6-5-12-11-12zm0 2c5 0 9 5 9 10v5h-18v-5c0-5 4-10 9-10zm-14 17h28l1 1v24l-1 1h-28l-1-1V96l1-1zm14 8c-2 0-3 2-3 3l1 3v2c0 2 1 2 2 2s2 0 2-2v-2l1-3c0-1-1-3-3-3z" fill="#21D5FA"/></g><g stroke-width="2" stroke="#04DED4" stroke-miterlimit="3"><path d="M1129 248h296V39h104" fill="none"  stroke-linecap="square"/><g stroke-linecap="round"><path  d="M1529 33v12"/><path d="M1523 33l6 6-6 6" fill="none"  stroke-linejoin="round"/></g><g stroke-linecap="round"><path  d="M1127 242v12"/><path d="M1133 242l-6 6 6 6" fill="none"  stroke-linejoin="round"/></g></g><g stroke-width="2" stroke="#E00873" stroke-linecap="round" stroke-miterlimit="3"><path d="M212 33h120v172h395v70" fill="none" /><path  d="M210 27v12"/><path d="M216 27l-6 6 6 6" fill="none"  stroke-linejoin="round"/><g><path  d="M721 277h12"/><path d="M721 271l6 6 6-6" fill="none"  stroke-linejoin="round"/></g></g></svg>
