<?xml version="1.0" encoding="UTF-8" standalone="no"?><!-- Generator: Gravit.io --><svg xmlns="http://www.w3.org/2000/svg" xmlns:xlink="http://www.w3.org/1999/xlink" style="isolation:isolate" viewBox="344 7.692 30 22.581" width="30pt" height="22.581pt"><path d=" M 367.722 30.273 L 345.197 30.273 C 344.428 30.273 343.859 29.559 344.031 28.81 L 348.457 9.49 C 348.691 8.439 349.372 7.692 350.449 7.692 L 372.846 7.692 C 373.587 7.692 374.136 8.38 373.97 9.103 L 369.444 28.9 C 369.261 29.703 368.546 30.273 367.722 30.273 Z  M 351.618 27.253 L 361.977 19.813 C 362.606 19.358 362.74 18.386 362.169 17.833 L 355.324 10.564 C 354.196 9.366 352.271 11.179 353.399 12.377 L 359.208 18.546 L 350.075 25.105 C 348.616 26.154 350.158 28.301 351.618 27.253 Z  M 364.283 24.68 L 358.784 24.68 C 357.2 24.68 357.2 27.072 358.784 27.072 L 364.283 27.072 C 365.843 27.072 365.843 24.68 364.283 24.68 Z " fill="rgb(195,219,15)"/></svg>