<?xml version="1.0" standalone="no"?><!-- Generator: Gravit.io --><svg xmlns="http://www.w3.org/2000/svg" xmlns:xlink="http://www.w3.org/1999/xlink" style="isolation:isolate" viewBox="98.289 1.982 25.47 30" width="25.47" height="30"><g><path d=" M 98.289 1.982 L 123.76 1.982 L 120.764 28.384 L 111.026 31.982 L 100.688 28.384 L 98.289 1.982 Z " fill="rgb(4,195,200)"/><path d=" M 110.998 4.668 L 121.48 4.668 L 119.021 26.343 L 111.026 29.297 L 110.998 29.287 L 110.998 4.668 Z " fill="rgb(35,245,215)"/><path d=" M 103.298 11.126 L 103.169 7.81 L 119.245 7.863 L 118.792 11.183 L 111.335 14.153 L 118.49 14.231 L 117.464 23.616 L 111.022 26.155 L 104.342 23.442 L 104.342 19.267 L 107.258 19.289 L 107.264 20.833 L 111.022 22.711 L 114.257 21.667 L 114.674 17.284 L 103.671 17.567 L 103.527 14.051 L 111.022 11.126 L 103.298 11.126 Z " fill="rgb(255,255,255)"/></g></svg>