<?xml version="1.0" standalone="no"?><!-- Generator: Gravit.io --><svg xmlns="http://www.w3.org/2000/svg" xmlns:xlink="http://www.w3.org/1999/xlink" style="isolation:isolate" viewBox="650 10 30 28.416" width="30px" height="28.416px"><path d=" M 664.338 32.082 L 664.338 32.082 L 664.338 32.082 L 664.338 32.082 L 664.338 32.082 L 664.338 32.082 L 664.338 32.082 L 664.338 32.082 L 664.338 32.082 C 665.845 29.826 666.727 27.118 666.727 24.208 C 666.727 16.374 660.352 10 652.516 10 L 652.516 10 L 652.516 10 L 652.516 10 L 650 10 L 650 16.238 L 652.516 16.238 C 656.912 16.238 660.488 19.813 660.488 24.208 C 660.488 25.404 660.221 26.539 659.747 27.558 L 659.747 27.558 C 658.479 30.284 655.715 32.179 652.516 32.179 L 650 32.179 L 650 38.416 L 652.516 38.416 C 657.441 38.416 661.788 35.898 664.338 32.082 Z  M 679.981 30.262 C 679.7 34.781 675.936 38.37 671.348 38.37 L 661.142 38.37 Q 666.997 32.396 667.14 32.132 L 671.348 32.132 C 672.68 32.132 673.763 31.05 673.763 29.718 C 673.763 28.387 672.68 27.304 671.348 27.304 L 668.858 27.304 C 669.048 26.301 669.152 25.266 669.152 24.208 C 669.152 23.134 669.046 22.085 668.849 21.065 L 670.396 21.065 L 670.397 21.066 L 671.348 21.066 C 672.68 21.066 673.763 19.983 673.763 18.652 C 673.763 17.32 672.68 16.238 671.348 16.238 L 667.112 16.238 C 665.708 13.674 663.647 11.52 661.158 10 L 671.348 10 L 671.348 10 L 671.348 10 L 671.348 10 C 676.119 10 680 13.882 680 18.652 C 680 20.755 679.245 22.684 677.992 24.185 C 679.245 25.686 680 27.615 680 29.718 C 680 29.901 679.993 30.083 679.981 30.262 L 679.981 30.262 Z  M 664.338 32.082" fill-rule="evenodd" fill="rgb(242,110,88)"/></svg>