<?xml version="1.0" standalone="no"?><!-- Generator: Gravit.io --><svg xmlns="http://www.w3.org/2000/svg" xmlns:xlink="http://www.w3.org/1999/xlink" style="isolation:isolate" viewBox="3.861 0 25 26.81" width="25" height="26.81"><g><ellipse vector-effect="non-scaling-stroke" cx="16.361480723525453" cy="5.999999999999985" rx="12.500000000000043" ry="5.999999999999985" fill="rgb(23,204,195)"/><path d=" M 28.853 7.28 C 28.858 7.363 28.861 7.446 28.861 7.53 C 28.861 8.099 28.861 10.241 28.861 10.81 C 28.861 14.122 23.26 16.81 16.361 16.81 C 9.463 16.81 3.861 14.122 3.861 10.81 C 3.861 10.241 3.861 8.099 3.861 7.53 C 3.861 7.446 3.865 7.363 3.87 7.28 C 4.145 10.476 9.637 13.03 16.361 13.03 C 23.086 13.03 28.578 10.476 28.853 7.28 Z " fill="rgb(23,204,195)"/><path d=" M 28.853 12.28 C 28.858 12.363 28.861 12.446 28.861 12.53 C 28.861 13.099 28.861 15.241 28.861 15.81 C 28.861 19.122 23.26 21.81 16.361 21.81 C 9.463 21.81 3.861 19.122 3.861 15.81 C 3.861 15.241 3.861 13.099 3.861 12.53 C 3.861 12.446 3.865 12.363 3.87 12.28 C 4.145 15.476 9.637 18.03 16.361 18.03 C 23.086 18.03 28.578 15.476 28.853 12.28 Z " fill="rgb(23,204,195)"/><path d=" M 28.853 17.28 C 28.858 17.363 28.861 17.446 28.861 17.53 C 28.861 18.099 28.861 20.241 28.861 20.81 C 28.861 24.122 23.26 26.81 16.361 26.81 C 9.463 26.81 3.861 24.122 3.861 20.81 C 3.861 20.241 3.861 18.099 3.861 17.53 C 3.861 17.446 3.865 17.363 3.87 17.28 C 4.145 20.476 9.637 23.03 16.361 23.03 C 23.086 23.03 28.578 20.476 28.853 17.28 Z " fill="rgb(23,204,195)"/></g></svg>