<?xml version="1.0" standalone="no"?><!-- Generator: Gravit.io --><svg xmlns="http://www.w3.org/2000/svg" xmlns:xlink="http://www.w3.org/1999/xlink" style="isolation:isolate" viewBox="520 10 35 23.961" width="35" height="23.961"><path d=" M 555 19.443 C 554.189 23.352 548.981 22.865 548.981 22.865 C 547.032 31.259 535.266 35.53 527.097 33.432 C 518.929 31.334 520.052 21.591 520.052 21.591 L 543.96 21.591 C 545.933 21.591 546.083 20.991 546.083 20.991 C 544.334 16.844 547.032 14.621 547.032 14.621 C 549.131 14.996 549.655 18.593 549.655 18.593 C 551.378 18.284 554.287 18.238 555 19.443 Z  M 522.6 17.794 L 525.948 17.794 L 525.948 20.842 L 522.6 20.842 L 522.6 17.794 L 522.6 17.794 L 522.6 17.794 L 522.6 17.794 L 522.6 17.794 L 522.6 17.794 L 522.6 17.794 L 522.6 17.794 L 522.6 17.794 Z  M 526.807 17.794 L 530.155 17.794 L 530.155 20.842 L 526.807 20.842 L 526.807 17.794 L 526.807 17.794 L 526.807 17.794 L 526.807 17.794 L 526.807 17.794 L 526.807 17.794 L 526.807 17.794 L 526.807 17.794 L 526.807 17.794 Z  M 539.427 17.794 L 542.775 17.794 L 542.775 20.842 L 539.427 20.842 L 539.427 17.794 L 539.427 17.794 L 539.427 17.794 L 539.427 17.794 L 539.427 17.794 L 539.427 17.794 L 539.427 17.794 L 539.427 17.794 Z  M 535.221 17.794 L 538.569 17.794 L 538.569 20.842 L 535.221 20.842 L 535.221 17.794 L 535.221 17.794 L 535.221 17.794 L 535.221 17.794 L 535.221 17.794 L 535.221 17.794 L 535.221 17.794 Z  M 535.221 10 L 538.569 10 L 538.569 13.048 L 535.221 13.048 L 535.221 10 L 535.221 10 L 535.221 10 L 535.221 10 L 535.221 10 L 535.221 10 Z  M 531.014 17.794 L 534.362 17.794 L 534.362 20.842 L 531.014 20.842 L 531.014 17.794 L 531.014 17.794 L 531.014 17.794 L 531.014 17.794 L 531.014 17.794 Z  M 526.807 13.897 L 530.155 13.897 L 530.155 16.944 L 526.807 16.944 L 526.807 13.897 L 526.807 13.897 L 526.807 13.897 L 526.807 13.897 Z  M 535.221 13.897 L 538.569 13.897 L 538.569 16.944 L 535.221 16.944 L 535.221 13.897 L 535.221 13.897 L 535.221 13.897 Z  M 531.014 13.897 L 534.362 13.897 L 534.362 16.944 L 531.014 16.944 L 531.014 13.897 L 531.014 13.897 Z " fill-rule="evenodd" fill="rgb(9,109,232)"/></svg>