<?xml version="1.0" standalone="no"?><!-- Generator: Gravit.io --><svg xmlns="http://www.w3.org/2000/svg" xmlns:xlink="http://www.w3.org/1999/xlink" style="isolation:isolate" viewBox="421 1 35 35" width="35" height="35"><g><path d="M 421.698 16.814 L 436.814 1.698 C 437.744 0.767 439.256 0.767 440.186 1.698 L 455.302 16.814 C 456.233 17.744 456.233 19.256 455.302 20.186 L 440.186 35.302 C 439.256 36.233 437.744 36.233 436.814 35.302 L 421.698 20.186 C 420.767 19.256 420.767 17.744 421.698 16.814 Z" style="stroke:none;fill:#FF1773;stroke-miterlimit:10;"/><path d=" M 432.533 9.749 C 430.995 9.749 429.749 10.995 429.749 12.533 C 429.75 13.608 430.369 14.585 431.34 15.046 L 431.34 21.954 C 430.369 22.415 429.75 23.392 429.749 24.467 C 429.75 25.541 430.368 26.519 431.338 26.979 L 431.338 29.826 L 433.727 32.214 L 433.727 26.979 C 434.697 26.519 435.316 25.541 435.318 24.467 C 435.316 24.149 435.261 23.834 435.153 23.535 L 443.534 15.153 C 443.834 15.261 444.149 15.316 444.467 15.318 C 446.005 15.318 447.251 14.071 447.251 12.533 C 447.251 11.795 446.958 11.087 446.436 10.564 C 445.913 10.042 445.205 9.749 444.467 9.749 C 443.728 9.749 443.02 10.042 442.498 10.564 C 441.976 11.087 441.682 11.795 441.682 12.533 C 441.683 12.851 441.738 13.166 441.845 13.466 L 433.727 21.586 L 433.727 15.046 C 434.697 14.585 435.316 13.608 435.318 12.533 C 435.318 11.795 435.024 11.087 434.502 10.564 C 433.98 10.042 433.272 9.749 432.533 9.749 L 432.533 9.749 Z " fill="rgb(242,242,242)"/></g></svg>