<?xml version="1.0" standalone="no"?><!-- Generator: Gravit.io --><svg xmlns="http://www.w3.org/2000/svg" xmlns:xlink="http://www.w3.org/1999/xlink" style="isolation:isolate" viewBox="0 0 30 21.733" width="30" height="21.733"><path d=" M 7.527 5.643 C 6.846 5.643 6.293 6.241 6.293 6.979 C 6.293 7.717 6.846 8.315 7.527 8.315 C 8.209 8.315 8.761 7.717 8.761 6.979 C 8.761 6.241 8.209 5.643 7.527 5.643 Z  M 8.087 7.628 C 7.925 7.628 7.794 7.474 7.794 7.284 C 7.794 7.095 7.925 6.941 8.087 6.941 C 8.249 6.941 8.38 7.095 8.38 7.284 C 8.38 7.474 8.249 7.628 8.087 7.628 Z  M 17.839 5.313 C 17.171 5.313 16.63 5.911 16.63 6.649 C 16.63 7.387 17.171 7.985 17.839 7.985 C 18.506 7.985 19.047 7.387 19.047 6.649 C 19.047 5.911 18.506 5.313 17.839 5.313 Z  M 18.398 7.298 C 18.244 7.298 18.119 7.144 18.119 6.954 C 18.119 6.765 18.244 6.611 18.398 6.611 C 18.553 6.611 18.678 6.765 18.678 6.954 C 18.678 7.144 18.553 7.298 18.398 7.298 Z  M 27.58 2.048 C 26.69 1.806 25.723 1.985 24.794 2.608 C 23.967 1.908 23.013 1.374 21.945 0.967 C 20.049 0.267 17.842 0 14.853 0 C 11.66 0.254 9.287 0.751 7.328 1.705 C 6.539 2.086 5.84 2.544 5.229 3.079 C 4.288 2.493 3.308 2.353 2.405 2.633 C 1.566 2.888 0.84 3.486 0.408 4.262 C -0.025 5.037 -0.126 5.928 0.166 6.691 C 0.459 7.454 1.133 8.052 2.138 8.421 C 1.82 9.706 1.655 11.067 1.629 12.568 C 1.537 15.944 2.098 20.501 2.148 21.733 L 28.838 21.733 C 28.845 20.604 29.077 16.372 28.56 11.691 C 28.42 10.342 28.203 9.095 27.898 7.925 C 28.929 7.531 29.603 6.882 29.87 6.042 C 30.124 5.266 29.997 4.389 29.564 3.613 C 29.119 2.85 28.407 2.277 27.58 2.048 L 27.58 2.048 Z  M 5.403 7.73 C 5.136 6.381 5.428 5.211 6.191 4.32 C 6.878 3.519 7.921 3.01 9.054 2.857 C 10.186 2.717 11.331 2.946 12.196 3.532 C 13.163 4.18 13.748 5.211 13.824 6.534 C 14.104 11.279 6.599 12.411 5.403 7.73 Z  M 14.399 14.463 C 14.387 14.692 14.374 14.781 14.361 14.908 C 14.336 15.379 14.338 15.548 14.376 15.904 C 13.758 16.559 13.285 16.624 13.028 16.187 C 12.723 15.652 12.653 14.916 12.74 14.269 L 14.398 13.745 C 14.398 13.745 14.425 14.17 14.399 14.463 Z  M 16.556 15.376 C 16.556 15.617 16.543 15.834 16.505 16.037 C 16.416 16.19 16.185 16.479 15.756 16.48 C 15.327 16.48 15.147 16.231 15.007 15.913 C 14.969 15.57 15.009 14.519 15.035 14.29 C 15.06 13.998 15.063 13.84 15.063 13.675 C 15.063 13.675 16.406 14.011 16.49 14.123 C 16.574 14.234 16.556 15.172 16.556 15.376 L 16.556 15.376 Z  M 17.783 13.516 C 17.541 13.783 17.3 13.872 17.007 13.859 C 16.778 13.846 16.625 13.783 16.117 13.579 C 15.608 13.363 15.328 13.287 14.997 13.274 C 14.679 13.236 14.333 13.317 13.661 13.554 C 12.662 13.906 12.211 13.872 11.906 13.312 C 11.482 12.547 12.049 11.533 12.891 11.314 C 12.848 11.232 12.818 11.15 12.807 11.042 C 12.772 10.233 13.412 9.6 14.439 9.44 C 15.387 9.292 16.523 9.609 16.762 10.488 C 16.838 10.774 16.779 11.042 16.594 11.274 C 17.092 11.517 17.526 11.833 17.796 12.167 C 18.177 12.625 18.19 13.083 17.783 13.516 L 17.783 13.516 Z  M 23.411 8.71 C 22.762 9.499 21.77 10.033 20.663 10.224 C 18.233 10.631 16.032 9.371 15.613 6.904 L 15.613 6.891 C 15.307 1.891 22.94 0.556 24.072 5.428 C 24.377 6.7 24.123 7.832 23.411 8.71 L 23.411 8.71 Z  M 16.438 10.575 C 16.497 10.797 16.432 10.99 16.24 11.164 C 15.729 11.631 14.455 11.806 13.67 11.518 C 13.45 11.437 13.181 11.284 13.142 11.013 C 13.124 10.516 13.468 9.931 14.491 9.771 C 15.568 9.604 16.297 10.06 16.438 10.575 Z " fill="rgb(18,160,183)"/></svg>
