<svg xmlns="http://www.w3.org/2000/svg" style="isolation:isolate" width="30" height="21.7"><path d="M7.5 5.6c-.7 0-1.2.6-1.2 1.4 0 .7.5 1.3 1.2 1.3S8.8 7.7 8.8 7c0-.8-.6-1.4-1.3-1.4zm.6 2c-.2 0-.3-.1-.3-.3 0-.2.1-.4.3-.4.1 0 .3.2.3.4s-.2.3-.3.3zm9.7-2.3c-.6 0-1.2.6-1.2 1.3 0 .8.6 1.4 1.2 1.4.7 0 1.2-.6 1.2-1.4 0-.7-.5-1.3-1.2-1.3zm.6 2c-.2 0-.3-.2-.3-.3 0-.2.1-.4.3-.4.2 0 .3.2.3.4 0 .1-.1.3-.3.3zM27.6 2c-1-.2-1.9 0-2.8.6A9.7 9.7 0 0 0 21.9 1a20.2 20.2 0 0 0-14.6.7c-.8.4-1.5.8-2 1.4-1-.6-2-.7-2.9-.5-.8.3-1.6.9-2 1.7C0 5 0 5.9.2 6.7c.3.8 1 1.4 2 1.7-.4 1.3-.5 2.7-.6 4.2 0 3.3.5 7.9.5 9.1h26.7c0-1.1.3-5.3-.2-10l-.7-3.8c1-.4 1.7-1 2-1.9a3 3 0 0 0-.3-2.4 3.4 3.4 0 0 0-2-1.6zM5.4 7.7c-.3-1.3 0-2.5.8-3.4C6.9 3.5 7.9 3 9 3c1-.2 2.2 0 3.1.6 1 .7 1.5 1.7 1.6 3 .3 4.8-7.2 6-8.4 1.2zm9 6.8v1.4c-.6.7-1.1.7-1.4.3-.3-.5-.3-1.3-.3-2l1.7-.5v.8zm2.2.9l-.1.6c0 .2-.3.5-.7.5-.5 0-.7-.3-.8-.6a13.3 13.3 0 0 1 0-2.2l1.5.4v1.3zm1.2-1.9a1 1 0 0 1-.8.4l-.9-.3a3 3 0 0 0-1.1-.3c-.3 0-.7 0-1.3.3-1 .3-1.5.3-1.8-.3-.4-.8.1-1.8 1-2V11c-.1-.8.5-1.4 1.5-1.6 1-.1 2.1.2 2.4 1 0 .4 0 .6-.2.9.5.2 1 .5 1.2.9.4.4.4.9 0 1.3zm5.6-4.8c-.6.8-1.6 1.3-2.7 1.5-2.5.4-4.7-.8-5-3.3-.4-5 7.2-6.3 8.4-1.5.3 1.3 0 2.4-.7 3.3zm-7 1.9c.1.2 0 .4-.2.6-.5.4-1.7.6-2.5.3-.3 0-.5-.2-.6-.5 0-.5.4-1 1.4-1.2 1-.2 1.8.3 2 .8z" fill="#12A0B7"/></svg>