<?xml version="1.0" standalone="no"?><!-- Generator: Gravit.io --><svg xmlns="http://www.w3.org/2000/svg" xmlns:xlink="http://www.w3.org/1999/xlink" style="isolation:isolate" viewBox="66.139 1.982 25.47 30" width="25.47" height="30"><g><path d=" M 66.139 1.982 L 91.609 1.982 L 88.614 28.384 L 78.875 31.982 L 68.537 28.384 L 66.139 1.982 Z " fill="rgb(224,8,115)"/><path d=" M 78.847 4.668 L 89.329 4.668 L 86.87 26.343 L 78.875 29.297 L 78.847 29.287 L 78.847 4.668 Z " fill="rgb(255,28,118)"/><path d=" M 86.562 11.196 L 86.797 8.059 L 70.951 8.026 L 71.741 17.783 L 83.19 17.862 L 82.879 21.757 L 79.269 22.881 L 75.191 21.861 L 74.927 19.371 L 71.898 19.273 L 72.33 24.407 L 78.877 25.939 L 85.583 23.824 L 86.219 14.865 L 74.397 14.918 L 74.329 11.196 L 86.562 11.196 Z " fill="rgb(255,255,255)"/></g></svg>