<?xml version="1.0" standalone="no"?><!-- Generator: Gravit.io --><svg xmlns="http://www.w3.org/2000/svg" xmlns:xlink="http://www.w3.org/1999/xlink" style="isolation:isolate" viewBox="130.44 1.982 25.47 30" width="25.47" height="30"><g><path d=" M 130.44 1.982 L 155.91 1.982 L 152.915 28.384 L 143.176 31.982 L 132.838 28.384 L 130.44 1.982 Z " fill="rgb(224,8,115)"/><path d=" M 143.148 4.668 L 153.63 4.668 L 151.171 26.343 L 143.176 29.297 L 143.148 29.287 L 143.148 4.668 Z " fill="rgb(255,28,118)"/><path d=" M 139.297 8.496 L 141.736 8.496 L 141.736 25.427 L 134.418 23.323 L 134.466 20.549 L 139.297 21.697 L 139.297 8.496 Z  M 151.53 11.084 L 151.813 8.374 L 143.966 8.545 L 143.898 19.663 L 148.864 18.704 L 148.653 21.313 L 143.888 22.595 L 143.797 25.432 L 150.547 23.586 L 151.368 15.412 L 146.372 16.09 L 146.44 11.418 L 151.53 11.084 Z " fill-rule="evenodd" fill="rgb(255,255,255)"/></g></svg>