<?xml version="1.0" standalone="no"?><!-- Generator: Gravit.io --><svg xmlns="http://www.w3.org/2000/svg" xmlns:xlink="http://www.w3.org/1999/xlink" style="isolation:isolate" viewBox="166.25 1.982 24.843 30" width="24.843" height="30"><g><path d=" M 188.69 22.859 C 189.336 23.136 189.604 23.675 189.724 24.297 C 189.853 24.961 190.051 25.582 190.553 26.068 C 190.62 26.132 190.668 26.218 190.72 26.298 C 191.338 27.237 191.197 27.9 190.23 28.46 C 189.797 28.712 189.339 28.921 188.892 29.146 C 188.218 29.484 187.627 29.917 187.127 30.494 C 186.491 31.224 185.714 31.75 184.735 31.933 C 183.564 32.152 182.535 31.64 182.035 30.546 C 181.928 30.312 181.807 30.241 181.555 30.228 C 180.934 30.191 180.313 30.128 179.697 30.037 C 178.612 29.877 177.57 30.144 176.513 30.299 C 176.095 30.36 175.804 30.498 175.527 30.854 C 174.981 31.555 174.155 31.735 173.323 31.625 C 172.648 31.535 171.955 31.365 171.343 31.076 C 170.451 30.658 169.528 30.465 168.568 30.361 C 168.205 30.322 167.84 30.273 167.484 30.197 C 166.521 29.988 166.064 29.363 166.32 28.418 C 166.531 27.639 166.56 26.897 166.46 26.102 C 166.317 24.967 166.661 24.434 167.788 24.114 C 168.69 23.858 169.033 23.077 169.585 22.487 C 169.628 22.44 169.62 22.331 169.613 22.253 C 169.456 20.712 169.916 19.306 170.562 17.946 C 171.27 16.456 172.219 15.121 173.248 13.838 C 174.367 12.443 174.82 10.838 174.706 9.061 C 174.621 7.723 174.507 6.383 174.829 5.055 C 175.249 3.315 176.445 2.211 178.223 2.043 C 178.982 1.971 179.779 1.939 180.518 2.088 C 182.245 2.434 183.063 3.701 183.449 5.311 C 183.752 6.575 183.791 7.864 183.735 9.151 C 183.68 10.393 183.966 11.516 184.714 12.51 C 185.252 13.225 185.842 13.901 186.346 14.639 C 186.978 15.567 187.62 16.499 188.121 17.499 C 188.955 19.162 189.273 20.822 188.69 22.859 Z  M 175.001 26.615 C 175.436 27.347 175.933 27.939 176.757 28.222 C 178.594 28.855 180.267 28.472 181.853 27.482 C 182.03 27.373 182.213 27.15 182.249 26.955 C 182.417 26.012 182.536 25.059 182.671 24.107 C 182.797 23.214 182.979 22.353 183.894 21.888 C 183.973 21.847 184.012 21.702 184.043 21.599 C 184.211 21.05 184.481 20.786 185.034 20.872 C 186.138 21.044 187.234 21.29 187.611 22.636 C 187.837 22.261 187.723 21.939 187.487 21.698 C 187.219 21.423 186.907 21.159 186.564 20.997 C 186.128 20.794 185.973 20.595 186.013 20.056 C 186.15 18.214 185.292 16.749 184.062 15.463 C 184.036 15.436 183.988 15.428 183.95 15.412 C 185.2 16.891 186.027 18.464 185.443 20.466 C 184.787 20.417 184.778 20.419 184.719 20.132 C 184.473 18.937 183.986 17.837 183.45 16.749 C 183.005 15.84 182.61 14.902 182.239 13.961 C 181.914 13.137 181.653 12.283 181.371 11.465 C 181.063 11.668 180.774 11.883 180.463 12.061 C 180.069 12.286 179.652 12.467 179.258 12.692 C 178.261 13.258 177.451 13.182 176.579 12.432 C 176.34 12.225 176.075 12.049 175.767 11.819 C 175.618 13.397 175.087 14.758 174.493 16.101 C 174.224 16.708 173.951 17.312 173.67 17.912 C 173.138 19.049 172.853 20.248 172.743 21.584 C 172.264 20.891 172.131 20.207 172.178 19.479 C 172.238 18.538 172.579 17.686 173.014 16.864 C 173.179 16.551 173.325 16.231 173.481 15.912 C 173.451 15.898 173.42 15.885 173.39 15.871 C 172.701 16.959 172.078 18.082 171.828 19.363 C 171.502 21.031 172.056 22.129 173.507 22.99 C 174.418 23.529 175.25 24.189 175.74 25.17 C 176.135 25.955 175.88 26.443 175.001 26.615 Z  M 173.083 30.695 C 173.926 30.632 174.53 30.519 174.876 29.902 C 175.222 29.287 175.107 28.689 174.736 28.129 C 174.502 27.774 174.229 27.443 173.993 27.088 C 173.551 26.42 173.118 25.744 172.691 25.067 C 172.383 24.577 172.132 24.047 171.784 23.59 C 171.267 22.91 170.373 22.6 169.692 23.662 C 169.322 24.24 168.832 24.605 168.172 24.805 C 167.486 25.012 167.299 25.418 167.356 26.141 C 167.398 26.688 167.48 27.27 167.348 27.786 C 167.043 28.979 167.246 29.36 168.469 29.485 C 169.579 29.6 170.662 29.776 171.681 30.299 C 172.163 30.545 172.741 30.603 173.083 30.695 Z  M 184.361 22.941 C 184.198 23.148 183.991 23.324 183.902 23.548 C 183.761 23.896 183.646 24.275 183.616 24.646 C 183.52 25.802 183.408 26.949 183.016 28.05 C 182.936 28.275 182.89 28.511 182.847 28.745 C 182.713 29.464 182.784 30.134 183.396 30.632 C 183.999 31.126 184.69 31.142 185.349 30.823 C 185.833 30.591 186.323 30.286 186.684 29.895 C 187.324 29.202 188.068 28.7 188.909 28.307 C 189.232 28.157 189.551 27.987 189.845 27.787 C 190.184 27.557 190.25 27.285 190.07 26.914 C 189.951 26.672 189.804 26.43 189.622 26.23 C 189.304 25.88 189.139 25.472 189.041 25.023 C 188.979 24.744 188.914 24.46 188.797 24.203 C 188.519 23.582 187.716 23.445 187.169 23.844 C 186.821 24.098 186.416 24.303 186.007 24.44 C 185.487 24.616 185.029 24.411 184.76 23.934 C 184.599 23.65 184.511 23.326 184.361 22.941 Z  M 178.079 12.461 C 178.234 12.42 178.51 12.393 178.746 12.279 C 179.358 11.992 179.954 11.67 180.552 11.353 C 180.664 11.294 180.766 11.212 180.862 11.128 C 181.504 10.556 181.401 9.921 180.618 9.575 C 180.057 9.329 179.499 9.079 178.944 8.819 C 178.214 8.481 177.508 8.462 176.845 8.969 C 176.418 9.295 176.001 9.635 175.585 9.975 C 175.336 10.176 175.277 10.432 175.404 10.731 C 175.605 11.202 177.217 12.379 177.738 12.432 C 177.813 12.442 177.889 12.446 178.079 12.461 Z  M 180.236 9.092 C 180.384 9.156 180.5 9.196 180.602 9.256 C 180.939 9.457 181.166 9.322 181.228 8.988 C 181.319 8.49 181.441 7.97 181.376 7.48 C 181.269 6.662 180.657 6.105 180.018 6.072 C 179.25 6.035 178.611 6.67 178.472 7.603 C 178.365 8.32 178.384 8.347 179.083 8.511 C 179.158 8.212 179.187 7.89 179.326 7.626 C 179.416 7.454 179.669 7.263 179.843 7.269 C 180.017 7.273 180.252 7.48 180.341 7.658 C 180.575 8.124 180.496 8.604 180.236 9.092 Z  M 184.924 22.441 C 184.948 22.841 185.033 23.281 185.468 23.486 C 185.881 23.683 186.252 23.463 186.588 23.218 C 186.671 23.157 186.748 23.083 186.815 23.005 C 187.054 22.73 187.051 22.401 186.751 22.194 C 186.472 22.001 186.156 21.837 185.834 21.729 C 185.225 21.527 184.92 21.769 184.924 22.441 Z  M 176.83 8.629 C 177.03 8.471 177.341 8.346 177.359 8.186 C 177.427 7.592 177.273 7.026 176.812 6.598 C 176.409 6.225 175.928 6.282 175.579 6.719 C 175.018 7.418 175.109 8.766 175.775 9.422 C 175.888 9.338 176.004 9.252 176.129 9.158 C 175.799 8.795 175.733 8.379 175.831 7.959 C 175.873 7.781 176.073 7.643 176.201 7.486 C 176.346 7.609 176.54 7.707 176.622 7.863 C 176.731 8.071 176.753 8.323 176.83 8.629 Z " fill-rule="evenodd" fill="rgb(6,179,185)"/></g></svg>