<svg xmlns="http://www.w3.org/2000/svg" style="isolation:isolate" viewBox="166.3 2 24.8 30" width="24.8" height="30"><path d="M188.7 22.9c.6.2.9.8 1 1.4.2.7.4 1.3.9 1.8l.1.2c.6 1 .5 1.6-.5 2.2l-1.3.6c-.7.4-1.3.8-1.8 1.4-.6.7-1.4 1.3-2.4 1.4-1.1.3-2.2-.3-2.7-1.4 0-.2-.2-.3-.4-.3-.7 0-1.3 0-1.9-.2-1-.1-2.1.1-3.2.3-.4 0-.7.2-1 .6-.5.7-1.3.8-2.2.7-.7 0-1.3-.2-2-.5-.8-.4-1.8-.6-2.7-.7l-1.1-.2c-1-.2-1.4-.8-1.2-1.8.2-.8.3-1.5.2-2.3-.2-1.1.2-1.7 1.3-2 .9-.2 1.2-1 1.8-1.6v-.2a8 8 0 0 1 1-4.4c.7-1.4 1.6-2.8 2.6-4 1.2-1.5 1.6-3 1.5-4.8 0-1.4-.2-2.7.1-4a3.7 3.7 0 0 1 3.4-3 8 8 0 0 1 2.3 0c1.7.3 2.6 1.6 3 3.2.3 1.3.3 2.6.2 3.9a5 5 0 0 0 1 3.3l1.6 2.1c.7 1 1.3 1.9 1.8 2.9a7 7 0 0 1 .6 5.4zM175 26.6c.4.7 1 1.3 1.8 1.6 1.8.7 3.5.3 5-.7l.4-.5.5-2.9c.1-.9.3-1.7 1.2-2.2l.1-.3c.2-.6.5-.8 1-.7 1.1.1 2.2.4 2.6 1.7.2-.3.1-.7-.1-.9l-1-.7c-.4-.2-.5-.4-.5-1 .2-1.8-.7-3.3-2-4.5 1.2 1.4 2 3 1.4 5-.6 0-.6 0-.7-.4-.2-1.2-.7-2.3-1.3-3.4l-1.2-2.7-.8-2.5-1 .6-1.1.6c-1 .6-1.8.5-2.7-.3l-.8-.6c-.2 1.6-.7 3-1.3 4.3l-.8 1.8c-.6 1.1-.8 2.3-1 3.7-.4-.7-.6-1.4-.5-2.1 0-1 .4-1.8.8-2.6l.5-1h-.1c-.7 1-1.3 2.2-1.6 3.5-.3 1.6.3 2.7 1.7 3.6 1 .5 1.8 1.2 2.2 2.2.4.8.2 1.2-.7 1.4zm-2 4c1 0 1.5 0 1.9-.7.3-.6.2-1.2-.2-1.8l-.7-1-1.3-2-1-1.5c-.4-.7-1.3-1-2 0-.4.6-.9 1-1.5 1.2-.7.2-.9.6-.8 1.3v1.7c-.4 1.2-.2 1.6 1 1.7 1.2.1 2.3.3 3.3.8l1.4.4zm11.4-7.7l-.5.6-.3 1.1c0 1.2-.2 2.3-.6 3.4l-.2.7c0 .8 0 1.4.6 2 .6.4 1.3.4 2 .1.4-.2 1-.5 1.3-1a7 7 0 0 1 2.2-1.5l1-.5c.3-.2.3-.5.2-.9a3 3 0 0 0-.5-.7c-.3-.3-.5-.7-.6-1.2 0-.3 0-.5-.2-.8-.3-.6-1-.8-1.6-.4l-1.2.6c-.5.2-1 0-1.2-.5l-.4-1zM178 12.5l.6-.2 1.9-1s.2 0 .3-.2c.6-.5.5-1.2-.3-1.5l-1.7-.8c-.7-.3-1.4-.3-2 .2l-1.3 1c-.3.2-.3.4-.2.7.2.5 1.8 1.7 2.3 1.7h.4zm2.1-3.4l.4.2c.3.2.6 0 .6-.3l.2-1.5c-.1-.8-.7-1.4-1.4-1.4-.8 0-1.4.6-1.5 1.5-.1.7-.1.7.6 1 0-.4 0-.7.2-1l.5-.3c.2 0 .5.2.5.4.3.4.2.9 0 1.4zm4.7 13.3c0 .4.1.9.6 1 .4.3.8 0 1-.2.2 0 .2-.1.3-.2.3-.3.3-.6 0-.8l-1-.5c-.6-.2-.9 0-.9.7zm-8-13.8l.5-.4c0-.6-.1-1.2-.6-1.6-.4-.4-.9-.3-1.2.1-.6.7-.5 2 .2 2.7l.3-.2c-.3-.4-.4-.8-.3-1.2 0-.2.3-.4.4-.5l.4.4.2.7z" fill-rule="evenodd" fill="#06B3B9"/></svg>