<svg xmlns="http://www.w3.org/2000/svg" style="isolation:isolate" viewBox="315.2 11.4 55.8 64" width="55.8" height="64"><path d="M315.2 43.5V28.2c0-.6.3-1 .8-1.3l26.3-15.2c.5-.3 1-.4 1.5 0l26.5 15.2c.5.3.7.7.7 1.3v30.5c0 .6-.2 1-.7 1.3L347.6 73a111 111 0 0 1-3.7 2.1c-.5.3-1 .3-1.6 0l-19.8-11.4L316 60c-.4-.3-.7-.7-.7-1.3V43.5zm18.7-5.7v17.8c0 2-1.6 3.8-3.8 3.7-1.3 0-2.3-.6-3-1.7a3 3 0 0 1-.4-1.8V31.1c0-1.7 1-2.8 2.3-3.4 1.3-.5 2.6-.4 3.9 0 1.2.4 2.2 1.1 3 2 2.5 3.2 5.1 6.3 7.7 9.3l8 9.7.3.3v-.3V31c0-2 1.3-3.4 3.1-3.6a3.6 3.6 0 0 1 4.1 3.1v25.2c0 1.4-.7 2.5-1.8 3.1-1 .5-1.9.6-2.9.5a6.5 6.5 0 0 1-3.9-1.6l-1.5-1.8-8.7-10.4L334 38l-.1-.2z" fill-rule="evenodd" fill="#16C816"/></svg>