<svg xmlns="http://www.w3.org/2000/svg" style="isolation:isolate" viewBox="471.69 1 30.31 35" width="30.31" height="35"><path d="M494.07 16.4s-.29-2.5-2.95-2.5c-2.67 0-4.5.35-4.5 1.82 0 1.48 5.2 1.48 7.16 2.06 1.97.58 3.7 2.09 2.84 4.75-.87 2.67-3.53 2.96-7.65 2.96a4.78 4.78 0 0 1-5.04-4.75h2.32s-.29 2.08 2.43 2.43c2.73.35 5.33.54 5.68-1.57.46-2.78-8.8-1.39-9.62-4.1-.68-2.3-.29-5.34 4.35-5.8 4.63-.46 7.18 1.58 7.18 4.63l-2.2.06zM471.7 27.24l5.12 2.96a3.86 3.86 0 0 0 5.8-3.35V12.14h-2.1v14.14a2.1 2.1 0 0 1-3.16 1.83l-3.57-2.06v-15.1l13.06-7.54 13.07 7.54v15.1l-13.07 7.54-3.76-2.17-2.46.99 6.22 3.59L502 27.25V9.75L486.84 1 471.7 9.75v17.5z" fill-rule="evenodd" fill="#2ABB1A"/></svg>