<svg xmlns="http://www.w3.org/2000/svg" style="isolation:isolate" viewBox="561.14 5.93 44.72 33.93" width="44.72" height="33.93"><g fill="none" stroke-width="3.24" stroke-linecap="square" stroke-miterlimit="3"><path d="M592.1 35h-24.65c-1.3 0-1.82-.9-1.17-2.03l6.16-10.67 6.16-10.67c.65-1.12 1.7-1.12 2.34 0l6.16 10.67 6.16 10.67c.65 1.12.13 2.03-1.17 2.03z" stroke="#00C68F"/><path d="M599.55 35h-19.79c-1.28 0-1.8-.9-1.16-2.03l4.94-8.55 4.95-8.56c.65-1.12 1.7-1.12 2.34 0l4.95 8.55 4.94 8.56c.65 1.12.13 2.03-1.17 2.03z" stroke="#078876"/><path d="M592.09 34.94l-6.19.03-6.18.03c-1.28 0-1.8-.88-1.15-1.99l3.12-5.34 4.29-7.34 4.21 7.3 3.06 5.3c.63 1.1.12 2-1.16 2z" stroke="#2B485E"/></g></svg>