<svg xmlns="http://www.w3.org/2000/svg" style="isolation:isolate" viewBox="652 1196.9 80 81.4" width="80" height="81.4"><path d="M711.2 1225.9c-.2-5.9 0-11.8 0-17.6 0-1-.1-2-.4-3-1.3-4.2-4.5-6.5-8.7-7.4a50.9 50.9 0 0 0-24.5 1.3c-2.1.6-3.7 2-4.3 4.3-1 3.8-.5 7.6-.6 11.6h17.8c1 0 1.6 0 1.7 1.3 0 1.4-.7 1.4-1.7 1.4h-13c-4.5 0-9 0-13.7.2-2.6 0-4.8 1.2-6.7 3a15 15 0 0 0-4 8 36 36 0 0 0 1.4 21.6c1.3 3.4 3.7 6 7.4 6.3 2.6.4 5.3.1 8.2.1v-7.5c0-8.1 5.3-13.4 13.4-13.4 5.8 0 11.7-.2 17.5 0a10 10 0 0 0 10.2-10.2zm-30.1-15.6a3.6 3.6 0 0 1-3.7-3.7c0-2.2 1.8-4 3.8-3.9 2 .2 3.6 1.9 3.5 4a3.6 3.6 0 0 1-3.6 3.6z" fill="#17CCC3"/><path d="M731.4 1231.7c-.7-3.1-1.6-6.2-2.9-9.2-1.4-3-4-4.7-7.5-4.6h-5c-2 0-2 0-2 2-.1 3.1.1 6.2-.5 9.1-1.1 6-6.3 9.9-12.5 10h-19.2c-4.3 0-8.6 3.8-8.8 8-.2 7-.1 13.8-.1 20.7a7 7 0 0 0 3.2 5.9 28.1 28.1 0 0 0 20.4 4.3c3.3-.7 6.5-1.7 9.6-3a8.2 8.2 0 0 0 5-8.6v-4.7c0-1.3-.3-1.7-1.6-1.7h-16c-1.3 0-1.7-.3-1.7-1.5 0-1.3.6-1.4 1.6-1.4H721l2-.2c3.4-.7 5-3.3 6.2-6.1 2.7-6 3.5-12.4 2.2-19zm-28.6 32.7a4 4 0 0 1 3.8 3.9 4 4 0 0 1-3.6 4c-2 0-4-1.9-4-4a4 4 0 0 1 3.8-3.9z" fill="#E01666"/></svg>