<svg xmlns="http://www.w3.org/2000/svg" style="isolation:isolate" width="19" height="25"><path d="M9.6 6.6C8.2 6.6 7 7.6 7 8.3s1 1.5 2.7 1.5c1.7 0 2.8-.6 2.8-1.4 0-.9-1.5-1.8-2.8-1.8zm-4.2.6c-2 0-3.4 1.3-3.4 3.6.1 1 5.1-3.4 4.3-3.5l-.9-.1zm8.2 0l-.9.1c-.8.1 4.2 4.5 4.3 3.5 0-2.2-1.5-3.5-3.4-3.5zm-1 2.8c-.5 0-1 .1-1.3.4-1.2.8-1.5 2.6-.5 4.1 1 1.5 2.9 2 4 1.2 1.3-.8 1.5-2.7.5-4.2-.6-1-1.7-1.5-2.7-1.5zm-6.2.1c-1 .1-1.9.7-2.5 1.6-1 1.5-.8 3.4.5 4.2 1.2.8 3 .2 4-1.2 1-1.5.9-3.4-.4-4.2-.5-.3-1-.4-1.6-.4zm10.9 1.6c-1.3 0-.4 5.6.7 5.2 1.2-1 1.6-3.8-.6-5.1h-.1zm-15.6.1C-.7 13.2-.4 16 1 17c1 .5 2-5.2.8-5.2zm8 3.8c-1.7 0-3 1.3-3 2.9 0 1.6 1.3 2.8 3 2.8s3-1.3 3-2.8c0-1.6-1.3-2.8-3-2.9zm6.8 1.2c-.8 0-1.6.7-2.4 1.6-1 1-1.5 3-.8 3.7.7.5 2.4.4 3.7-1.4 1-1.2.6-3.2.1-3.7a1 1 0 0 0-.6-.2zm-14 .4c-.1 0-.3 0-.5.2-.5.4-.6 1.8.2 3.3C3.4 22.4 5 22.5 5.7 22c.8-.5.4-2.4-.5-3.4-.8-1-1.8-1.6-2.6-1.5zm6.7 5c-1.2 0-2.5.5-2.5 1 0 .6 1.4 1.9 3 1.8 1.4 0 2.9-1.2 2.9-1.9 0-.6-1.7-1-2.9-1h-.5z" fill="#BE0940"/><path d="M4.9 0c0 .2.3.3 0 .5C4.8.3 4.6.1 4 0c.1.2.3.3.2.5L3 .2c.1.3.3.4.1.5C3 .6 2.4.4 2 .5l.3.4H1c.2.3.4.5.5 1H1c.2.4.6.5.8.7h-.5c.1.3.5.6.7.8 0 0-.1.1-.4 0 .2.4.5.6.9.8l-.5.1c.3.4.7.5 1.1.7-.2.2-.4.1-.5.1.3.3.7.4 1.2.5-.1.2-.2.2-.4.2.5.3 1.2.2 1.4.4l-.3.3c.7 0 2.8 0 3.2-1.6C7 4 5.5 3 3.1 1.9c1.9.5 3.6 1.4 5 2.5 1.7-.7.5-2.7-.3-3.5l-.1.4-.9-.9V1L6 .2c.1.3 0 .4-.1.5-.3-.3-.5-.5-1-.7zM14 0l-1 .6s-.1-.2 0-.4c-.3.1-.6.3-.8.6-.2 0 0-.3 0-.4l-1 .8V1c-.9.7-2 2.7-.3 3.5 1.5-1.2 3.2-2 5.1-2.6a16.4 16.4 0 0 0-4.7 3c.5 1.6 2.5 1.7 3.3 1.7l-.3-.3c.2-.1.9 0 1.3-.3-.2 0-.2 0-.3-.2.4-.1 1-.2 1.2-.5H16l1.1-.8h-.5l1-.9H17c.2-.3.6-.5.7-.9h-.5c0-.2.5-.3.7-.8h-.5c0-.4.3-.6.4-.9h-1.2l.3-.3c-.5-.1-1 0-1.3.1-.1-.1 0-.3.2-.4-.4 0-.7 0-1 .2-.2-.2 0-.3.2-.5l-1.2.5c-.2-.2 0-.3.1-.5z" fill="#75AB24"/></svg>