<?xml version="1.0" standalone="no"?><!-- Generator: Gravit.io --><svg xmlns="http://www.w3.org/2000/svg" xmlns:xlink="http://www.w3.org/1999/xlink" style="isolation:isolate" viewBox="0 0 18.983 25" width="18.983" height="25"><g><path d=" M 9.634 6.62 C 8.245 6.62 6.855 7.688 6.855 8.276 C 6.855 9.023 7.979 9.837 9.634 9.837 C 11.344 9.837 12.414 9.25 12.414 8.447 C 12.414 7.54 10.862 6.62 9.634 6.62 Z  M 5.419 7.183 C 3.466 7.196 1.952 8.547 2.046 10.79 C 2.098 11.804 7.132 7.421 6.278 7.261 C 5.994 7.208 5.706 7.182 5.418 7.183 L 5.419 7.183 Z  M 13.6 7.261 C 13.313 7.255 13.025 7.276 12.742 7.323 C 11.887 7.43 16.905 11.798 16.958 10.836 C 17.004 8.641 15.542 7.311 13.6 7.261 L 13.6 7.261 Z  M 12.617 9.993 C 12.149 9.993 11.689 10.122 11.29 10.368 C 10.06 11.17 9.846 13.026 10.806 14.522 C 11.821 16.016 13.651 16.563 14.881 15.708 C 16.109 14.906 16.312 13.034 15.35 11.539 C 14.688 10.547 13.634 9.987 12.617 9.993 Z  M 6.387 10.118 C 5.458 10.198 4.521 10.76 3.92 11.695 C 2.905 13.19 3.122 15.062 4.404 15.864 C 5.633 16.666 7.449 16.135 8.464 14.693 C 9.479 13.198 9.262 11.326 7.98 10.524 C 7.511 10.211 6.949 10.068 6.387 10.118 Z  M 17.254 11.742 C 16.046 11.752 16.933 17.343 18.02 16.879 C 19.195 15.917 19.622 13.092 17.379 11.757 C 17.339 11.747 17.297 11.742 17.254 11.742 L 17.254 11.742 Z  M 1.75 11.836 C 1.708 11.835 1.666 11.84 1.625 11.851 C -0.62 13.134 -0.245 16.026 0.985 16.988 C 2.072 17.455 2.958 11.845 1.75 11.835 L 1.75 11.836 Z  M 9.697 15.646 C 7.987 15.646 6.653 16.937 6.653 18.487 L 6.653 18.534 C 6.653 20.084 7.987 21.313 9.697 21.313 C 11.405 21.313 12.742 20.037 12.742 18.487 C 12.742 16.939 11.353 15.7 9.697 15.645 L 9.697 15.646 Z  M 16.459 16.754 C 15.74 16.766 14.872 17.457 14.069 18.378 C 13.107 19.446 12.578 21.468 13.273 22.11 C 13.968 22.589 15.725 22.535 17.005 20.72 C 17.913 19.491 17.594 17.523 17.114 16.988 C 16.913 16.828 16.698 16.75 16.458 16.754 L 16.459 16.754 Z  M 2.577 17.176 C 2.392 17.196 2.206 17.264 2.046 17.363 C 1.512 17.793 1.416 19.231 2.218 20.673 C 3.393 22.383 5.036 22.537 5.731 22.11 C 6.479 21.575 6.056 19.705 5.2 18.69 C 4.375 17.736 3.382 17.096 2.577 17.176 Z  M 9.213 22.172 C 8.042 22.248 6.652 22.721 6.652 23.281 C 6.652 23.761 8.14 25.051 9.635 24.998 C 11.077 25.053 12.57 23.765 12.57 23.125 C 12.518 22.535 10.925 22.12 9.697 22.172 C 9.536 22.163 9.375 22.163 9.214 22.172 L 9.213 22.172 Z " fill="rgb(190,9,64)"/><path d=" M 4.872 0 C 4.976 0.152 5.189 0.299 4.982 0.5 C 4.724 0.299 4.462 0.148 3.842 0.047 C 3.998 0.197 4.246 0.347 4.092 0.5 C 3.781 0.4 3.428 0.301 3.014 0.25 C 3.221 0.451 3.372 0.601 3.217 0.703 C 2.907 0.553 2.402 0.447 1.937 0.547 L 2.234 0.859 C 2.284 0.909 1.511 0.905 1.047 0.905 C 1.201 1.157 1.412 1.409 1.515 1.811 C 1.465 1.862 1.207 1.811 1 1.811 C 1.207 2.315 1.621 2.408 1.828 2.561 C 1.672 2.661 1.473 2.612 1.265 2.561 C 1.42 2.912 1.771 3.168 2.03 3.42 C 1.978 3.47 1.873 3.533 1.562 3.482 C 1.82 3.784 2.138 4.03 2.499 4.232 C 2.396 4.331 2.191 4.325 1.984 4.325 C 2.292 4.678 2.71 4.842 3.124 5.044 C 2.917 5.193 2.749 5.137 2.593 5.137 C 2.852 5.389 3.331 5.487 3.795 5.637 C 3.692 5.787 3.627 5.789 3.42 5.839 C 3.885 6.091 4.607 5.998 4.763 6.199 C 4.763 6.349 4.621 6.445 4.466 6.496 C 5.241 6.496 7.302 6.451 7.714 4.887 C 6.94 4.033 5.487 3.019 3.061 1.811 C 4.972 2.416 6.674 3.277 8.12 4.434 C 9.824 3.679 8.633 1.711 7.808 0.905 C 7.757 1.107 7.72 1.214 7.668 1.265 C 7.41 0.962 7.201 0.658 6.84 0.406 C 6.84 0.558 6.938 0.709 6.731 0.859 C 6.524 0.607 6.26 0.404 5.95 0.203 C 6.104 0.455 6.007 0.554 5.903 0.656 C 5.645 0.405 5.39 0.201 4.872 0 Z  M 14.038 0 C 13.57 0.152 13.314 0.406 13.054 0.609 C 12.951 0.508 12.852 0.41 13.007 0.156 C 12.705 0.318 12.439 0.542 12.227 0.812 C 12.02 0.711 12.118 0.511 12.118 0.359 C 11.754 0.664 11.549 0.914 11.29 1.218 C 11.237 1.218 11.185 1.062 11.134 0.858 C 10.302 1.62 9.167 3.593 10.931 4.403 C 12.385 3.238 14.099 2.438 16.021 1.78 C 13.58 2.996 12.118 4.011 11.337 4.872 C 11.753 6.443 13.837 6.531 14.616 6.48 C 14.459 6.379 14.356 6.335 14.304 6.183 C 14.512 6.082 15.18 6.187 15.647 5.933 C 15.439 5.882 15.391 5.882 15.287 5.731 C 15.703 5.578 16.214 5.469 16.474 5.215 C 16.32 5.215 16.166 5.274 15.958 5.121 C 16.322 4.921 16.788 4.708 17.099 4.403 C 16.892 4.353 16.636 4.36 16.583 4.31 C 16.916 4.08 17.229 3.825 17.52 3.545 C 17.26 3.595 17.104 3.549 17.052 3.498 C 17.311 3.193 17.676 2.994 17.833 2.639 C 17.625 2.74 17.411 2.74 17.254 2.639 C 17.358 2.436 17.782 2.334 17.988 1.827 C 17.782 1.827 17.526 1.878 17.473 1.827 C 17.578 1.421 17.786 1.159 17.942 0.905 C 17.473 0.905 16.745 0.909 16.692 0.859 L 17.005 0.562 C 16.536 0.461 16.074 0.601 15.709 0.703 C 15.553 0.551 15.705 0.402 15.912 0.25 C 15.54 0.297 15.174 0.381 14.819 0.5 C 14.663 0.347 14.928 0.199 15.084 0.047 C 14.461 0.199 14.204 0.347 13.944 0.5 C 13.737 0.297 13.933 0.152 14.038 0 Z " fill="rgb(117,171,36)"/></g></svg>