<?xml version="1.0" standalone="no"?><!-- Generator: Gravit.io --><svg xmlns="http://www.w3.org/2000/svg" xmlns:xlink="http://www.w3.org/1999/xlink" style="isolation:isolate" viewBox="194.113 1.982 29.999 30" width="29.999" height="30"><path d=" M 223.908 16.614 L 222.648 15.835 C 222.638 15.712 222.626 15.59 222.613 15.468 L 223.695 14.458 C 223.805 14.356 223.854 14.204 223.824 14.057 C 223.796 13.909 223.692 13.788 223.551 13.735 L 222.168 13.218 C 222.133 13.098 222.097 12.979 222.059 12.861 L 222.922 11.662 C 223.01 11.54 223.029 11.382 222.971 11.243 C 222.914 11.104 222.789 11.005 222.64 10.981 L 221.182 10.743 C 221.125 10.633 221.066 10.524 221.006 10.416 L 221.619 9.07 C 221.682 8.933 221.669 8.774 221.585 8.649 C 221.502 8.524 221.361 8.451 221.21 8.457 L 219.729 8.509 C 219.653 8.413 219.575 8.318 219.495 8.225 L 219.836 6.783 C 219.87 6.636 219.827 6.483 219.72 6.376 C 219.614 6.27 219.461 6.226 219.314 6.261 L 217.872 6.601 C 217.779 6.522 217.684 6.443 217.588 6.367 L 217.64 4.886 C 217.645 4.736 217.572 4.594 217.447 4.511 C 217.322 4.427 217.164 4.414 217.027 4.477 L 215.681 5.09 C 215.573 5.03 215.464 4.971 215.354 4.914 L 215.116 3.455 C 215.092 3.307 214.993 3.182 214.854 3.124 C 214.716 3.067 214.557 3.085 214.435 3.173 L 213.235 4.036 C 213.117 3.999 212.999 3.962 212.879 3.928 L 212.361 2.544 C 212.309 2.403 212.187 2.3 212.04 2.27 C 211.893 2.242 211.741 2.291 211.639 2.4 L 210.629 3.483 C 210.507 3.47 210.385 3.457 210.262 3.447 L 209.483 2.188 C 209.404 2.06 209.264 1.982 209.114 1.982 C 208.964 1.982 208.824 2.06 208.746 2.188 L 207.966 3.447 C 207.843 3.457 207.721 3.47 207.599 3.483 L 206.589 2.4 C 206.487 2.291 206.335 2.242 206.188 2.27 C 206.04 2.3 205.919 2.403 205.866 2.544 L 205.349 3.928 C 205.229 3.962 205.11 3.999 204.992 4.036 L 203.793 3.173 C 203.671 3.085 203.512 3.066 203.373 3.124 C 203.235 3.182 203.136 3.307 203.111 3.455 L 202.874 4.914 C 202.763 4.971 202.655 5.03 202.546 5.09 L 201.201 4.477 C 201.064 4.414 200.904 4.427 200.78 4.511 C 200.655 4.594 200.582 4.736 200.588 4.886 L 200.639 6.367 C 200.544 6.443 200.449 6.522 200.355 6.601 L 198.913 6.261 C 198.766 6.227 198.613 6.27 198.507 6.376 C 198.4 6.483 198.357 6.636 198.391 6.783 L 198.731 8.225 C 198.652 8.318 198.574 8.413 198.498 8.509 L 197.017 8.457 C 196.868 8.453 196.725 8.524 196.641 8.649 C 196.558 8.774 196.545 8.933 196.607 9.07 L 197.221 10.416 C 197.161 10.524 197.102 10.633 197.045 10.743 L 195.586 10.981 C 195.438 11.005 195.313 11.104 195.255 11.243 C 195.198 11.382 195.217 11.54 195.304 11.662 L 196.167 12.861 C 196.13 12.979 196.093 13.098 196.059 13.218 L 194.675 13.735 C 194.534 13.788 194.431 13.909 194.402 14.057 C 194.373 14.204 194.422 14.356 194.531 14.458 L 195.614 15.468 C 195.6 15.59 195.588 15.712 195.578 15.835 L 194.319 16.614 C 194.191 16.693 194.113 16.832 194.113 16.983 C 194.113 17.133 194.191 17.273 194.319 17.351 L 195.578 18.131 C 195.588 18.254 195.6 18.376 195.614 18.498 L 194.531 19.508 C 194.422 19.61 194.373 19.762 194.402 19.909 C 194.431 20.056 194.534 20.178 194.675 20.23 L 196.059 20.748 C 196.093 20.868 196.13 20.987 196.167 21.105 L 195.304 22.304 C 195.216 22.426 195.198 22.585 195.255 22.723 C 195.313 22.862 195.438 22.961 195.586 22.985 L 197.045 23.222 C 197.102 23.333 197.161 23.442 197.221 23.55 L 196.607 24.896 C 196.545 25.032 196.558 25.191 196.641 25.316 C 196.725 25.442 196.868 25.515 197.017 25.509 L 198.497 25.457 C 198.574 25.553 198.652 25.647 198.731 25.741 L 198.391 27.184 C 198.357 27.33 198.4 27.483 198.507 27.589 C 198.613 27.696 198.766 27.739 198.913 27.704 L 200.355 27.365 C 200.449 27.444 200.544 27.522 200.639 27.598 L 200.588 29.079 C 200.582 29.229 200.655 29.371 200.78 29.455 C 200.904 29.538 201.064 29.551 201.201 29.488 L 202.546 28.875 C 202.654 28.935 202.763 28.994 202.874 29.051 L 203.111 30.509 C 203.136 30.658 203.235 30.783 203.373 30.84 C 203.512 30.898 203.671 30.879 203.793 30.792 L 204.991 29.928 C 205.11 29.966 205.229 30.002 205.349 30.037 L 205.866 31.42 C 205.918 31.56 206.04 31.665 206.188 31.693 C 206.335 31.723 206.486 31.674 206.589 31.564 L 207.599 30.481 C 207.72 30.495 207.843 30.507 207.966 30.518 L 208.745 31.777 C 208.824 31.904 208.963 31.982 209.114 31.982 C 209.264 31.982 209.403 31.904 209.482 31.777 L 210.262 30.518 C 210.385 30.507 210.507 30.495 210.629 30.481 L 211.638 31.564 C 211.741 31.674 211.893 31.723 212.04 31.693 C 212.187 31.664 212.309 31.56 212.361 31.42 L 212.879 30.037 C 212.998 30.002 213.117 29.966 213.236 29.928 L 214.435 30.792 C 214.556 30.879 214.715 30.898 214.854 30.84 C 214.992 30.783 215.092 30.657 215.116 30.509 L 215.354 29.051 C 215.464 28.994 215.573 28.934 215.681 28.875 L 217.027 29.488 C 217.163 29.551 217.322 29.538 217.447 29.455 C 217.572 29.371 217.645 29.229 217.639 29.079 L 217.588 27.598 C 217.684 27.521 217.778 27.444 217.872 27.365 L 219.314 27.704 C 219.46 27.739 219.614 27.696 219.72 27.589 C 219.826 27.483 219.87 27.33 219.835 27.184 L 219.496 25.741 C 219.575 25.647 219.653 25.553 219.729 25.457 L 221.21 25.509 C 221.359 25.515 221.502 25.442 221.585 25.316 C 221.669 25.191 221.682 25.032 221.619 24.896 L 221.006 23.55 C 221.066 23.442 221.124 23.333 221.181 23.222 L 222.64 22.985 C 222.789 22.961 222.914 22.862 222.971 22.723 C 223.028 22.585 223.01 22.426 222.922 22.304 L 222.059 21.105 C 222.096 20.987 222.133 20.868 222.167 20.748 L 223.551 20.23 C 223.692 20.178 223.796 20.056 223.824 19.909 C 223.854 19.762 223.805 19.61 223.695 19.508 L 222.612 18.498 C 222.626 18.376 222.638 18.253 222.648 18.131 L 223.908 17.351 C 224.035 17.273 224.113 17.133 224.113 16.983 C 224.113 16.833 224.035 16.693 223.908 16.614 Z  M 215.479 27.062 C 214.998 26.958 214.692 26.484 214.795 26.002 C 214.898 25.52 215.372 25.213 215.852 25.317 C 216.333 25.42 216.64 25.895 216.536 26.377 C 216.433 26.858 215.959 27.165 215.479 27.062 Z  M 215.051 24.168 C 214.612 24.074 214.18 24.353 214.086 24.793 L 213.639 26.879 C 212.259 27.506 210.727 27.854 209.113 27.854 C 207.462 27.854 205.897 27.488 204.492 26.835 L 204.046 24.749 C 203.952 24.31 203.52 24.03 203.081 24.124 L 201.239 24.52 C 200.897 24.168 200.579 23.793 200.287 23.397 L 209.25 23.397 C 209.352 23.397 209.419 23.379 209.419 23.286 L 209.419 20.116 C 209.419 20.024 209.352 20.005 209.25 20.005 L 206.629 20.005 L 206.629 17.995 L 209.464 17.995 C 209.723 17.995 210.848 18.069 211.207 19.507 C 211.32 19.95 211.567 21.388 211.737 21.849 C 211.905 22.365 212.591 23.397 213.323 23.397 L 217.789 23.397 C 217.84 23.397 217.894 23.391 217.951 23.381 C 217.641 23.802 217.301 24.201 216.935 24.573 L 215.051 24.168 Z  M 202.653 27.019 C 202.172 27.122 201.699 26.816 201.595 26.334 C 201.493 25.851 201.798 25.377 202.279 25.274 C 202.76 25.171 203.234 25.477 203.337 25.959 C 203.44 26.441 203.134 26.915 202.653 27.019 Z  M 199.253 13.23 C 199.453 13.681 199.25 14.208 198.8 14.408 C 198.35 14.607 197.824 14.404 197.625 13.954 C 197.425 13.503 197.628 12.976 198.078 12.776 C 198.528 12.577 199.054 12.78 199.253 13.23 Z  M 198.208 15.708 L 200.127 14.855 C 200.537 14.673 200.722 14.193 200.54 13.782 L 200.145 12.888 L 201.699 12.888 L 201.699 19.895 L 198.563 19.895 C 198.291 18.938 198.145 17.929 198.145 16.886 C 198.145 16.488 198.167 16.094 198.208 15.708 Z  M 206.629 15.027 L 206.629 12.962 L 210.331 12.962 C 210.522 12.962 211.681 13.183 211.681 14.05 C 211.681 14.769 210.792 15.027 210.061 15.027 L 206.629 15.027 L 206.629 15.027 Z  M 220.081 16.886 C 220.081 17.16 220.071 17.431 220.051 17.7 L 218.926 17.7 C 218.813 17.7 218.768 17.774 218.768 17.885 L 218.768 18.401 C 218.768 19.618 218.082 19.882 217.481 19.95 C 216.908 20.014 216.274 19.71 216.196 19.36 C 215.858 17.461 215.295 17.055 214.407 16.354 C 215.509 15.654 216.657 14.621 216.657 13.238 C 216.657 11.745 215.633 10.805 214.936 10.344 C 213.957 9.699 212.873 9.569 212.581 9.569 L 200.943 9.569 C 202.521 7.808 204.66 6.56 207.079 6.106 L 208.451 7.546 C 208.761 7.87 209.274 7.882 209.599 7.572 L 211.134 6.104 C 214.35 6.703 217.073 8.705 218.642 11.451 L 217.592 13.825 C 217.41 14.235 217.595 14.716 218.005 14.898 L 220.028 15.796 C 220.063 16.155 220.081 16.518 220.081 16.886 Z  M 208.451 4.882 C 208.807 4.542 209.371 4.555 209.711 4.911 C 210.05 5.268 210.037 5.832 209.681 6.173 C 209.326 6.513 208.762 6.5 208.422 6.143 C 208.082 5.787 208.095 5.223 208.451 4.882 Z  M 218.879 13.274 C 219.078 12.823 219.604 12.62 220.054 12.82 C 220.504 13.02 220.707 13.547 220.507 13.997 C 220.308 14.448 219.782 14.651 219.332 14.451 C 218.882 14.252 218.68 13.725 218.879 13.274 Z " fill="rgb(219,22,101)"/></svg>