<svg xmlns="http://www.w3.org/2000/svg" style="isolation:isolate" viewBox="194.1 2 30 30" width="30" height="30"><path d="M224 16.6l-1.4-.8v-.3l1-1c.2-.1.3-.3.2-.4l-.2-.4-1.4-.5-.1-.3.8-1.2a.4.4 0 0 0-.3-.7l-1.4-.3-.2-.3.6-1.3v-.5l-.4-.1h-1.5a9 9 0 0 0-.2-.3l.3-1.4a.4.4 0 0 0-.5-.5l-1.4.3-.3-.2V4.9a.4.4 0 0 0-.6-.4l-1.3.6-.3-.2-.3-1.4a.4.4 0 0 0-.7-.3l-1.2.8h-.3l-.5-1.5a.4.4 0 0 0-.8-.1l-1 1h-.3l-.8-1.2a.4.4 0 0 0-.8 0l-.7 1.2h-.4l-1-1a.4.4 0 0 0-.7.1l-.6 1.4-.3.1-1.2-.8a.4.4 0 0 0-.7.3l-.2 1.4-.4.2-1.3-.6h-.4l-.2.4v1.5l-.2.2-1.5-.3a.4.4 0 0 0-.5.5l.3 1.4-.2.3H197l-.4.1v.5l.6 1.3-.2.3-1.4.3a.4.4 0 0 0-.3.7l.9 1.2-.1.3-1.4.5a.4.4 0 0 0-.2.8l1.1 1v.3l-1.3.8a.4.4 0 0 0 0 .8l1.3.7v.4l-1 1a.4.4 0 0 0 0 .7l1.5.5v.4l-.8 1.2a.4.4 0 0 0 .3.7l1.4.2.2.4-.6 1.3a.4.4 0 0 0 .4.6h1.5l.2.2-.3 1.5.1.4.4.1 1.5-.3.2.2v1.5a.4.4 0 0 0 .6.4l1.3-.6c.2 0 .3 0 .4.2l.2 1.4a.4.4 0 0 0 .7.3l1.2-.9.3.1.6 1.4c0 .2.1.3.3.3l.4-.1 1-1.1h.4l.7 1.3a.4.4 0 0 0 .8 0l.8-1.3h.3l1 1a.4.4 0 0 0 .8 0l.5-1.5h.3l1.2.8a.4.4 0 0 0 .7-.3l.3-1.4.3-.2 1.3.6a.4.4 0 0 0 .6-.4v-1.5l.3-.2 1.4.3.4-.1c.1-.1.2-.3.1-.4l-.3-1.5.2-.2h1.5c.2 0 .3 0 .4-.2V25l-.6-1.3.2-.4 1.4-.2a.4.4 0 0 0 .3-.7l-.8-1.2v-.4l1.5-.5s.2-.1.2-.3l-.1-.4-1-1v-.4l1.2-.7a.4.4 0 0 0 0-.8zm-8.5 10.5a.9.9 0 0 1 .4-1.8.9.9 0 0 1-.4 1.8zm-.4-3c-.5 0-1 .3-1 .7l-.5 2a11 11 0 0 1-9.1 0l-.5-2c0-.5-.5-.8-1-.7l-1.8.4-1-1.1h9l.2-.1V20l-.2-.1h-2.6v-2h2.9c.2 0 1.3 0 1.7 1.5l.5 2.3c.2.6.9 1.6 1.6 1.6h4.7l-1 1.2-2-.4zm-12.4 3a.9.9 0 1 1-.4-1.8.9.9 0 0 1 .4 1.7zm-3.4-13.9a.9.9 0 1 1-1.7.8.9.9 0 0 1 1.7-.8zm-1 2.5l1.8-.8c.4-.2.6-.7.4-1.1l-.4-1h1.6v7h-3.1a11 11 0 0 1-.4-4zm8.3-.7v-2h3.7c.2 0 1.4.2 1.4 1s-1 1-1.6 1h-3.5zm13.5 1.9v.8h-1.2l-.1.2v.5c0 1.2-.7 1.5-1.3 1.6-.6 0-1.2-.3-1.3-.6-.3-2-1-2.3-1.8-3 1.1-.7 2.3-1.8 2.3-3.2 0-1.5-1-2.4-1.8-2.9-1-.6-2-.7-2.3-.7h-11.7a11 11 0 0 1 6.2-3.5l1.4 1.4c.3.4.8.4 1.1 0l1.5-1.4c3.3.6 6 2.6 7.5 5.4l-1 2.3c-.2.4 0 1 .4 1.1l2 .9v1zm-11.6-12a.9.9 0 1 1 1.2 1.3.9.9 0 0 1-1.2-1.3zm10.4 8.4a.9.9 0 1 1 1.6.7.9.9 0 1 1-1.6-.7z" fill="#DB1665"/></svg>