<?xml version="1.0" standalone="no"?><!-- Generator: Gravit.io --><svg xmlns="http://www.w3.org/2000/svg" xmlns:xlink="http://www.w3.org/1999/xlink" style="isolation:isolate" viewBox="264 423.3 210 210" width="210" height="210"><linearGradient id="_lgradient_0" x1="0.5" y1="0" x2="0.49694363211180287" y2="0.9161150997465914" gradientTransform="matrix(210,0,0,210,264,423.3)" gradientUnits="userSpaceOnUse"><stop offset="0%" stop-opacity="1" style="stop-color:rgb(246,19,94)"/><stop offset="23.916355945333546%" stop-opacity="1" style="stop-color:rgb(161,18,88)"/><stop offset="100%" stop-opacity="1" style="stop-color:rgb(40,1,35)"/></linearGradient><path d=" M 369 423.3 C 359.652 446.217 353.975 461.228 343.57 483.465 C 349.949 490.228 357.791 498.076 370.513 506.972 C 356.836 501.345 347.514 495.711 340.545 489.847 C 327.226 517.639 306.345 557.214 264 633.3 C 297.272 614.092 323.069 602.24 347.108 597.718 C 346.077 593.285 345.529 588.468 345.569 583.464 L 345.595 582.414 C 346.123 561.093 357.217 544.696 370.358 545.809 C 383.497 546.921 393.728 565.116 393.199 586.441 C 393.098 590.457 392.632 594.316 391.841 597.899 C 415.62 602.551 441.171 614.348 474 633.3 C 467.526 621.383 461.728 610.643 456.209 600.409 C 447.517 593.672 438.454 584.908 419.961 575.416 C 432.673 578.72 441.781 582.539 448.875 586.798 C 392.773 482.34 388.238 468.45 369 423.3 L 369 423.3 L 369 423.3 Z " fill="url(#_lgradient_0)"/></svg>