<?xml version="1.0" standalone="no"?><!-- Generator: Gravit.io --><svg xmlns="http://www.w3.org/2000/svg" xmlns:xlink="http://www.w3.org/1999/xlink" style="isolation:isolate" viewBox="0 0 207.112 236.7" width="207.112px" height="236.7px"><g><path d=" M 192.688 48.357 L 117.98 3.976 C 113.542 1.341 108.549 0 103.556 0 C 98.563 0 93.616 1.341 89.132 3.976 L 14.423 48.357 C 5.501 53.627 0 63.428 0 74.015 L 0 162.731 C 0 173.318 5.501 183.119 14.423 188.389 L 89.132 232.724 C 93.57 235.359 98.563 236.7 103.556 236.7 C 108.549 236.7 113.495 235.359 117.98 232.724 L 192.688 188.389 C 201.611 183.073 207.112 173.318 207.112 162.731 L 207.112 74.015 C 207.112 63.428 201.611 53.627 192.688 48.357 Z  M 91.767 228.194 L 17.059 183.859 C 9.754 179.513 5.224 171.423 5.224 162.731 L 5.224 74.015 C 5.224 65.324 9.754 57.233 17.059 52.888 L 91.767 8.553 C 95.373 6.426 99.441 5.317 103.556 5.317 C 107.67 5.317 111.785 6.426 115.345 8.553 L 190.053 52.888 C 196.202 56.54 200.362 62.873 201.518 69.993 C 199.022 64.723 193.474 63.243 186.956 67.08 L 116.269 110.768 C 107.439 115.9 100.967 121.725 100.967 132.312 L 100.967 219.41 C 100.967 225.79 103.51 229.904 107.485 231.106 C 106.191 231.337 104.896 231.476 103.556 231.476 C 99.441 231.43 95.327 230.32 91.767 228.194 Z " fill="rgb(42,29,74)"/><defs><filter id="tFNPurdTlUTah2ralfi9rW1zzuCpaBgX" x="-200%" y="-200%" width="400%" height="400%" filterUnits="objectBoundingBox" color-interpolation-filters="sRGB"><feGaussianBlur xmlns="http://www.w3.org/2000/svg" in="SourceGraphic" stdDeviation="2.146804531419514"/><feOffset xmlns="http://www.w3.org/2000/svg" dx="0" dy="0" result="pf_100_offsetBlur"/><feFlood xmlns="http://www.w3.org/2000/svg" flood-color="#FF3888" flood-opacity="1"/><feComposite xmlns="http://www.w3.org/2000/svg" in2="pf_100_offsetBlur" operator="in" result="pf_100_dropShadow"/><feBlend xmlns="http://www.w3.org/2000/svg" in="SourceGraphic" in2="pf_100_dropShadow" mode="normal"/></filter></defs><g filter="url(#tFNPurdTlUTah2ralfi9rW1zzuCpaBgX)"><path d=" M 173.133 171.284 L 154.502 182.425 C 153.993 182.703 153.623 183.026 153.623 183.627 L 153.623 188.482 C 153.623 189.083 154.039 189.314 154.502 189.036 L 173.41 177.571 C 173.919 177.294 173.965 176.739 173.965 176.138 L 173.965 171.839 C 174.011 171.238 173.595 171.007 173.133 171.284 Z " fill="rgb(255,56,136)"/></g><defs><filter id="XP34U5U77THC90lPSZe85LMltBBBFEj8" x="-200%" y="-200%" width="400%" height="400%" filterUnits="objectBoundingBox" color-interpolation-filters="sRGB"><feGaussianBlur xmlns="http://www.w3.org/2000/svg" in="SourceGraphic" stdDeviation="2.146804531419514"/><feOffset xmlns="http://www.w3.org/2000/svg" dx="0" dy="0" result="pf_100_offsetBlur"/><feFlood xmlns="http://www.w3.org/2000/svg" flood-color="#EFEFEF" flood-opacity="1"/><feComposite xmlns="http://www.w3.org/2000/svg" in2="pf_100_offsetBlur" operator="in" result="pf_100_dropShadow"/><feBlend xmlns="http://www.w3.org/2000/svg" in="SourceGraphic" in2="pf_100_dropShadow" mode="normal"/></filter></defs><g filter="url(#XP34U5U77THC90lPSZe85LMltBBBFEj8)"><path d=" M 133.513 130.324 C 134.114 130 134.623 130.416 134.623 131.202 L 134.669 137.628 C 137.35 136.565 139.708 136.287 141.835 136.75 C 142.297 136.888 142.482 137.489 142.297 138.229 L 140.864 143.915 C 140.771 144.332 140.494 144.794 140.217 145.071 C 140.078 145.21 139.985 145.302 139.847 145.349 C 139.662 145.441 139.477 145.487 139.292 145.441 C 138.321 145.21 136.01 144.701 132.404 146.551 C 128.613 148.492 127.272 151.775 127.318 154.225 C 127.364 157.137 128.844 158.062 134.022 158.108 C 140.91 158.201 143.915 161.252 143.961 168.186 C 144.054 175.029 140.401 182.333 134.808 186.864 L 134.946 193.243 C 134.946 194.029 134.438 194.908 133.837 195.185 L 130.046 197.358 C 129.445 197.681 128.936 197.312 128.936 196.526 L 128.89 190.238 C 125.654 191.579 122.372 191.903 120.291 191.071 C 119.875 190.932 119.736 190.331 119.875 189.684 L 121.262 183.905 C 121.354 183.443 121.632 182.98 121.955 182.703 C 122.094 182.61 122.187 182.518 122.325 182.425 C 122.556 182.333 122.741 182.287 122.926 182.379 C 125.192 183.119 128.058 182.795 130.832 181.362 C 134.345 179.559 136.703 175.999 136.657 172.393 C 136.611 169.157 134.854 167.817 130.601 167.77 C 125.192 167.77 120.106 166.707 120.014 158.709 C 119.968 152.144 123.389 145.302 128.798 140.957 L 128.751 134.531 C 128.751 133.745 129.214 132.866 129.861 132.543 L 133.513 130.324 Z " fill="rgb(255,255,255)"/></g></g></svg>