<?xml version="1.0" standalone="no"?><!-- Generator: Gravit.io --><svg xmlns="http://www.w3.org/2000/svg" xmlns:xlink="http://www.w3.org/1999/xlink" style="isolation:isolate" viewBox="835.327 78.892 80 75.778" width="80px" height="75.778px"><g><linearGradient id="_lgradient_0" x1="0" y1="0.5" x2="0.6250886085441063" y2="1.2805537979334884" gradientTransform="matrix(79.974,0,0,75.654,835.327,78.892)" gradientUnits="userSpaceOnUse"><stop offset="0%" stop-opacity="1" style="stop-color:rgb(242,110,88)"/><stop offset="92.41483815976275%" stop-opacity="1" style="stop-color:rgb(249,160,60)"/></linearGradient><path d=" M 915.301 132.524 C 914.749 144.761 904.625 154.546 892.256 154.546 L 890.584 154.546 L 878.232 142.377 C 879.248 140.944 880.192 139.46 881.033 137.912 L 892.256 137.912 C 895.806 137.912 898.694 135.025 898.694 131.474 C 898.694 127.924 895.806 125.036 892.256 125.036 L 885.615 125.036 C 886.121 122.361 886.398 119.602 886.398 116.781 C 886.398 113.915 886.116 111.118 885.591 108.4 L 889.717 108.4 L 915.228 133.538 C 915.258 133.201 915.283 132.864 915.301 132.524 L 915.301 132.524 L 915.301 132.524 Z  M 842.037 78.892 L 835.327 78.892 L 835.327 95.526 L 842.037 95.526 C 853.758 95.526 863.294 105.06 863.294 116.781 C 863.294 119.969 862.583 122.996 861.319 125.713 L 873.562 137.777 C 877.581 131.762 879.931 124.541 879.931 116.781 C 879.931 95.889 862.932 78.892 842.037 78.892 L 842.037 78.892 L 842.037 78.892 Z " fill="url(#_lgradient_0)"/><linearGradient id="_lgradient_1" x1="0" y1="0.5" x2="0.8135915714697222" y2="1.081436802097552" gradientTransform="matrix(50.245,0,0,54.647,865.082,78.892)" gradientUnits="userSpaceOnUse"><stop offset="3.6508334665544373%" stop-opacity="1" style="stop-color:rgb(184,78,81)"/><stop offset="100%" stop-opacity="1" style="stop-color:rgb(243,139,72)"/></linearGradient><path d=" M 892.256 78.892 L 865.082 78.892 C 871.719 82.944 877.215 88.69 880.96 95.526 L 892.256 95.526 C 895.806 95.526 898.694 98.413 898.694 101.964 C 898.694 105.514 895.806 108.401 892.256 108.401 L 889.718 108.401 L 915.229 133.538 C 915.289 132.857 915.327 132.171 915.327 131.474 C 915.327 125.866 913.315 120.722 909.973 116.718 C 913.315 112.716 915.327 107.571 915.327 101.964 C 915.327 89.243 904.979 78.892 892.256 78.892 L 892.256 78.892 L 892.256 78.892 Z " fill="url(#_lgradient_1)"/><linearGradient id="_lgradient_2" x1="0" y1="0.5" x2="0.0751925041575447" y2="1.4971690364820387" gradientTransform="matrix(55.257,0,0,28.956,835.327,125.713)" gradientUnits="userSpaceOnUse"><stop offset="23.184933216118246%" stop-opacity="1" style="stop-color:rgb(249,160,60)"/><stop offset="100%" stop-opacity="1" style="stop-color:rgb(247,153,75)"/></linearGradient><path d=" M 890.584 154.546 L 865.277 154.546 C 870.371 151.4 874.775 147.247 878.232 142.377 L 890.584 154.546 L 890.584 154.546 Z  M 873.562 137.777 L 861.32 125.713 C 857.938 132.982 850.568 138.037 842.037 138.037 L 835.327 138.037 L 835.327 154.669 L 842.037 154.669 C 855.17 154.669 866.761 147.952 873.562 137.777 L 873.562 137.777 L 873.562 137.777 Z " fill="url(#_lgradient_2)"/></g></svg>