<?xml version="1.0" standalone="no"?><!-- Generator: Gravit.io --><svg xmlns="http://www.w3.org/2000/svg" xmlns:xlink="http://www.w3.org/1999/xlink" style="isolation:isolate" viewBox="527 277 222 86" width="222" height="86"><g><linearGradient id="_lgradient_1" x1="-0.09759759759759756" y1="0.46899224806201545" x2="1.1126391878604265" y2="0.4611031076353156" gradientTransform="matrix(222,0,0,86,527,277)" gradientUnits="userSpaceOnUse"><stop offset="0%" stop-opacity="0" style="stop-color:rgb(4,222,212)"/><stop offset="47.391304347826086%" stop-opacity="1" style="stop-color:rgb(4,222,212)"/><stop offset="98.26086956521739%" stop-opacity="0" style="stop-color:rgb(4,222,212)"/></linearGradient><path d=" M 527 344.666 L 528.323 343.447 L 529.814 344.938 L 533.651 341 L 534.974 342.322 L 529.814 347.478 L 527 344.666 L 527 344.666 L 527 344.666 L 527 344.666 L 527 344.666 Z  M 719.664 338.007 L 715.2 342.471 L 712.8 342.471 C 712.14 342.471 711.6 343.011 711.6 343.671 L 711.6 346.071 C 711.6 346.731 712.14 347.271 712.8 347.271 L 715.2 347.271 L 719.664 351.735 C 720.228 352.299 721.2 351.903 721.2 351.099 L 721.2 338.643 C 721.2 337.839 720.228 337.443 719.664 338.007 L 719.664 338.007 L 719.664 338.007 L 719.664 338.007 L 719.664 338.007 L 719.664 338.007 Z  M 667.648 358.68 L 665.883 358.68 L 665.883 356.914 L 666.766 356.914 L 666.766 357.797 L 667.648 357.797 L 667.648 358.68 L 667.648 358.68 L 667.648 358.68 L 667.648 358.68 L 667.648 358.68 L 667.648 358.68 L 667.648 358.68 L 667.648 358.68 L 667.648 358.68 L 667.648 358.68 Z  M 676.742 350.469 L 675.594 351.617 L 672.946 348.968 L 674.093 347.821 C 674.438 347.476 674.994 347.476 675.338 347.821 L 676.742 349.224 C 677.086 349.569 677.086 350.125 676.742 350.469 L 676.742 350.469 L 676.742 350.469 L 676.742 350.469 L 676.742 350.469 L 676.742 350.469 L 676.742 350.469 L 676.742 350.469 L 676.742 350.469 L 676.742 350.469 Z  M 689.429 309.784 L 692.571 309.784 L 692.571 312.927 L 689.429 312.927 L 689.429 309.784 L 689.429 309.784 L 689.429 309.784 L 689.429 309.784 L 689.429 309.784 L 689.429 309.784 L 689.429 309.784 L 689.429 309.784 Z  M 576.667 316.165 L 570 316.165 L 570 317.832 L 576.667 317.832 L 576.667 316.165 L 576.667 316.165 L 576.667 316.165 L 576.667 316.165 L 576.667 316.165 L 576.667 316.165 L 576.667 316.165 Z  M 576.667 312.832 L 570 312.832 L 570 314.499 L 576.667 314.499 L 576.667 312.832 L 576.667 312.832 L 576.667 312.832 L 576.667 312.832 L 576.667 312.832 L 576.667 312.832 L 576.667 312.832 Z  M 576.667 309.499 L 570 309.499 L 570 311.165 L 576.667 311.165 L 576.667 309.499 L 576.667 309.499 L 576.667 309.499 L 576.667 309.499 L 576.667 309.499 L 576.667 309.499 L 576.667 309.499 Z  M 748.2 309.091 L 743 312.721 L 743 310.001 C 743 309.451 742.55 309.001 742 309.001 L 734 309.001 C 733.45 309.001 733 309.451 733 310.001 L 733 319.001 C 733 319.551 733.45 320.001 734 320.001 L 742 320.001 C 742.55 320.001 743 319.551 743 319.001 L 743 316.281 L 748.2 319.911 C 748.53 320.141 749 319.911 749 319.501 L 749 309.501 C 749 309.091 748.53 308.861 748.2 309.091 L 748.2 309.091 L 748.2 309.091 L 748.2 309.091 L 748.2 309.091 L 748.2 309.091 L 748.2 309.091 L 748.2 309.091 L 748.2 309.091 Z  M 605 282.357 L 601.5 281.9 L 600 278.786 L 598.5 281.9 L 595 282.357 L 597.571 284.686 L 596.907 288.071 L 600 286.407 L 603.093 288.071 L 602.429 284.686 L 605 282.357 L 605 282.357 L 605 282.357 L 605 282.357 L 605 282.357 L 605 282.357 L 605 282.357 L 605 282.357 L 605 282.357 Z  M 558.333 317.832 L 565 317.832 L 565 316.165 L 558.333 316.165 L 558.333 317.832 L 558.333 317.832 L 558.333 317.832 L 558.333 317.832 L 558.333 317.832 L 558.333 317.832 L 558.333 317.832 Z  M 558.333 309.499 L 565 309.499 L 565 311.165 L 558.333 311.165 L 558.333 309.499 L 558.333 309.499 L 558.333 309.499 L 558.333 309.499 L 558.333 309.499 L 558.333 309.499 L 558.333 309.499 Z  M 726.792 338.103 L 725.988 338.907 C 727.524 340.443 728.46 342.543 728.46 344.883 C 728.46 347.211 727.524 349.323 725.988 350.859 L 726.792 351.663 C 728.532 349.923 729.6 347.523 729.6 344.871 C 729.6 342.207 728.532 339.807 726.792 338.079 L 726.792 338.103 L 726.792 338.103 L 726.792 338.103 L 726.792 338.103 L 726.792 338.103 L 726.792 338.103 Z  M 558.333 314.499 L 565 314.499 L 565 312.832 L 558.333 312.832 L 558.333 314.499 L 558.333 314.499 L 558.333 314.499 L 558.333 314.499 L 558.333 314.499 L 558.333 314.499 L 558.333 314.499 Z  M 724.8 344.895 C 724.8 346.203 724.26 347.403 723.396 348.291 L 722.592 347.487 C 723.252 346.815 723.66 345.915 723.66 344.895 C 723.66 343.875 723.252 342.963 722.592 342.303 L 723.396 341.499 C 724.26 342.363 724.8 343.563 724.8 344.895 L 724.8 344.895 L 724.8 344.895 L 724.8 344.895 L 724.8 344.895 L 724.8 344.895 Z  M 725.1 339.795 L 724.272 340.599 C 725.376 341.703 726.048 343.227 726.048 344.895 C 726.048 346.563 725.376 348.087 724.272 349.167 L 725.1 349.971 C 726.396 348.675 727.2 346.875 727.2 344.895 C 727.2 342.915 726.396 341.103 725.1 339.795 L 725.1 339.795 L 725.1 339.795 L 725.1 339.795 L 725.1 339.795 Z  M 727.886 287.929 L 719.386 287.929 L 716.957 290.357 L 716.957 287.929 L 713.314 287.929 L 713.314 278.214 L 727.886 278.214 L 727.886 287.929 L 727.886 287.929 L 727.886 287.929 L 727.886 287.929 L 727.886 287.929 L 727.886 287.929 Z  M 535.996 344.75 C 535.443 344.75 535.443 344.366 535.443 343.813 C 535.443 343.259 535.443 342.875 535.996 342.875 L 541.447 342.875 C 542 342.875 542 343.259 542 343.813 C 542 344.366 542 344.75 541.447 344.75 L 535.996 344.75 L 535.996 344.75 L 535.996 344.75 L 535.996 344.75 Z  M 541.456 349.438 L 534.12 349.438 C 533.567 349.438 533.567 349.053 533.567 348.5 C 533.567 347.947 533.567 347.563 534.12 347.563 L 541.447 347.563 C 542 347.563 542 347.947 542 348.5 C 542 349.053 542 349.438 541.447 349.438 L 541.456 349.438 L 541.456 349.438 L 541.456 349.438 L 541.456 349.438 Z  M 534.12 352.25 L 541.447 352.25 C 542 352.25 542 352.634 542 353.188 C 542 353.741 542 354.125 541.447 354.125 L 534.12 354.125 C 533.567 354.125 533.567 353.741 533.567 353.188 C 533.567 352.634 533.567 352.25 534.12 352.25 L 534.12 352.25 L 534.12 352.25 L 534.12 352.25 Z  M 543.714 287.929 L 538.571 284.071 L 543.714 280.214 L 543.714 287.929 L 543.714 287.929 L 543.714 287.929 Z  M 529.571 288.571 L 534.071 284.714 L 536 286.643 L 537.929 284.714 L 542.429 288.571 L 529.571 288.571 L 529.571 288.571 L 529.571 288.571 Z  M 528.286 280.214 L 533.429 284.071 L 528.286 287.929 L 528.286 280.214 L 528.286 280.214 L 528.286 280.214 Z  M 543.714 278.286 L 536 284.714 L 528.286 278.286 L 543.714 278.286 L 543.714 278.286 L 543.714 278.286 Z  M 727.886 277 L 713.314 277 C 712.646 277 712.1 277.546 712.1 278.214 L 712.1 287.929 C 712.1 288.596 712.646 289.143 713.314 289.143 L 715.743 289.143 L 715.743 293.393 L 719.993 289.143 L 727.886 289.143 C 728.554 289.143 729.1 288.596 729.1 287.929 L 729.1 278.214 C 729.1 277.546 728.554 277 727.886 277 L 727.886 277 L 727.886 277 L 727.886 277 L 727.886 277 L 727.886 277 Z  M 697.286 309.784 L 692.571 305.07 L 681.571 305.07 L 681.571 322.356 L 686.286 314.499 L 689.429 320.784 L 692.571 317.642 L 697.286 322.356 L 697.286 309.784 L 697.286 309.784 L 697.286 309.784 L 697.286 309.784 L 697.286 309.784 L 697.286 309.784 L 697.286 309.784 L 697.286 309.784 Z  M 665 356.914 L 665 359.562 L 667.648 359.562 L 674.711 352.5 L 672.063 349.851 L 665 356.914 L 665 356.914 L 665 356.914 L 665 356.914 L 665 356.914 L 665 356.914 L 665 356.914 L 665 356.914 L 665 356.914 L 665 356.914 Z  M 698.857 308.999 L 698.857 323.927 C 698.857 324.792 698.15 325.499 697.286 325.499 L 681.571 325.499 C 680.707 325.499 680 324.792 680 323.927 L 680 305.07 C 680 304.206 680.707 303.499 681.571 303.499 L 693.357 303.499 L 698.857 308.999 L 698.857 308.999 L 698.857 308.999 L 698.857 308.999 L 698.857 308.999 L 698.857 308.999 L 698.857 308.999 L 698.857 308.999 Z  M 566.667 306.999 L 565.833 306.165 L 556.667 306.165 L 556.667 321.165 L 566.667 321.165 L 566.667 306.999 L 566.667 306.999 L 566.667 306.999 L 566.667 306.999 L 566.667 306.999 L 566.667 306.999 L 566.667 306.999 Z  M 578.333 306.165 L 569.167 306.165 L 568.333 306.999 L 568.333 321.165 L 578.333 321.165 L 578.333 306.165 L 578.333 306.165 L 578.333 306.165 L 578.333 306.165 L 578.333 306.165 L 578.333 306.165 L 578.333 306.165 Z  M 527 278.286 L 527 288.571 C 527 289.279 527.579 289.857 528.286 289.857 L 543.714 289.857 C 544.421 289.857 545 289.279 545 288.571 L 545 278.286 C 545 277.579 544.421 277 543.714 277 L 528.286 277 C 527.579 277 527 277.579 527 278.286 L 527 278.286 L 527 278.286 Z  M 580 306.165 L 580 321.165 C 580 322.082 579.25 322.832 578.333 322.832 L 569.167 322.832 L 567.5 324.499 L 565.833 322.832 L 556.667 322.832 C 555.75 322.832 555 322.082 555 321.165 L 555 306.165 C 555 305.249 555.75 304.499 556.667 304.499 L 565.833 304.499 L 567.5 306.165 L 569.167 304.499 L 578.333 304.499 C 579.25 304.499 580 305.249 580 306.165 L 580 306.165 L 580 306.165 L 580 306.165 L 580 306.165 L 580 306.165 L 580 306.165 Z  M 603.929 353.571 L 602.357 353.571 L 602.357 352 L 603.929 352 L 603.929 353.571 L 603.929 353.571 Z  M 603.929 359.857 L 602.357 359.857 L 602.357 358.286 L 603.929 358.286 L 603.929 359.857 L 603.929 359.857 Z  M 596.071 344.143 L 594.5 344.143 L 594.5 341 L 596.071 341 L 596.071 344.143 L 596.071 344.143 Z  M 605.5 344.143 L 603.929 344.143 L 603.929 341 L 605.5 341 L 605.5 344.143 L 605.5 344.143 Z  M 597.643 350.429 L 596.071 350.429 L 596.071 348.857 L 597.643 348.857 L 597.643 350.429 L 597.643 350.429 Z  M 600.786 350.429 L 599.214 350.429 L 599.214 348.857 L 600.786 348.857 L 600.786 350.429 L 600.786 350.429 Z  M 603.929 350.429 L 602.357 350.429 L 602.357 348.857 L 603.929 348.857 L 603.929 350.429 L 603.929 350.429 Z  M 607.071 350.429 L 605.5 350.429 L 605.5 348.857 L 607.071 348.857 L 607.071 350.429 L 607.071 350.429 Z  M 594.5 353.571 L 592.929 353.571 L 592.929 352 L 594.5 352 L 594.5 353.571 L 594.5 353.571 Z  M 597.643 353.571 L 596.071 353.571 L 596.071 352 L 597.643 352 L 597.643 353.571 L 597.643 353.571 Z  M 600.786 353.571 L 599.214 353.571 L 599.214 352 L 600.786 352 L 600.786 353.571 L 600.786 353.571 Z  M 600.786 359.857 L 599.214 359.857 L 599.214 358.286 L 600.786 358.286 L 600.786 359.857 L 600.786 359.857 Z  M 607.071 353.571 L 605.5 353.571 L 605.5 352 L 607.071 352 L 607.071 353.571 L 607.071 353.571 Z  M 594.5 356.714 L 592.929 356.714 L 592.929 355.143 L 594.5 355.143 L 594.5 356.714 L 594.5 356.714 Z  M 597.643 356.714 L 596.071 356.714 L 596.071 355.143 L 597.643 355.143 L 597.643 356.714 L 597.643 356.714 Z  M 600.786 356.714 L 599.214 356.714 L 599.214 355.143 L 600.786 355.143 L 600.786 356.714 L 600.786 356.714 Z  M 603.929 356.714 L 602.357 356.714 L 602.357 355.143 L 603.929 355.143 L 603.929 356.714 L 603.929 356.714 Z  M 607.071 356.714 L 605.5 356.714 L 605.5 355.143 L 607.071 355.143 L 607.071 356.714 L 607.071 356.714 Z  M 594.5 359.857 L 592.929 359.857 L 592.929 358.286 L 594.5 358.286 L 594.5 359.857 L 594.5 359.857 Z  M 597.643 359.857 L 596.071 359.857 L 596.071 358.286 L 597.643 358.286 L 597.643 359.857 L 597.643 359.857 Z  M 608.643 361.429 L 591.357 361.429 L 591.357 347.286 L 608.643 347.286 L 608.643 361.429 L 608.643 361.429 Z  M 608.643 342.571 L 607.071 342.571 L 607.071 344.929 C 607.071 345.369 606.726 345.714 606.286 345.714 L 603.143 345.714 C 602.703 345.714 602.357 345.369 602.357 344.929 L 602.357 342.571 L 597.643 342.571 L 597.643 344.929 C 597.643 345.369 597.297 345.714 596.857 345.714 L 593.714 345.714 C 593.274 345.714 592.929 345.369 592.929 344.929 L 592.929 342.571 L 591.357 342.571 C 590.493 342.571 589.786 343.279 589.786 344.143 L 589.786 361.429 C 589.786 362.293 590.493 363 591.357 363 L 608.643 363 C 609.507 363 610.214 362.293 610.214 361.429 L 610.214 344.143 C 610.214 343.279 609.507 342.571 608.643 342.571 L 608.643 342.571 Z " fill-rule="evenodd" fill="url(#_lgradient_1)"/><defs><filter id="pKdBAbT7tLyPcuxOme3nyg4BRKoJE574" x="-200%" y="-200%" width="400%" height="400%" filterUnits="objectBoundingBox" color-interpolation-filters="sRGB"><feGaussianBlur xmlns="http://www.w3.org/2000/svg" in="SourceGraphic" stdDeviation="2.146804531419514"/><feOffset xmlns="http://www.w3.org/2000/svg" dx="0" dy="0" result="pf_100_offsetBlur"/><feFlood xmlns="http://www.w3.org/2000/svg" flood-color="#04DED4" flood-opacity="1"/><feComposite xmlns="http://www.w3.org/2000/svg" in2="pf_100_offsetBlur" operator="in" result="pf_100_dropShadow"/><feBlend xmlns="http://www.w3.org/2000/svg" in="SourceGraphic" in2="pf_100_dropShadow" mode="normal"/></filter></defs><g filter="url(#pKdBAbT7tLyPcuxOme3nyg4BRKoJE574)"><g transform="matrix(1,0,0,1,609,306.3)"><text transform="matrix(1,0,0,1,0,19.24)" style="font-family:'Poiret One';font-weight:400;font-size:20px;font-style:normal;fill:#17ccc3;stroke:none;">APPS</text></g></g></g></svg>