<?xml version="1.0" standalone="no"?><!-- Generator: Gravit.io --><svg xmlns="http://www.w3.org/2000/svg" xmlns:xlink="http://www.w3.org/1999/xlink" style="isolation:isolate" viewBox="906 293.74 100 56.779" width="100" height="56.779"><g><path d=" M 948.175 311.669 L 939.21 311.669 L 939.21 320.834 L 934.677 320.834 C 932.584 320.834 930.431 320.461 928.448 319.789 C 927.474 319.459 926.381 318.999 925.42 318.421 C 926.685 316.769 927.332 314.683 927.522 312.626 C 927.78 309.829 927.216 306.188 925.323 303.999 L 924.38 302.909 L 923.257 303.812 C 920.43 306.083 918.052 309.257 917.633 312.876 C 914.229 311.874 910.232 312.111 907.231 313.843 L 906 314.553 L 906.648 315.818 C 909.186 320.771 914.491 322.305 919.678 322.034 C 927.44 341.366 944.339 350.519 964.828 350.519 C 975.413 350.519 985.125 346.562 990.655 337.17 C 990.98 336.586 991.257 335.976 991.552 335.377 C 993.421 331.243 994.042 326.714 993.621 322.189 L 993.494 320.834 L 985.828 320.834 L 985.828 311.67 L 976.863 311.67 L 976.863 302.705 L 958.933 302.705 L 958.933 293.74 L 948.175 293.74 L 948.175 311.67" fill="rgb(57,77,84)"/><clipPath id="_clipPath_wi857fLaoNkIRcYuCnj9yn4UaNQVuNtK"><path d=" M 976.203 294.524 L 976.203 312.559 L 984.828 312.559 L 984.828 321.576 L 992.05 321.576 C 992.081 321.837 992.105 322.099 992.131 322.36 C 992.582 327.273 991.724 331.804 989.754 335.678 L 989.092 336.867 C 988.696 337.579 988.233 338.248 987.744 338.901 C 987.256 339.552 987.083 339.913 986.776 340.346 C 981.566 346.202 973.8 349.021 964.833 349.021 C 944.975 349.021 928.123 340.224 920.664 320.461 C 915.373 321.004 910.297 319.647 907.983 315.132 C 911.668 313.005 916.404 313.687 919.133 315.058 L 911.904 294.524 L 940.133 312.559 L 949.15 312.559 L 949.15 294.524 L 976.203 294.524 Z " fill="rgb(255,255,255)"/></clipPath><g clip-path="url(#_clipPath_wi857fLaoNkIRcYuCnj9yn4UaNQVuNtK)"><g><g><g><path d=" M 957.439 286.269 L 949.669 286.269 L 949.669 294.038 L 957.439 294.038 L 957.439 286.269 Z " fill="rgb(0,172,211)"/><path d=" M 957.439 295.233 L 949.669 295.233 L 949.669 303.003 L 957.439 303.003 L 957.439 295.233 Z " fill="rgb(32,194,239)"/><path d=" M 956.485 293.391 L 956.485 286.916 M 955.32 293.391 L 955.32 286.916 M 954.143 293.391 L 954.143 286.916 M 952.965 293.391 L 952.965 286.916 M 951.788 293.391 L 951.788 286.916 M 950.623 293.391 L 950.623 286.916" fill="rgb(0,0,0)" vector-effect="non-scaling-stroke" stroke-width="0.391" stroke="rgb(57,77,84)" stroke-linejoin="miter" stroke-linecap="butt" stroke-miterlimit="4"/><path d=" M 956.485 302.356 L 956.485 295.881 M 955.32 302.356 L 955.32 295.881 M 954.143 302.356 L 954.143 295.881 M 952.965 302.356 L 952.965 295.881 M 951.788 302.356 L 951.788 295.881 M 950.623 302.356 L 950.623 295.881" fill="rgb(0,0,0)" vector-effect="non-scaling-stroke" stroke-width="0.391" stroke="rgb(57,77,84)" stroke-linejoin="miter" stroke-linecap="butt" stroke-miterlimit="4"/></g><g><path d=" M 948.474 294.038 L 940.704 294.038 L 940.704 286.268 L 948.474 286.268 L 948.474 294.038 Z " fill="rgb(0,172,211)"/><path d=" M 948.474 285.073 L 940.704 285.073 L 940.704 277.303 L 948.474 277.303 L 948.474 285.073 Z " fill="rgb(32,194,239)"/><path d=" M 947.52 286.916 L 947.52 293.391 M 946.355 286.916 L 946.355 293.391 M 945.178 286.916 L 945.178 293.391 M 944 286.916 L 944 293.391 M 942.823 286.916 L 942.823 293.391 M 941.658 286.916 L 941.658 293.391" fill="rgb(0,0,0)" vector-effect="non-scaling-stroke" stroke-width="0.391" stroke="rgb(57,77,84)" stroke-linejoin="miter" stroke-linecap="butt" stroke-miterlimit="4"/><path d=" M 947.52 277.951 L 947.52 284.426 M 946.355 277.951 L 946.355 284.426 M 945.178 277.951 L 945.178 284.426 M 944 277.951 L 944 284.426 M 942.823 277.951 L 942.823 284.426 M 941.658 277.951 L 941.658 284.426" fill="rgb(0,0,0)" vector-effect="non-scaling-stroke" stroke-width="0.391" stroke="rgb(57,77,84)" stroke-linejoin="miter" stroke-linecap="butt" stroke-miterlimit="4"/></g></g><g><g><path d=" M 993.299 304.199 L 985.529 304.199 L 985.529 311.968 L 993.299 311.968 L 993.299 304.199 Z " fill="rgb(0,172,211)"/><path d=" M 993.299 313.163 L 985.529 313.163 L 985.529 320.933 L 993.299 320.933 L 993.299 313.163 Z " fill="rgb(32,194,239)"/><path d=" M 992.345 311.321 L 992.345 304.846 M 991.18 311.321 L 991.18 304.846 M 990.003 311.321 L 990.003 304.846 M 988.825 311.321 L 988.825 304.846 M 987.648 311.321 L 987.648 304.846 M 986.483 311.321 L 986.483 304.846" fill="rgb(0,0,0)" vector-effect="non-scaling-stroke" stroke-width="0.391" stroke="rgb(57,77,84)" stroke-linejoin="miter" stroke-linecap="butt" stroke-miterlimit="4"/><path d=" M 992.345 320.286 L 992.345 313.811 M 991.18 320.286 L 991.18 313.811 M 990.003 320.286 L 990.003 313.811 M 988.825 320.286 L 988.825 313.811 M 987.648 320.286 L 987.648 313.811 M 986.483 320.286 L 986.483 313.811" fill="rgb(0,0,0)" vector-effect="non-scaling-stroke" stroke-width="0.391" stroke="rgb(57,77,84)" stroke-linejoin="miter" stroke-linecap="butt" stroke-miterlimit="4"/></g><g><path d=" M 984.334 311.968 L 976.564 311.968 L 976.564 304.198 L 984.334 304.198 L 984.334 311.968 Z " fill="rgb(0,172,211)"/><path d=" M 984.334 303.003 L 976.564 303.003 L 976.564 295.233 L 984.334 295.233 L 984.334 303.003 Z " fill="rgb(32,194,239)"/><path d=" M 983.38 304.846 L 983.38 311.321 M 982.215 304.846 L 982.215 311.321 M 981.038 304.846 L 981.038 311.321 M 979.86 304.846 L 979.86 311.321 M 978.683 304.846 L 978.683 311.321 M 977.518 304.846 L 977.518 311.321" fill="rgb(0,0,0)" vector-effect="non-scaling-stroke" stroke-width="0.391" stroke="rgb(57,77,84)" stroke-linejoin="miter" stroke-linecap="butt" stroke-miterlimit="4"/><path d=" M 983.38 295.881 L 983.38 302.356 M 982.215 295.881 L 982.215 302.356 M 981.038 295.881 L 981.038 302.356 M 979.86 295.881 L 979.86 302.356 M 978.683 295.881 L 978.683 302.356 M 977.518 295.881 L 977.518 302.356" fill="rgb(0,0,0)" vector-effect="non-scaling-stroke" stroke-width="0.391" stroke="rgb(57,77,84)" stroke-linejoin="miter" stroke-linecap="butt" stroke-miterlimit="4"/></g></g><g><g><path d=" M 975.369 304.199 L 967.599 304.199 L 967.599 311.968 L 975.369 311.968 L 975.369 304.199 Z " fill="rgb(0,172,211)"/><path d=" M 975.369 313.163 L 967.599 313.163 L 967.599 320.933 L 975.369 320.933 L 975.369 313.163 Z " fill="rgb(32,194,239)"/><path d=" M 974.415 311.321 L 974.415 304.846 M 973.25 311.321 L 973.25 304.846 M 972.073 311.321 L 972.073 304.846 M 970.895 311.321 L 970.895 304.846 M 969.718 311.321 L 969.718 304.846 M 968.553 311.321 L 968.553 304.846" fill="rgb(0,0,0)" vector-effect="non-scaling-stroke" stroke-width="0.391" stroke="rgb(57,77,84)" stroke-linejoin="miter" stroke-linecap="butt" stroke-miterlimit="4"/><path d=" M 974.415 320.286 L 974.415 313.811 M 973.25 320.286 L 973.25 313.811 M 972.073 320.286 L 972.073 313.811 M 970.895 320.286 L 970.895 313.811 M 969.718 320.286 L 969.718 313.811 M 968.553 320.286 L 968.553 313.811" fill="rgb(0,0,0)" vector-effect="non-scaling-stroke" stroke-width="0.391" stroke="rgb(57,77,84)" stroke-linejoin="miter" stroke-linecap="butt" stroke-miterlimit="4"/></g><g><path d=" M 966.404 311.968 L 958.634 311.968 L 958.634 304.198 L 966.404 304.198 L 966.404 311.968 Z " fill="rgb(0,172,211)"/><path d=" M 966.404 303.003 L 958.634 303.003 L 958.634 295.233 L 966.404 295.233 L 966.404 303.003 Z " fill="rgb(32,194,239)"/><path d=" M 965.45 304.846 L 965.45 311.321 M 964.285 304.846 L 964.285 311.321 M 963.108 304.846 L 963.108 311.321 M 961.93 304.846 L 961.93 311.321 M 960.753 304.846 L 960.753 311.321 M 959.588 304.846 L 959.588 311.321" fill="rgb(0,0,0)" vector-effect="non-scaling-stroke" stroke-width="0.391" stroke="rgb(57,77,84)" stroke-linejoin="miter" stroke-linecap="butt" stroke-miterlimit="4"/><path d=" M 965.45 295.881 L 965.45 302.356 M 964.285 295.881 L 964.285 302.356 M 963.108 295.881 L 963.108 302.356 M 961.93 295.881 L 961.93 302.356 M 960.753 295.881 L 960.753 302.356 M 959.588 295.881 L 959.588 302.356" fill="rgb(0,0,0)" vector-effect="non-scaling-stroke" stroke-width="0.391" stroke="rgb(57,77,84)" stroke-linejoin="miter" stroke-linecap="butt" stroke-miterlimit="4"/></g></g><g><g><path d=" M 957.439 304.199 L 949.669 304.199 L 949.669 311.968 L 957.439 311.968 L 957.439 304.199 Z " fill="rgb(0,172,211)"/><path d=" M 957.439 313.163 L 949.669 313.163 L 949.669 320.933 L 957.439 320.933 L 957.439 313.163 Z " fill="rgb(32,194,239)"/><path d=" M 956.485 311.321 L 956.485 304.846 M 955.32 311.321 L 955.32 304.846 M 954.143 311.321 L 954.143 304.846 M 952.965 311.321 L 952.965 304.846 M 951.788 311.321 L 951.788 304.846 M 950.623 311.321 L 950.623 304.846" fill="rgb(0,0,0)" vector-effect="non-scaling-stroke" stroke-width="0.391" stroke="rgb(57,77,84)" stroke-linejoin="miter" stroke-linecap="butt" stroke-miterlimit="4"/><path d=" M 956.485 320.286 L 956.485 313.811 M 955.32 320.286 L 955.32 313.811 M 954.143 320.286 L 954.143 313.811 M 952.965 320.286 L 952.965 313.811 M 951.788 320.286 L 951.788 313.811 M 950.623 320.286 L 950.623 313.811" fill="rgb(0,0,0)" vector-effect="non-scaling-stroke" stroke-width="0.391" stroke="rgb(57,77,84)" stroke-linejoin="miter" stroke-linecap="butt" stroke-miterlimit="4"/></g><g><path d=" M 948.474 311.968 L 940.704 311.968 L 940.704 304.198 L 948.474 304.198 L 948.474 311.968 Z " fill="rgb(0,172,211)"/><path d=" M 948.474 303.003 L 940.704 303.003 L 940.704 295.233 L 948.474 295.233 L 948.474 303.003 Z " fill="rgb(32,194,239)"/><path d=" M 947.52 304.846 L 947.52 311.321 M 946.355 304.846 L 946.355 311.321 M 945.178 304.846 L 945.178 311.321 M 944 304.846 L 944 311.321 M 942.823 304.846 L 942.823 311.321 M 941.658 304.846 L 941.658 311.321" fill="rgb(0,0,0)" vector-effect="non-scaling-stroke" stroke-width="0.391" stroke="rgb(57,77,84)" stroke-linejoin="miter" stroke-linecap="butt" stroke-miterlimit="4"/><path d=" M 947.52 295.881 L 947.52 302.356 M 946.355 295.881 L 946.355 302.356 M 945.178 295.881 L 945.178 302.356 M 944 295.881 L 944 302.356 M 942.823 295.881 L 942.823 302.356 M 941.658 295.881 L 941.658 302.356" fill="rgb(0,0,0)" vector-effect="non-scaling-stroke" stroke-width="0.391" stroke="rgb(57,77,84)" stroke-linejoin="miter" stroke-linecap="butt" stroke-miterlimit="4"/></g></g></g></g><clipPath id="_clipPath_U3BYxVZCA5TUp344StqOt44J31F59T0s"><path d=" M 976.203 294.524 L 976.203 312.559 L 984.828 312.559 L 984.828 321.576 L 992.05 321.576 C 992.081 321.837 992.105 322.099 992.131 322.36 C 992.582 327.273 991.724 331.804 989.754 335.678 L 989.092 336.867 C 988.696 337.579 988.233 338.248 987.744 338.901 C 987.256 339.552 987.083 339.913 986.776 340.346 C 981.566 346.202 973.8 349.021 964.833 349.021 C 944.975 349.021 928.123 340.224 920.664 320.461 C 915.373 321.004 910.297 319.647 907.983 315.132 C 911.668 313.005 916.404 313.687 919.133 315.058 L 911.904 294.524 L 940.133 312.559 L 949.15 312.559 L 949.15 294.524 L 976.203 294.524 Z " fill="rgb(255,255,255)"/></clipPath><g clip-path="url(#_clipPath_U3BYxVZCA5TUp344StqOt44J31F59T0s)"><path d=" M 919.13 315.06 C 918.529 310.388 922.025 306.719 924.193 304.977 C 926.691 307.865 927.08 315.436 923.16 318.623 C 925.347 320.567 929.957 322.328 934.677 322.328 L 992.67 322.328 C 993.129 327.255 992.67 350.981 992.67 350.981 L 907.591 350.981 L 907.978 315.137 C 911.663 313.01 916.401 313.688 919.13 315.06" fill="rgb(23,181,235)"/></g><clipPath id="_clipPath_4huuWcA4A5uLh570huwYjBpKnHAaw6Nz"><path d=" M 976.203 294.524 L 976.203 312.559 L 984.828 312.559 L 984.828 321.576 L 992.05 321.576 C 992.081 321.837 992.105 322.099 992.131 322.36 C 992.582 327.273 991.724 331.804 989.754 335.678 L 989.092 336.867 C 988.696 337.579 988.233 338.248 987.744 338.901 C 987.256 339.552 987.083 339.913 986.776 340.346 C 981.566 346.202 973.8 349.021 964.833 349.021 C 944.975 349.021 928.123 340.224 920.664 320.461 C 915.373 321.004 910.297 319.647 907.983 315.132 C 911.668 313.005 916.404 313.687 919.133 315.058 L 911.904 294.524 L 940.133 312.559 L 949.15 312.559 L 949.15 294.524 L 976.203 294.524 Z " fill="rgb(255,255,255)"/></clipPath><g clip-path="url(#_clipPath_4huuWcA4A5uLh570huwYjBpKnHAaw6Nz)"><path d=" M 992.67 328.633 L 992.67 350.981 L 907.591 350.981 L 907.591 328.633" fill="rgb(0,0,0)" fill-opacity="0.17"/></g><clipPath id="_clipPath_woCxh5RMs0cXhvDCZL52dNobge3GDrcC"><path d=" M 976.203 294.524 L 976.203 312.559 L 984.828 312.559 L 984.828 321.576 L 992.05 321.576 C 992.081 321.837 992.105 322.099 992.131 322.36 C 992.582 327.273 991.724 331.804 989.754 335.678 L 989.092 336.867 C 988.696 337.579 988.233 338.248 987.744 338.901 C 987.256 339.552 987.083 339.913 986.776 340.346 C 981.566 346.202 973.8 349.021 964.833 349.021 C 944.975 349.021 928.123 340.224 920.664 320.461 C 915.373 321.004 910.297 319.647 907.983 315.132 C 911.668 313.005 916.404 313.687 919.133 315.058 L 911.904 294.524 L 940.133 312.559 L 949.15 312.559 L 949.15 294.524 L 976.203 294.524 Z " fill="rgb(255,255,255)"/></clipPath><g clip-path="url(#_clipPath_woCxh5RMs0cXhvDCZL52dNobge3GDrcC)"><path d=" M 962.388 348.978 C 967.696 346.459 970.61 343.034 972.231 339.296 L 988.357 340.003 L 980.124 350.981 L 962.388 348.978 Z " fill="rgb(212,237,241)"/></g><clipPath id="_clipPath_0WqAVSHybhqUXCxhZ2YshdwrRP1AZfkc"><path d=" M 976.203 294.524 L 976.203 312.559 L 984.828 312.559 L 984.828 321.576 L 992.05 321.576 C 992.081 321.837 992.105 322.099 992.131 322.36 C 992.582 327.273 991.724 331.804 989.754 335.678 L 989.092 336.867 C 988.696 337.579 988.233 338.248 987.744 338.901 C 987.256 339.552 987.083 339.913 986.776 340.346 C 981.566 346.202 973.8 349.021 964.833 349.021 C 944.975 349.021 928.123 340.224 920.664 320.461 C 915.373 321.004 910.297 319.647 907.983 315.132 C 911.668 313.005 916.404 313.687 919.133 315.058 L 911.904 294.524 L 940.133 312.559 L 949.15 312.559 L 949.15 294.524 L 976.203 294.524 Z " fill="rgb(255,255,255)"/></clipPath><g clip-path="url(#_clipPath_0WqAVSHybhqUXCxhZ2YshdwrRP1AZfkc)"><path d=" M 918.765 314.887 L 918.765 314.899 C 926.944 325.441 938.676 334.651 951.27 339.489 C 962.505 343.804 972.3 343.825 979.058 340.359 C 979.785 339.948 980.499 339.492 981.214 339.06 C 986.168 335.597 988.959 329.869 988.725 322.324 L 992.67 322.324 L 992.67 350.981 L 907.591 350.981 L 907.591 313.343 L 917.393 313.343 L 918.765 314.887 Z " fill="rgb(0,0,0)" fill-opacity="0.085"/></g><path d=" M 988.112 339.623 C 982.558 339.927 976.631 339.982 971.461 338.362" fill="none" vector-effect="non-scaling-stroke" stroke-width="0.853" stroke="rgb(57,77,84)" stroke-linejoin="miter" stroke-linecap="round" stroke-miterlimit="4"/><path d=" M 965.942 335.675 C 965.942 336.858 966.902 337.818 968.086 337.818 C 969.27 337.818 970.229 336.858 970.229 335.675 C 970.229 334.491 969.27 333.531 968.086 333.531 C 966.902 333.531 965.942 334.491 965.942 335.675 Z " fill="rgb(212,237,241)"/><g><path d=" M 967.53 334.243 C 967.717 334.351 967.844 334.554 967.844 334.786 C 967.844 335.132 967.563 335.412 967.217 335.412 C 966.98 335.412 966.774 335.28 966.667 335.086 C 966.592 335.267 966.551 335.466 966.551 335.675 C 966.551 336.522 967.238 337.21 968.086 337.21 C 968.933 337.21 969.621 336.522 969.621 335.675 C 969.621 334.827 968.933 334.139 968.086 334.139 C 967.89 334.139 967.702 334.176 967.53 334.243 L 967.53 334.243 Z " fill="rgb(57,77,84)"/><path d=" M 1006 329.089 L 906.287 329.089 C 908.458 328.538 913.156 327.794 912.381 324.949 C 916.329 329.517 925.85 328.154 928.253 325.901 C 930.928 329.782 946.505 328.307 947.591 325.284 C 950.946 329.22 961.34 329.22 964.695 325.284 C 965.782 328.307 981.358 329.782 984.034 325.901 C 986.437 328.154 995.957 329.517 999.905 324.949 C 999.13 327.794 1003.828 328.538 1006 329.089 Z " fill="rgb(57,77,84)"/></g></g></svg>