<?xml version="1.0" standalone="no"?><!-- Generator: Gravit.io --><svg xmlns="http://www.w3.org/2000/svg" xmlns:xlink="http://www.w3.org/1999/xlink" style="isolation:isolate" viewBox="433.08 373.517 77.698 83" width="77.698px" height="83px"><g><g><path d=" M 460.461 392.37 C 450.367 390.532 442.085 392.282 438.89 397.817 C 436.518 401.924 437.351 407.414 440.651 413.168" fill-rule="evenodd" fill="none"  stroke-width="3" stroke="rgb(33,213,250)" stroke-linejoin="round" stroke-linecap="round" stroke-miterlimit="4"/><path d=" M 446.122 420.547 C 450.298 425.136 455.833 429.594 462.357 433.361 C 477.909 442.339 494.053 444.487 501.72 439.259" fill-rule="evenodd" fill="none"  stroke-width="3" stroke="rgb(33,213,250)" stroke-linejoin="round" stroke-linecap="round" stroke-miterlimit="4"/><path d=" M 498.878 419.23 C 505.487 411.423 508.094 403.398 504.905 397.874 C 502.573 393.834 497.532 391.81 491.055 391.726" fill-rule="evenodd" fill="none"  stroke-width="3" stroke="rgb(33,213,250)" stroke-linejoin="round" stroke-linecap="round" stroke-miterlimit="4"/><path d=" M 481.792 392.732 C 475.678 394.042 468.981 396.62 462.39 400.425 C 446.379 409.669 436.325 423.077 437.689 432.375" fill-rule="evenodd" fill="none"  stroke-width="3" stroke="rgb(33,213,250)" stroke-linejoin="round" stroke-linecap="round" stroke-miterlimit="4"/><path d=" M 456.418 439.079 C 459.873 448.729 465.526 455.017 471.914 455.017 C 476.542 455.017 480.785 451.715 484.086 446.224" fill-rule="evenodd" fill="none"  stroke-width="3" stroke="rgb(33,213,250)" stroke-linejoin="round" stroke-linecap="round" stroke-miterlimit="4"/><path d=" M 488.072 437.104 C 489.903 431.252 490.961 424.334 490.961 416.921 C 490.961 398.73 484.586 383.517 476.06 379.731" fill-rule="evenodd" fill="none"  stroke-width="3" stroke="rgb(33,213,250)" stroke-linejoin="round" stroke-linecap="round" stroke-miterlimit="4"/></g><path d=" M 500.893 436.757 C 500.893 434.443 502.772 432.564 505.086 432.564 C 507.399 432.564 509.278 434.443 509.278 436.757 C 509.278 439.07 507.399 440.949 505.086 440.949 C 502.772 440.949 500.893 439.07 500.893 436.757 L 500.893 436.757 L 500.893 436.757 Z  M 434.58 436.757 C 434.58 434.443 436.459 432.564 438.772 432.564 C 441.086 432.564 442.965 434.443 442.965 436.757 C 442.965 439.07 441.086 440.949 438.772 440.949 C 436.459 440.949 434.58 439.07 434.58 436.757 L 434.58 436.757 L 434.58 436.757 Z  M 467.737 379.209 C 467.737 376.895 469.615 375.017 471.929 375.017 C 474.243 375.017 476.121 376.895 476.121 379.209 C 476.121 381.523 474.243 383.401 471.929 383.401 C 469.615 383.401 467.737 381.523 467.737 379.209 L 467.737 379.209 Z  M 468.118 417.32 C 468.118 415.217 469.826 413.509 471.929 413.509 C 474.032 413.509 475.74 415.217 475.74 417.32 C 475.74 419.423 474.032 421.131 471.929 421.131 C 469.826 421.131 468.118 419.423 468.118 417.32 Z " fill-rule="evenodd" fill="none"  stroke-width="3" stroke="rgb(33,213,250)" stroke-linejoin="round" stroke-linecap="round" stroke-miterlimit="4"/></g></svg>
