<?xml version="1.0" standalone="no"?><!-- Generator: Gravit.io --><svg xmlns="http://www.w3.org/2000/svg" xmlns:xlink="http://www.w3.org/1999/xlink" style="isolation:isolate" viewBox="259 152 220 219.999" width="220" height="219.999"><g><path d=" M 265.875 210.438 L 369 262 L 472.125 210.438 L 472.125 320.438 L 369 372 L 265.875 320.437 L 265.875 210.438 Z " fill="rgb(240,25,111)"/><path d=" M 369 372 L 369 262 L 272.75 213.875 L 265.875 213.875 L 265.875 320.438 L 369 372 Z " fill="rgb(236,18,105)"/><path d=" M 265.875 220.75 L 265.875 252.89 L 368.656 303.249 L 472.125 252.718 L 472.125 220.75 L 369 271.281 L 369 271.109 L 369 271.281 L 265.875 220.75 L 265.875 220.75 Z " fill="rgb(176,15,79)"/><path d=" M 259 206.828 L 369 152 L 479 206.828 L 479 214.047 L 369 268.875 L 259 214.219 L 259 206.828 Z " fill="rgb(255,56,136)"/><path d=" M 432.078 169.36 C 428.468 162.828 420.734 158.875 411.625 158.875 C 390.828 158.875 376.219 178.297 369 190.672 C 361.781 178.297 347 159.047 326.375 159.047 C 313.14 159.047 303.687 167.125 303.687 178.125 C 303.687 197.719 325.171 210.438 368.312 210.438 C 411.452 210.438 434.312 194.11 434.312 178.297 C 434.312 175.203 433.625 172.11 432.078 169.36 Z  M 330.844 190.501 C 326.031 187.235 324.313 183.626 324.313 181.219 C 324.313 178.297 327.063 176.063 331.016 176.063 C 340.297 176.063 347.688 188.266 351.812 196.688 C 340.984 195.829 334.625 192.906 330.844 190.501 Z  M 407.156 190.501 C 403.374 192.907 397.015 195.829 386.187 196.688 C 390.14 188.266 397.531 176.063 406.984 176.063 C 410.937 176.063 413.687 178.297 413.687 181.219 C 413.687 183.626 411.968 187.235 407.156 190.501 Z " fill="rgb(239,239,239)"/><path d=" M 259 207 L 369 260.797 L 479 207 L 479 242.578 L 368.656 296.375 L 259 242.578 L 259 207 Z " fill="rgb(247,26,114)"/><path d=" M 410.25 245.328 L 410.25 241.375 L 369 219.032 L 327.75 241.375 L 327.75 245.328 L 300.25 233.297 L 300.25 227.797 L 367.625 192.219 L 369 192.906 L 370.375 192.219 L 437.75 227.625 L 437.75 233.125 L 410.25 245.328 Z " fill="rgb(239,239,239)"/><path d=" M 410.25 241.375 L 410.25 351.203 L 437.75 337.453 L 437.75 227.625 L 410.25 241.375 Z " fill="rgb(220,220,220)"/><path d=" M 300.25 337.625 L 327.75 351.375 L 327.75 241.547 L 300.25 227.625 C 300.25 227.625 300.25 337.625 300.25 337.625 Z " fill="rgb(209,209,209)"/></g></svg>