<?xml version="1.0" standalone="no"?><!-- Generator: Gravit.io --><svg xmlns="http://www.w3.org/2000/svg" xmlns:xlink="http://www.w3.org/1999/xlink" style="isolation:isolate" viewBox="157.909 692.982 198.182 100" width="198.182" height="100"><g><path d=" M 338.97 773.774 L 277.536 773.774 C 275.441 773.774 273.888 771.827 274.357 769.784 L 286.428 717.095 C 287.067 714.229 288.924 712.19 291.86 712.19 L 352.943 712.19 C 354.964 712.19 356.461 714.068 356.01 716.037 L 343.666 770.03 C 343.166 772.221 341.217 773.774 338.97 773.774 Z  M 295.048 765.539 L 323.301 745.247 C 325.017 744.008 325.382 741.355 323.823 739.846 L 305.156 720.023 C 302.081 716.757 296.831 721.701 299.906 724.967 L 315.75 741.792 L 290.841 759.681 C 286.861 762.54 291.068 768.397 295.048 765.539 Z  M 329.589 758.521 L 314.594 758.521 C 310.274 758.521 310.274 765.046 314.594 765.046 L 329.589 765.046 C 333.845 765.046 333.845 758.521 329.589 758.521 Z " fill="rgb(195,219,15)"/><g><circle vector-effect="non-scaling-stroke" cx="207.90909088501695" cy="742.9823180817743" r="50.000000000000014" fill="rgb(67,74,84)"/><path d=" M 218.421 774.533 C 218.421 773.248 218.467 769.048 218.467 763.83 C 218.467 760.192 217.22 757.819 215.822 756.608 C 224.506 755.643 233.629 752.345 233.629 737.366 C 233.629 733.108 232.116 729.629 229.615 726.898 C 230.02 725.916 231.356 721.949 229.233 716.577 C 229.233 716.577 225.963 715.529 218.519 720.575 C 215.402 719.71 212.064 719.278 208.749 719.263 C 205.435 719.277 202.098 719.71 198.988 720.575 C 191.535 715.529 188.26 716.577 188.26 716.577 C 186.143 721.949 187.477 725.916 187.882 726.898 C 185.387 729.629 183.864 733.109 183.864 737.366 C 183.864 752.309 192.97 755.653 201.632 756.64 C 200.517 757.614 199.506 759.334 199.156 761.855 C 196.93 762.851 191.285 764.575 187.807 758.612 C 187.807 758.612 185.745 754.869 181.829 754.593 C 181.829 754.593 178.024 754.544 181.562 756.964 C 181.562 756.964 184.118 758.162 185.892 762.67 C 185.892 762.67 188.182 769.631 199.032 767.272 C 199.048 770.531 199.085 773.603 199.085 774.533 C 199.085 774.859 199.012 775.203 198.852 775.51 C 202.205 776.533 205.76 777.089 209.444 777.089 C 212.704 777.089 215.861 776.652 218.869 775.844 C 218.555 775.471 218.421 774.985 218.421 774.533 Z " fill="rgb(255,255,255)"/><g opacity="0.1"><path d=" M 172.554 778.338 C 181.602 787.386 194.102 792.982 207.909 792.982 C 235.523 792.982 257.909 770.596 257.909 742.982 C 257.909 729.175 252.313 716.675 243.265 707.627 L 172.554 778.338 Z " fill="rgb(35,31,32)"/></g></g></g></svg>