<?xml version="1.0" encoding="UTF-8" standalone="no"?><!-- Generator: Gravit.io --><svg xmlns="http://www.w3.org/2000/svg" xmlns:xlink="http://www.w3.org/1999/xlink" style="isolation:isolate" viewBox="275.5 1323.421 75 211.088" width="75pt" height="211.088pt"><g><g><circle vector-effect="non-scaling-stroke" cx="312.99999995185226" cy="1441.170770126414" r="37.50000001808985" fill="rgb(0,0,0)" fill-opacity="0.5"/><path d=" M 305.556 1453.699 C 306.103 1455.717 306.043 1457.599 305.481 1459.302 C 305.421 1459.489 305.346 1459.677 305.271 1459.864 C 305.196 1460.052 305.113 1460.232 305.031 1460.412 C 304.596 1461.312 304.011 1462.159 303.298 1462.939 C 301.116 1465.317 298.078 1466.217 296.773 1465.459 C 295.363 1464.642 296.068 1461.289 298.596 1458.619 C 301.311 1455.747 305.226 1453.902 305.226 1453.902 L 305.218 1453.894 C 305.331 1453.834 305.443 1453.774 305.563 1453.707 L 305.556 1453.699 Z  M 336.531 1419.762 C 334.836 1413.102 323.788 1410.912 313.341 1414.624 C 307.123 1416.829 300.388 1420.302 295.543 1424.832 C 289.783 1430.217 288.868 1434.904 289.251 1436.862 C 290.586 1443.769 300.051 1448.292 303.943 1451.637 L 303.943 1451.659 C 302.796 1452.222 294.396 1456.474 292.431 1460.817 C 290.353 1465.407 292.761 1468.692 294.351 1469.134 C 299.286 1470.507 304.348 1468.039 307.063 1463.982 C 309.688 1460.067 309.471 1455.012 308.331 1452.499 C 309.906 1452.087 311.736 1451.899 314.068 1452.169 C 320.646 1452.934 321.936 1457.044 321.688 1458.762 C 321.441 1460.479 320.061 1461.424 319.603 1461.709 C 319.138 1461.994 319.003 1462.092 319.041 1462.309 C 319.101 1462.617 319.311 1462.609 319.701 1462.542 C 320.241 1462.452 323.151 1461.147 323.278 1457.974 C 323.436 1453.947 319.573 1449.439 312.741 1449.559 C 309.928 1449.612 308.158 1449.874 306.876 1450.354 C 306.778 1450.249 306.688 1450.137 306.583 1450.032 C 302.361 1445.524 294.546 1442.337 294.876 1436.269 C 294.996 1434.064 295.761 1428.267 309.891 1421.224 C 321.463 1415.457 330.726 1417.047 332.323 1420.564 C 334.611 1425.589 327.373 1434.927 315.358 1436.269 C 310.783 1436.779 308.368 1435.009 307.768 1434.349 C 307.138 1433.652 307.041 1433.622 306.808 1433.749 C 306.426 1433.959 306.666 1434.574 306.808 1434.942 C 307.168 1435.872 308.638 1437.529 311.151 1438.354 C 313.356 1439.082 318.733 1439.479 325.236 1436.967 C 332.518 1434.147 338.203 1426.317 336.531 1419.769" fill="rgb(255,23,115)"/></g><g><path d=" M 310.702 1323.533 L 288.851 1334.458 C 288.497 1334.635 288.25 1334.988 288.25 1335.413 L 288.25 1383.604 C 288.25 1383.993 288.462 1384.382 288.851 1384.559 L 310.702 1395.484 C 311.409 1395.838 312.222 1395.308 312.222 1394.53 L 312.222 1324.487 C 312.222 1323.709 311.409 1323.179 310.702 1323.533 Z " fill="rgb(23,204,195)"/><path d=" M 315.298 1395.484 L 337.149 1384.559 C 337.503 1384.382 337.75 1384.029 337.75 1383.604 L 337.75 1360.163 C 337.75 1359.774 337.538 1359.385 337.149 1359.208 L 315.298 1348.283 C 314.591 1347.929 313.778 1348.459 313.778 1349.237 L 313.778 1394.53 C 313.778 1395.308 314.591 1395.838 315.298 1395.484 L 315.298 1395.484 Z " fill="rgb(18,155,148)"/></g><path d=" M 314.509 1489.18 L 314.509 1489.18 L 314.509 1489.18 Q 313.423 1489.18 311.729 1489.574 L 311.729 1489.574 L 311.729 1489.574 Q 310.035 1489.969 308.127 1490.956 L 308.127 1490.956 L 308.127 1490.956 Q 306.219 1491.943 304.312 1493.571 L 304.312 1493.571 L 304.312 1493.571 Q 302.404 1495.199 300.874 1497.666 L 300.874 1497.666 L 300.874 1497.666 Q 299.344 1500.134 298.374 1503.505 L 298.374 1503.505 L 298.374 1503.505 Q 297.404 1506.877 297.404 1511.351 L 297.404 1511.351 L 297.404 1511.351 Q 297.404 1514.969 298.144 1517.782 L 298.144 1517.782 L 298.144 1517.782 Q 298.884 1520.594 300.134 1522.699 L 300.134 1522.699 L 300.134 1522.699 Q 301.384 1524.805 303.012 1526.268 L 303.012 1526.268 L 303.012 1526.268 Q 304.64 1527.732 306.433 1528.637 L 306.433 1528.637 L 306.433 1528.637 Q 308.226 1529.541 310.019 1529.936 L 310.019 1529.936 L 310.019 1529.936 Q 311.812 1530.331 313.423 1530.331 L 313.423 1530.331 L 313.423 1530.331 Q 313.785 1530.331 314.131 1530.331 L 314.131 1530.331 L 314.131 1530.331 Q 314.476 1530.331 314.838 1530.265 L 314.838 1530.265 L 314.838 1530.265 Q 315.529 1530.068 316.466 1529.739 L 316.466 1529.739 L 316.466 1529.739 Q 317.404 1529.41 318.423 1528.851 L 318.423 1528.851 L 318.423 1528.851 Q 319.443 1528.291 320.43 1527.469 L 320.43 1527.469 L 320.43 1527.469 Q 321.417 1526.647 322.223 1525.479 L 322.223 1525.479 L 322.223 1525.479 Q 323.029 1524.311 323.555 1522.798 L 323.555 1522.798 L 323.555 1522.798 Q 324.081 1521.285 324.147 1519.311 L 324.147 1519.311 L 324.147 1519.311 Q 324.18 1517.502 323.736 1516.499 L 323.736 1516.499 L 323.736 1516.499 Q 323.292 1515.495 322.798 1514.969 L 322.798 1514.969 L 320.956 1515.199 L 320.956 1515.199 Q 319.509 1515.397 317.996 1515.758 L 317.996 1515.758 L 317.996 1515.758 Q 316.483 1516.12 315.134 1516.482 L 315.134 1516.482 L 315.134 1516.482 Q 313.785 1516.844 312.7 1517.107 L 312.7 1517.107 L 312.7 1517.107 Q 311.614 1517.37 310.989 1517.337 L 310.989 1517.337 L 310.989 1517.337 Q 310.496 1517.305 310.068 1517.173 L 310.068 1517.173 L 310.068 1517.173 Q 309.673 1517.074 309.262 1516.86 L 309.262 1516.86 L 309.262 1516.86 Q 308.851 1516.647 308.588 1516.252 L 308.588 1516.252 L 308.588 1516.252 Q 308.423 1516.351 308.325 1516.351 L 308.325 1516.351 L 308.325 1516.351 Q 308.226 1516.351 308.16 1516.318 L 308.16 1516.318 L 308.16 1516.318 Q 308.062 1516.285 308.029 1516.186 L 308.029 1516.186 L 308.029 1516.186 Q 307.996 1516.087 307.963 1515.956 L 307.963 1515.956 L 307.963 1515.956 Q 307.897 1515.627 307.897 1515.068 L 307.897 1515.068 L 307.897 1515.068 Q 307.733 1515.068 307.535 1514.936 L 307.535 1514.936 L 307.535 1514.936 Q 307.437 1514.87 307.371 1514.772 L 307.371 1514.772 L 307.371 1514.772 Q 307.206 1514.508 307.075 1514.245 L 307.075 1514.245 L 307.075 1514.245 Q 306.943 1513.982 307.108 1513.785 L 307.108 1513.785 L 307.108 1513.785 Q 307.173 1513.653 307.667 1513.374 L 307.667 1513.374 L 307.667 1513.374 Q 308.16 1513.094 309.344 1512.699 L 309.344 1512.699 L 309.344 1512.699 Q 310.529 1512.305 312.552 1511.795 L 312.552 1511.795 L 312.552 1511.795 Q 314.575 1511.285 317.733 1510.66 L 317.733 1510.66 L 317.733 1510.66 Q 321.812 1509.903 324.805 1509.64 L 324.805 1509.64 L 324.805 1509.64 Q 327.798 1509.377 329.673 1509.377 L 329.673 1509.377 L 329.673 1509.377 Q 330.726 1509.377 331.384 1509.426 L 331.384 1509.426 L 331.384 1509.426 Q 332.042 1509.476 332.371 1509.541 L 332.371 1509.541 L 332.371 1509.541 Q 333.127 1509.706 333.588 1510.018 L 333.588 1510.018 L 333.588 1510.018 Q 334.048 1510.331 334.312 1510.594 L 334.312 1510.594 L 334.312 1510.594 Q 334.443 1510.726 334.575 1510.923 L 334.575 1510.923 L 334.575 1510.923 Q 334.805 1511.219 335.134 1512.008 L 335.134 1512.008 L 335.134 1512.008 Q 335.496 1512.14 335.627 1512.403 L 335.627 1512.403 L 335.627 1512.403 Q 335.693 1512.535 335.66 1512.633 L 335.66 1512.633 L 335.66 1512.633 Q 335.594 1512.93 335.496 1513.423 L 335.496 1513.423 L 335.496 1513.423 Q 335.397 1513.916 335.2 1513.916 L 335.2 1513.916 L 335.2 1513.916 Q 335.101 1513.949 334.525 1513.982 L 334.525 1513.982 L 334.525 1513.982 Q 333.95 1514.015 332.996 1514.081 L 332.996 1514.081 L 332.996 1514.081 Q 332.042 1514.147 330.808 1514.229 L 330.808 1514.229 L 330.808 1514.229 Q 329.575 1514.311 328.193 1514.443 L 328.193 1514.443 L 328.193 1514.443 Q 328.851 1515.199 329.312 1516.252 L 329.312 1516.252 L 329.312 1516.252 Q 329.772 1517.305 329.937 1518.555 L 329.937 1518.555 L 329.937 1518.555 Q 330.167 1520.166 329.624 1521.976 L 329.624 1521.976 L 329.624 1521.976 Q 329.081 1523.785 327.946 1525.561 L 327.946 1525.561 L 327.946 1525.561 Q 326.812 1527.337 325.101 1528.966 L 325.101 1528.966 L 325.101 1528.966 Q 323.39 1530.594 321.269 1531.828 L 321.269 1531.828 L 321.269 1531.828 Q 319.147 1533.061 316.647 1533.785 L 316.647 1533.785 L 316.647 1533.785 Q 314.147 1534.508 311.417 1534.508 L 311.417 1534.508 L 311.417 1534.508 Q 309.838 1534.508 308.111 1534.278 L 308.111 1534.278 L 308.111 1534.278 Q 306.384 1534.048 304.575 1533.472 L 304.575 1533.472 L 304.575 1533.472 Q 302.765 1532.897 300.907 1531.943 L 300.907 1531.943 L 300.907 1531.943 Q 299.048 1530.989 297.206 1529.541 L 297.206 1529.541 L 297.206 1529.541 Q 293.687 1526.811 291.976 1522.485 L 291.976 1522.485 L 291.976 1522.485 Q 290.265 1518.16 290.331 1511.877 L 290.331 1511.877 L 290.331 1511.877 Q 290.331 1509.212 291.203 1506.351 L 291.203 1506.351 L 291.203 1506.351 Q 292.075 1503.489 293.67 1500.742 L 293.67 1500.742 L 293.67 1500.742 Q 295.265 1497.995 297.486 1495.512 L 297.486 1495.512 L 297.486 1495.512 Q 299.706 1493.028 302.42 1491.12 L 302.42 1491.12 L 302.42 1491.12 Q 305.134 1489.212 308.275 1488.045 L 308.275 1488.045 L 308.275 1488.045 Q 311.417 1486.877 314.838 1486.745 L 314.838 1486.745 L 314.838 1486.745 Q 315.923 1486.745 317.354 1486.91 L 317.354 1486.91 L 317.354 1486.91 Q 318.785 1487.074 320.315 1487.453 L 320.315 1487.453 L 320.315 1487.453 Q 321.844 1487.831 323.325 1488.423 L 323.325 1488.423 L 323.325 1488.423 Q 324.805 1489.015 326.038 1489.87 L 326.038 1489.87 L 326.038 1489.87 Q 327.272 1490.726 328.094 1491.86 L 328.094 1491.86 L 328.094 1491.86 Q 328.917 1492.995 329.114 1494.443 L 329.114 1494.443 L 329.114 1494.443 Q 329.344 1496.12 328.9 1497.469 L 328.9 1497.469 L 328.9 1497.469 Q 328.456 1498.818 327.683 1499.739 L 327.683 1499.739 L 327.683 1499.739 Q 326.91 1500.66 326.022 1501.137 L 326.022 1501.137 L 326.022 1501.137 Q 325.134 1501.614 324.476 1501.581 L 324.476 1501.581 L 324.476 1501.581 Q 324.015 1501.877 323.687 1502.009 L 323.687 1502.009 L 323.687 1502.009 Q 323.358 1502.14 323.094 1502.173 L 323.094 1502.173 L 323.094 1502.173 Q 322.798 1502.239 322.601 1502.173 L 322.601 1502.173 L 322.601 1502.173 Q 322.371 1502.074 322.239 1501.91 L 322.239 1501.91 L 322.239 1501.91 Q 322.108 1501.745 322.058 1501.532 L 322.058 1501.532 L 322.058 1501.532 Q 322.009 1501.318 322.173 1500.956 L 322.173 1500.956 L 322.173 1500.956 Q 321.889 1501.374 321.593 1501.506 Q 321.106 1501.724 320.967 1501.637 C 320.829 1501.55 320.562 1501.482 321.121 1500.907 L 321.121 1500.907 L 321.121 1500.907 Q 321.68 1500.331 322.108 1499.344 L 322.108 1499.344 L 322.108 1499.344 Q 322.305 1498.653 322.486 1497.765 L 322.486 1497.765 L 322.486 1497.765 Q 322.667 1496.877 322.667 1495.923 L 322.667 1495.923 L 322.667 1495.923 Q 322.667 1494.114 322.009 1492.831 L 322.009 1492.831 L 322.009 1492.831 Q 321.351 1491.548 320.249 1490.726 L 320.249 1490.726 L 320.249 1490.726 Q 319.147 1489.903 317.667 1489.541 L 317.667 1489.541 L 317.667 1489.541 Q 316.187 1489.18 314.509 1489.18 Z " fill="rgb(255,23,115)"/></g></svg>