<?xml version="1.0" standalone="no"?><!-- Generator: Gravit.io --><svg xmlns="http://www.w3.org/2000/svg" xmlns:xlink="http://www.w3.org/1999/xlink" style="isolation:isolate" viewBox="802.433 142 175.134 110.344" width="175.134" height="110.344"><g><g><path d=" M 868.703 152 L 840.27 152 L 827.087 197 L 840.27 242 L 868.703 242 C 874.518 242 879.25 237.269 879.25 231.453 L 879.25 162.547 C 879.25 156.731 874.518 152 868.703 152 Z " fill="rgb(86,77,128)"/><path d=" M 812.98 152 C 807.165 152 802.433 156.731 802.433 162.547 L 802.433 231.453 C 802.433 237.269 807.165 242 812.98 242 L 840.27 242 L 840.27 152 L 812.98 152 Z " fill="rgb(128,98,167)"/><path d=" M 857.014 189.48 C 853.887 186.831 849.65 185.719 845.391 186.428 L 840.27 187.282 L 834.997 192.701 L 840.27 197.974 L 847.125 196.832 C 848.338 196.629 849.429 196.877 850.197 197.527 C 850.965 198.178 851.388 199.214 851.388 200.443 L 851.388 231.453 L 861.935 231.453 L 861.935 200.443 C 861.935 196.125 860.142 192.129 857.014 189.48 Z " fill="rgb(239,246,249)"/><g><path d=" M 830.295 188.944 L 830.295 162.547 L 819.748 162.547 L 819.748 201.395 L 840.27 197.974 L 840.27 187.282 L 830.295 188.944 Z " fill="rgb(255,255,255)"/><path d=" M 819.748 213.348 L 830.295 221.258 L 819.748 229.168 L 819.748 213.348 Z " fill="rgb(255,255,255)"/></g><path d=" M 860.732 173.245 C 861.525 169.776 861.935 166.193 861.935 162.547 L 851.388 162.547 C 851.388 166.265 850.835 169.856 849.812 173.245 L 860.732 173.245 Z " fill="rgb(239,246,249)"/></g><g><path d=" M 924.628 245.031 Q 926.718 246.77 929.33 248.035 Q 927.024 248.925 925.671 250.431 Q 922.841 252.879 921.814 251.507 C 921.203 250.69 922.932 248.747 922.91 248.61 C 922.886 248.457 921.738 249.738 921.298 251.138 Q 920.915 250.996 920.874 250.803 Q 920.459 250.278 920.483 249.314 Q 920.839 247.831 921.912 247.063 Q 923.295 245.871 924.628 245.031 Z  M 964.304 244.353 Q 967.949 246.84 967.852 249.51 Q 967.812 250.609 966.953 250.697 Q 966.719 249.8 965.463 248.218 Q 966.333 249.404 966.677 250.92 Q 966.249 251.451 965.248 251.41 Q 964.025 250.988 963.349 250.019 Q 962.522 248.947 961.567 248.003 Q 961.08 247.362 960.565 247.114 Q 962.641 245.94 964.304 244.353 Z  M 919.238 207.974 C 919.727 208.241 919.613 211.724 919.3 212.318 C 918.912 213.053 915.16 214.496 914.3 213.724 Q 913.233 212.767 915.612 211.619 Q 913.76 212.808 913.534 212.521 C 912.501 211.211 917.068 207.199 919.238 207.974 Z " fill-rule="evenodd" fill="rgb(228,219,238)" vector-effect="non-scaling-stroke" stroke-width="0.688" stroke="rgb(0,0,0)" stroke-opacity="100" stroke-linejoin="round" stroke-linecap="square" stroke-miterlimit="3"/><path d=" M 917.269 176.846 C 917.269 174.9 918.849 173.32 920.795 173.32 C 922.741 173.32 924.321 174.9 924.321 176.846 C 924.321 178.792 922.741 180.372 920.795 180.372 C 918.849 180.372 917.269 178.792 917.269 176.846 Z  M 963.643 177.185 C 963.643 175.239 965.223 173.659 967.169 173.659 C 969.115 173.659 970.694 175.239 970.694 177.185 C 970.694 179.131 969.115 180.711 967.169 180.711 C 965.223 180.711 963.643 179.131 963.643 177.185 Z " fill-rule="evenodd" fill="rgb(0,0,0)"/><path d=" M 919.178 181.851 Q 913.45 177.255 916.219 172.897 C 918.507 169.294 923.747 170.657 925.314 171.748 C 929.615 168.297 936.211 166.166 943.288 166.166 C 950.401 166.166 959.706 167.957 963.988 172.175 C 965.719 171.198 970.504 170.126 972.501 173.784 Q 974.961 178.289 969.151 182.77 Q 970.559 189.028 970.484 196.768 Q 970.132 204.885 970.632 212.392 Q 971.427 218.204 971.345 224.649 Q 971.068 237.701 964.234 244.318 Q 956.875 251.177 942.466 250.865 Q 929.956 250.355 923.416 243.876 Q 917.636 237.77 918.286 225.236 Q 918.457 220.826 918.873 216.661 Q 919.292 212.714 919.186 208.242 Q 919.012 203.717 918.56 199.47 Q 918.106 195.128 918.129 190.307 Q 918.212 185.587 919.178 181.851 Z  M 922.88 174.16 Q 920.08 173.051 919.121 174.448 Q 917.744 176.687 920.184 178.788 Q 921.255 176.165 922.88 174.16 Z  M 966.159 174.809 Q 968.671 174.123 969.485 175.495 Q 970.781 177.68 968.31 179.588 Q 968.224 179.307 968.134 179.03 Q 967.38 176.685 966.159 174.809 Z " fill-rule="evenodd" fill="rgb(23,204,195)" vector-effect="non-scaling-stroke" stroke-width="0.688" stroke="rgb(0,0,0)" stroke-linejoin="miter" stroke-linecap="square" stroke-miterlimit="3"/><g><path d=" M 946.159 184.333 C 946.159 180.236 949.729 176.911 954.126 176.911 C 958.524 176.911 962.093 180.236 962.093 184.333 C 962.093 188.429 958.524 191.755 954.126 191.755 C 949.729 191.755 946.159 188.429 946.159 184.333 Z  M 925.619 184.333 C 925.619 180.236 929.189 176.911 933.586 176.911 C 937.983 176.911 941.553 180.236 941.553 184.333 C 941.553 188.429 937.983 191.755 933.586 191.755 C 929.189 191.755 925.619 188.429 925.619 184.333 Z " fill-rule="evenodd" fill="rgb(255,241,241)" vector-effect="non-scaling-stroke" stroke-width="0.688" stroke="rgb(0,0,0)" stroke-opacity="100" stroke-linejoin="miter" stroke-linecap="square" stroke-miterlimit="3"/><path d=" M 946.159 184.333 C 946.159 180.236 949.729 176.911 954.126 176.911 C 958.524 176.911 962.093 180.236 962.093 184.333 C 962.093 188.429 958.524 191.755 954.126 191.755 C 949.729 191.755 946.159 188.429 946.159 184.333 Z  M 925.619 184.333 C 925.619 180.236 929.189 176.911 933.586 176.911 C 937.983 176.911 941.553 180.236 941.553 184.333 C 941.553 188.429 937.983 191.755 933.586 191.755 C 929.189 191.755 925.619 188.429 925.619 184.333 Z " fill-rule="evenodd" fill="rgb(255,241,241)" vector-effect="non-scaling-stroke" stroke-width="0.688" stroke="rgb(0,0,0)" stroke-opacity="100" stroke-linejoin="miter" stroke-linecap="square" stroke-miterlimit="3"/><path d=" M 951.697 184.435 C 951.697 183.15 952.758 182.107 954.065 182.107 C 955.372 182.107 956.433 183.15 956.433 184.435 C 956.433 185.72 955.372 186.763 954.065 186.763 C 952.758 186.763 951.697 185.72 951.697 184.435 Z  M 954.369 185.175 C 954.369 184.842 954.627 184.572 954.945 184.572 C 955.264 184.572 955.522 184.842 955.522 185.175 C 955.522 185.507 955.264 185.777 954.945 185.777 C 954.627 185.777 954.369 185.507 954.369 185.175 Z  M 931.245 184.435 C 931.245 183.15 932.306 182.107 933.613 182.107 C 934.919 182.107 935.98 183.15 935.98 184.435 C 935.98 185.72 934.919 186.763 933.613 186.763 C 932.306 186.763 931.245 185.72 931.245 184.435 Z  M 933.916 185.175 C 933.916 184.842 934.175 184.572 934.493 184.572 C 934.811 184.572 935.07 184.842 935.07 185.175 C 935.07 185.507 934.811 185.777 934.493 185.777 C 934.175 185.777 933.916 185.507 933.916 185.175 Z " fill-rule="evenodd" fill="rgb(1,1,1)"/></g><g><path d=" M 947.557 191.731 Q 950.816 193.019 950.543 194.875 C 950.27 196.731 949.369 196.97 948.301 196.861 Q 945.964 196.096 944.121 196.096 C 942.277 196.096 941.497 196.769 940.289 196.815 Q 938.402 196.232 938.256 194.452 C 938.111 192.672 939.848 191.991 940.704 191.888 Q 942.221 193.082 943.958 193.055 C 945.358 193.074 946.581 192.821 947.557 191.731 L 947.557 191.731 Z  M 944.269 196.144 L 944.197 200.239 Q 942.944 201.54 942.043 201.481 C 941.142 201.422 940.406 198.152 940.747 197.052 C 941.07 196.468 942.881 196.216 944.269 196.144 Z  M 944.341 196.12 Q 946.385 196.222 947.376 196.571 C 948.18 197.509 947.467 201.791 946.642 201.773 C 945.817 201.754 944.234 200.268 944.245 200.191 L 944.341 196.12 Z " fill-rule="evenodd" fill="rgb(251,241,228)" vector-effect="non-scaling-stroke" stroke-width="0.832" stroke="rgb(0,0,0)" stroke-opacity="100" stroke-linejoin="miter" stroke-linecap="square" stroke-miterlimit="3"/><path d=" M 940.619 191.43 C 940.619 190.463 942.163 189.678 944.065 189.678 C 945.967 189.678 947.511 190.463 947.511 191.43 C 947.511 192.397 945.967 193.182 944.065 193.182 C 942.163 193.182 940.619 192.397 940.619 191.43 Z " fill="rgb(1,1,1)"/></g><g><g><path d=" M 949.734 142.001 C 953.216 142.357 955.006 153.029 955.006 166.141 C 955.006 167.677 954.968 169.18 954.894 170.637 L 947.577 166.145 L 949.734 142.001 Z " fill="rgb(185,1,90)"/><path d=" M 939.092 142 L 949.736 142 L 947.843 166.25 L 940.984 166.25 L 939.092 142 Z " fill="rgb(224,8,115)"/></g><path d=" M 936.83 202.815 L 935.474 196.026 C 924.956 200.137 922.723 190.086 923.87 183.418 C 925.347 174.832 936.844 169.758 943.062 181.878 L 945.029 181.878 C 949.153 172.155 960.459 173.637 963.965 182.132 C 967.471 190.628 961.442 201.941 952.78 196.797 L 952.532 201.693 C 964.689 205.004 971.316 205.078 970.935 195.606 C 970.695 189.638 973.667 164.486 943.819 164.966 C 913.97 165.446 917.279 193.229 918.178 198.416 C 919.077 203.604 927.056 208.224 936.83 202.815 Z " fill="rgb(185,1,90)"/><path d=" M 933.272 196.713 C 931.494 197.116 930.004 197.05 928.769 196.637 C 921.939 196.77 920.493 188.712 921.462 183.074 C 922.459 177.284 928.012 173.091 933.429 174.693 C 936.674 174.675 940.124 176.556 942.737 181.271 C 945.201 175.756 950.029 173.989 954.308 175.158 C 958.231 175.207 962.147 177.727 963.965 182.132 C 967.142 189.83 962.33 198.89 954.969 196.671 C 954.181 196.513 952.693 196.253 952.657 196.19 L 952.532 201.693 C 954.985 202.361 957.213 202.897 959.205 203.251 C 965.514 203.913 968.798 202.009 968.527 195.262 C 968.312 189.895 970.693 169.015 949.469 165.211 C 947.731 165.019 945.851 164.933 943.819 164.966 C 913.97 165.446 917.279 193.229 918.178 198.416 C 918.67 201.254 921.28 203.922 925.142 204.873 C 927.873 205.014 931.04 204.343 934.422 202.472 L 933.272 196.713 Z " fill="rgb(245,0,117)"/></g><g><path d=" M 913.039 191.904 Q 915.317 191.821 932.316 201.39 Q 932.013 232.714 930.489 234.858 C 928.965 237.002 920.384 243.494 917.645 243.56 C 914.907 243.626 905.182 239.029 903.765 237.562 Q 902.349 236.095 895.433 204.509 Q 910.761 191.988 913.039 191.904 Z " fill="rgb(245,0,117)"/><path d=" M 932.316 201.39 Q 932.013 232.714 930.489 234.858 C 928.965 237.002 920.384 243.494 917.645 243.56 C 915.757 243.605 910.546 241.434 907.036 239.601 C 910.344 241.184 914.297 242.722 915.889 242.683 C 918.628 242.618 927.209 236.126 928.733 233.981 Q 930.261 231.719 930.564 200.395 Q 932.053 201.256 932.316 201.39 Z " fill="rgb(185,1,90)"/><path d=" M 913.853 218.015 L 913.853 218.015 Q 915.866 217.822 917.57 218.611 L 917.57 218.611 L 917.57 218.611 Q 919.273 219.401 920.361 221.007 L 920.361 221.007 L 920.361 221.007 Q 921.448 222.613 921.654 224.749 L 921.654 224.749 L 921.654 224.749 Q 921.86 226.885 921.099 228.669 L 921.099 228.669 L 921.099 228.669 Q 920.337 230.453 918.816 231.553 L 918.816 231.553 L 918.816 231.553 Q 917.294 232.654 915.281 232.847 L 915.281 232.847 L 915.281 232.847 Q 913.268 233.041 911.544 232.254 L 911.544 232.254 L 911.544 232.254 Q 909.819 231.466 908.732 229.86 L 908.732 229.86 L 908.732 229.86 Q 907.644 228.254 907.438 226.118 L 907.438 226.118 L 907.438 226.118 Q 907.233 223.981 907.994 222.198 L 907.994 222.198 L 907.994 222.198 Q 908.755 220.414 910.297 219.312 L 910.297 219.312 L 910.297 219.312 Q 911.84 218.209 913.853 218.015 L 913.853 218.015 Z  M 914.021 219.762 L 914.021 219.762 Q 912.521 219.906 911.406 220.708 L 911.406 220.708 L 911.406 220.708 Q 910.291 221.51 909.747 222.858 L 909.747 222.858 L 909.747 222.858 Q 909.203 224.206 909.37 225.932 L 909.37 225.932 L 909.37 225.932 Q 909.534 227.637 910.326 228.867 L 910.326 228.867 L 910.326 228.867 Q 911.118 230.097 912.366 230.671 L 912.366 230.671 L 912.366 230.671 Q 913.613 231.246 915.113 231.101 L 915.113 231.101 L 915.113 231.101 Q 916.592 230.959 917.706 230.147 L 917.706 230.147 L 917.706 230.147 Q 918.82 229.334 919.364 227.986 L 919.364 227.986 L 919.364 227.986 Q 919.908 226.638 919.744 224.933 L 919.744 224.933 L 919.744 224.933 Q 919.578 223.207 918.786 221.988 L 918.786 221.988 L 918.786 221.988 Q 917.995 220.768 916.747 220.194 L 916.747 220.194 L 916.747 220.194 Q 915.5 219.619 914.021 219.762 L 914.021 219.762 Z  M 912.451 200.914 L 912.451 200.914 Q 914.978 200.671 916.814 201.759 L 916.814 201.759 L 916.814 201.759 Q 918.65 202.847 919.454 204.946 L 919.454 204.946 L 917.482 205.136 L 917.482 205.136 Q 916.841 203.871 915.562 203.185 L 915.562 203.185 L 915.562 203.185 Q 914.284 202.5 912.64 202.658 L 912.64 202.658 L 912.64 202.658 Q 911.161 202.801 910.056 203.602 L 910.056 203.602 L 910.056 203.602 Q 908.952 204.402 908.407 205.74 L 908.407 205.74 L 908.407 205.74 Q 907.862 207.078 908.028 208.804 L 908.028 208.804 L 908.028 208.804 Q 908.198 210.571 908.999 211.789 L 908.999 211.789 L 908.999 211.789 Q 909.801 213.008 911.069 213.58 L 911.069 213.58 L 911.069 213.58 Q 912.337 214.153 913.898 214.003 L 913.898 214.003 L 913.898 214.003 Q 915.234 213.874 916.288 213.192 L 916.288 213.192 L 916.288 213.192 Q 917.341 212.51 917.944 211.343 L 917.944 211.343 L 917.944 211.343 Q 918.547 210.175 918.549 208.682 L 918.549 208.682 L 912.858 209.23 L 912.724 207.833 L 919.996 207.133 L 920.162 208.859 L 920.162 208.859 Q 920.143 210.602 919.395 212.084 L 919.395 212.084 L 919.395 212.084 Q 918.646 213.566 917.225 214.532 L 917.225 214.532 L 917.225 214.532 Q 915.805 215.498 913.894 215.682 L 913.894 215.682 L 913.894 215.682 Q 911.799 215.884 910.106 215.104 L 910.106 215.104 L 910.106 215.104 Q 908.414 214.323 907.359 212.735 L 907.359 212.735 L 907.359 212.735 Q 906.305 211.147 906.097 208.99 L 906.097 208.99 L 906.097 208.99 Q 905.889 206.833 906.622 205.073 L 906.622 205.073 L 906.622 205.073 Q 907.354 203.312 908.865 202.213 L 908.865 202.213 L 908.865 202.213 Q 910.377 201.114 912.451 200.914 L 912.451 200.914 Z " fill-rule="evenodd" fill="rgb(232,230,192)"/></g><g><g><path d=" M 969.368 172.669 L 973.889 170.43 L 977.567 173.899 L 970.664 211.585 L 965.248 210.772 L 969.368 172.669 Z " fill="rgb(225,223,150)"/><path d=" M 973.888 170.438 L 967.906 211.15 L 965.248 210.726 L 969.368 172.674 L 973.888 170.438 Z " fill="rgb(232,230,192)"/></g><g><path d=" M 965.119 220.281 L 966.221 212.934 L 961.254 212.188 L 961.713 209.127 L 974.412 211.032 L 973.953 214.094 L 969.283 213.393 L 968.063 220.824 C 968.511 221.338 968.739 222.037 968.63 222.764 C 968.433 224.078 967.206 224.985 965.892 224.788 C 964.578 224.591 963.671 223.363 963.868 222.049 C 963.986 221.266 964.469 220.627 965.119 220.281 Z " fill="rgb(236,170,38)"/><path d=" M 968.058 210.079 L 961.713 209.127 L 961.254 212.188 L 966.221 212.934 L 965.119 220.281 C 964.469 220.627 963.986 221.266 963.868 222.049 C 963.673 223.353 964.564 224.571 965.861 224.783 L 968.058 210.079 Z " fill="rgb(244,182,57)"/></g><path d=" M 970.846 214.178 Q 967.454 214.029 966.408 215.044 C 965.362 216.059 965.244 216.951 965.836 217.235 C 966.381 216.901 967.066 216.431 967.064 216.453 C 967.063 216.475 966.233 216.828 966.031 217.5 C 965.83 218.172 965.864 218.617 966.991 218.676 Q 969.922 218.499 971.207 217.723 Q 970.846 214.178 970.846 214.178 Z " fill-rule="evenodd" fill="rgb(251,241,228)" vector-effect="non-scaling-stroke" stroke-width="0.698" stroke="rgb(0,0,0)" stroke-linejoin="miter" stroke-linecap="square" stroke-miterlimit="3"/></g></g></g></svg>