<?xml version="1.0" encoding="UTF-8" standalone="no"?><!-- Generator: Gravit.io --><svg xmlns="http://www.w3.org/2000/svg" xmlns:xlink="http://www.w3.org/1999/xlink" style="isolation:isolate" viewBox="40 380 106.903 106.903" width="106.903pt" height="106.903pt"><path d=" M 64.85 414.532 C 61.923 411.605 61.923 406.852 64.85 403.925 C 67.777 400.998 72.529 400.998 75.456 403.925 C 78.383 406.852 78.383 411.605 75.456 414.532 C 72.529 417.459 67.777 417.459 64.85 414.532 L 64.85 414.532 L 64.85 414.532 L 64.85 414.532 Z  M 42.195 437.186 C 39.268 434.259 39.268 429.507 42.195 426.58 C 45.122 423.653 49.875 423.653 52.802 426.58 C 55.729 429.507 55.729 434.259 52.802 437.186 C 49.875 440.113 45.122 440.113 42.195 437.186 L 42.195 437.186 L 42.195 437.186 L 42.195 437.186 Z  M 86.58 392.802 C 83.653 389.875 83.653 385.122 86.58 382.195 C 89.507 379.268 94.259 379.268 97.186 382.195 C 100.113 385.122 100.113 389.875 97.186 392.802 C 94.259 395.729 89.507 395.729 86.58 392.802 L 86.58 392.802 L 86.58 392.802 Z  M 114.871 444.258 C 116.278 445.665 117.063 447.581 117.063 449.561 C 117.063 451.555 116.271 453.464 114.871 454.864 C 113.464 456.272 111.555 457.064 109.561 457.064 C 107.581 457.064 105.672 456.272 104.264 454.864 L 78.851 429.451 C 77.444 428.044 76.652 426.135 76.652 424.155 C 76.652 422.161 77.444 420.252 78.851 418.844 C 80.251 417.444 82.16 416.652 84.154 416.652 C 86.134 416.652 88.05 417.437 89.458 418.844 L 114.871 444.258 L 114.871 444.258 Z  M 101.04 407.262 C 99.633 405.855 98.841 403.946 98.848 401.959 C 98.841 399.972 99.633 398.063 101.04 396.655 C 102.447 395.248 104.356 394.456 106.343 394.463 C 108.33 394.456 110.239 395.248 111.647 396.655 L 135.519 420.527 C 142.809 427.818 146.903 437.71 146.903 448.02 C 146.903 458.329 142.802 468.229 135.519 475.512 C 128.228 482.802 118.329 486.903 108.019 486.903 C 97.71 486.903 87.817 482.809 80.527 475.519 L 56.655 451.647 C 55.248 450.24 54.456 448.331 54.463 446.344 C 54.456 444.357 55.248 442.448 56.655 441.041 C 58.062 439.633 59.971 438.841 61.958 438.848 C 63.945 438.841 65.854 439.633 67.262 441.041 L 91.133 464.912 C 95.609 469.388 101.691 471.906 108.026 471.906 C 114.348 471.906 120.429 469.388 124.912 464.905 C 129.388 460.429 131.905 454.348 131.905 448.027 C 131.905 441.691 129.388 435.61 124.912 431.134 L 101.04 407.262 Z " fill-rule="evenodd" fill="rgb(250,7,108)"/></svg>