<?xml version="1.0" standalone="no"?><!-- Generator: Gravit.io --><svg xmlns="http://www.w3.org/2000/svg" xmlns:xlink="http://www.w3.org/1999/xlink" style="isolation:isolate" viewBox="387 799.982 230 230.035" width="230" height="230.035"><g><path d="M 391.587 903.918 L 490.918 804.587 C 497.034 798.471 506.965 798.471 513.082 804.587 L 612.413 903.918 C 618.529 910.034 618.529 919.965 612.413 926.082 L 513.082 1025.413 C 506.966 1031.529 497.035 1031.529 490.918 1025.413 L 391.587 926.082 C 385.471 919.966 385.471 910.034 391.587 903.918 Z" style="stroke:none;fill:#FF1773;stroke-miterlimit:10;"/><path d=" M 391.587 903.918 C 411.097 884.408 490.918 804.587 490.918 804.587 C 497.057 798.448 506.942 798.448 513.082 804.587 L 612.413 903.918 C 522.912 831.351 517.684 805.211 502 805.211 C 486.316 805.211 481.088 831.351 391.587 903.918 L 391.587 903.918 Z " fill="rgb(255,255,255)" fill-opacity="0.2"/><path d=" M 462.847 862.774 C 452.742 862.774 444.549 870.966 444.549 881.072 C 444.557 888.132 448.627 894.558 455.006 897.584 L 455.006 942.982 C 448.627 946.007 444.557 952.433 444.549 959.493 C 444.556 966.551 448.621 972.976 454.996 976.004 L 454.996 989.49 L 470.69 1005.184 L 470.69 976.004 C 477.068 972.979 481.138 966.553 481.146 959.493 C 481.138 957.404 480.772 955.332 480.064 953.366 L 535.141 898.289 C 537.107 898.996 539.179 899.363 541.269 899.371 C 546.122 899.371 550.776 897.443 554.208 894.011 C 557.639 890.579 559.567 885.925 559.567 881.072 C 559.566 870.966 551.374 862.774 541.269 862.774 C 531.163 862.774 522.971 870.966 522.971 881.072 C 522.975 883.16 523.338 885.233 524.042 887.199 L 470.69 940.561 L 470.69 897.584 C 477.069 894.558 481.138 888.132 481.146 881.072 C 481.146 876.219 479.218 871.565 475.786 868.133 C 472.355 864.701 467.7 862.774 462.847 862.774 L 462.847 862.774 Z " fill="rgb(0,0,0)" fill-opacity="0.2"/><path d=" M 462.789 857.492 C 452.683 857.492 444.491 865.684 444.491 875.79 C 444.499 882.85 448.568 889.275 454.947 892.301 L 454.947 937.699 C 448.568 940.725 444.499 947.15 444.491 954.21 C 444.497 961.268 448.562 967.693 454.937 970.722 L 454.937 989.428 L 470.631 1005.123 L 470.631 970.722 C 477.01 967.696 481.079 961.271 481.087 954.21 C 481.079 952.121 480.713 950.049 480.005 948.084 L 535.083 893.006 C 537.049 893.713 539.121 894.08 541.21 894.088 C 551.316 894.088 559.508 885.896 559.508 875.79 C 559.508 870.937 557.58 866.283 554.149 862.851 C 550.717 859.419 546.063 857.492 541.21 857.492 C 536.357 857.492 531.703 859.419 528.271 862.851 C 524.84 866.283 522.912 870.937 522.912 875.79 C 522.917 877.878 523.28 879.95 523.984 881.916 L 470.631 935.279 L 470.631 892.301 C 477.01 889.275 481.079 882.85 481.087 875.79 C 481.087 870.937 479.16 866.283 475.728 862.851 C 472.296 859.419 467.642 857.492 462.789 857.492 L 462.789 857.492 Z " fill="rgb(242,242,242)"/><path d=" M 391.587 926.082 C 411.097 945.592 490.918 1025.413 490.918 1025.413 C 497.057 1031.552 506.942 1031.552 513.081 1025.413 L 612.412 926.082 C 522.912 998.649 517.684 1024.789 502 1024.789 C 486.316 1024.789 481.087 998.649 391.587 926.082 Z " fill="rgb(0,0,0)" fill-opacity="0.2"/></g></svg>