<?xml version="1.0" standalone="no"?><!-- Generator: Gravit.io --><svg xmlns="http://www.w3.org/2000/svg" xmlns:xlink="http://www.w3.org/1999/xlink" style="isolation:isolate" viewBox="637.437 821.345 255.127 188.074" width="255.127" height="188.074"><g><path d=" M 819.015 991.092 L 741.556 991.092 L 664.096 991.092 C 655.974 991.092 652.677 985.381 656.738 978.347 L 695.468 911.265 L 734.198 844.184 C 738.259 837.15 744.853 837.15 748.914 844.184 L 787.644 911.265 L 826.374 978.347 C 830.435 985.381 827.137 991.092 819.015 991.092 Z " fill="none" vector-effect="non-scaling-stroke" stroke-width="11.709" stroke="rgb(0,198,143)" stroke-linejoin="miter" stroke-linecap="square" stroke-miterlimit="3"/><path d=" M 865.906 991.092 L 803.726 991.092 L 741.547 991.092 C 733.425 991.092 730.13 985.382 734.193 978.35 L 765.279 924.557 L 796.364 870.763 C 800.427 863.731 807.026 863.731 811.089 870.763 L 842.174 924.557 L 873.259 978.35 C 877.323 985.382 874.028 991.092 865.906 991.092 Z " fill="none" vector-effect="non-scaling-stroke" stroke-width="11.709" stroke="rgb(7,136,118)" stroke-linejoin="miter" stroke-linecap="square" stroke-miterlimit="3"/><path d=" M 818.985 990.708 L 780.11 990.9 L 741.234 991.092 C 733.202 991.131 729.97 985.533 734.02 978.597 L 753.624 945.025 L 780.566 898.888 L 807.052 944.762 L 826.261 978.034 C 830.277 984.989 827.017 990.669 818.985 990.708 Z " fill="none" vector-effect="non-scaling-stroke" stroke-width="12.218" stroke="rgb(43,72,94)" stroke-linejoin="miter" stroke-linecap="square" stroke-miterlimit="3"/></g></svg>