<?xml version="1.0" standalone="no"?><!-- Generator: Gravit.io --><svg xmlns="http://www.w3.org/2000/svg" xmlns:xlink="http://www.w3.org/1999/xlink" style="isolation:isolate" viewBox="22.5 0 405 450" width="405px" height="450px"><g><path d=" M 427.5 149.625 C 427.5 380.25 225 450 225 450 C 225 450 22.5 380.25 22.5 149.625 C 22.5 121.5 24.75 97.875 27 78.75 C 30.375 50.625 49.5 28.125 76.5 21.375 C 111.375 11.25 166.5 0 225 0 C 283.5 0 338.625 11.25 374.625 21.375 C 401.625 28.125 420.75 51.75 424.125 78.75 C 425.25 97.875 427.5 122.625 427.5 149.625 Z " fill="rgb(93,64,55)"/><path d=" M 225 33.75 C 280.125 33.75 331.875 45 365.625 54 C 379.125 57.375 388.125 68.625 390.375 83.25 C 392.625 104.625 393.75 127.125 393.75 149.625 C 393.75 325.125 264.375 396 225 412.875 C 185.625 394.875 56.25 324 56.25 149.625 C 56.25 127.125 57.375 104.625 59.625 83.25 C 60.75 68.625 70.875 57.375 84.375 54 C 118.125 45 169.875 33.75 225 33.75 Z  M 225 0 C 166.5 0 111.375 11.25 75.375 21.375 C 49.5 28.125 29.25 51.75 27 78.75 C 24.75 97.875 22.5 122.625 22.5 149.625 C 22.5 380.25 225 450 225 450 C 225 450 427.5 380.25 427.5 149.625 C 427.5 121.5 425.25 97.875 423 78.75 C 419.625 50.625 400.5 28.125 373.5 21.375 C 338.625 11.25 283.5 0 225 0 L 225 0 Z " fill="rgb(94,188,68)"/><path d=" M 232.222 382.668 L 223.749 379.866 C 223.749 379.866 224.825 337.07 209.387 334.061 C 199.207 322.263 210.955 -169.823 247.939 332.376 C 247.939 332.376 235.281 338.733 232.884 349.526 C 231.502 360.519 231.274 371.627 232.204 382.668" fill="rgb(203,203,203)"/><linearGradient id="_lgradient_0" x1="0" y1="0.5" x2="1" y2="0.5" gradientTransform="matrix(71.852,0,0,273.139,223.825,68.179)" gradientUnits="userSpaceOnUse"><stop offset="0%" stop-opacity="1" style="stop-color:rgb(61,148,57)"/></linearGradient><path d=" M 236.786 341.318 C 236.786 341.318 310.281 292.91 293.064 192.381 C 276.482 119.344 237.331 95.334 233.123 86.167 C 229.479 80.469 226.366 74.447 223.825 68.179 L 226.952 271.683 C 226.952 271.683 220.487 333.84 236.786 341.318 Z " fill="url(#_lgradient_0)"/><linearGradient id="_lgradient_1" x1="0" y1="0.5" x2="1" y2="0.5" gradientTransform="matrix(73.608,0,0,276.703,154.323,67.332)" gradientUnits="userSpaceOnUse"><stop offset="1.447749038445582e-14%" stop-opacity="1" style="stop-color:rgb(65,168,59)"/><stop offset="0.4000000000000144%" stop-opacity="1" style="stop-color:rgb(94,188,68)"/></linearGradient><path d=" M 219.465 344.035 C 219.465 344.035 150.523 297.005 154.487 214.022 C 158.452 131.039 207.148 90.234 216.654 82.833 C 221.194 78.99 223.722 73.277 223.514 67.332 C 227.812 76.562 227.118 205.215 227.569 220.252 C 229.335 278.787 224.325 332.985 219.501 344.035" fill="url(#_lgradient_1)"/></g></svg>