<?xml version="1.0" standalone="no"?><!-- Generator: Gravit.io --><svg xmlns="http://www.w3.org/2000/svg" xmlns:xlink="http://www.w3.org/1999/xlink" style="isolation:isolate" viewBox="255 929.277 100 98.166" width="100px" height="98.166px"><path d=" M 347.118 1005.2 C 342.632 1004.885 338.131 1005.534 333.917 1007.104 C 332.897 1007.504 331.265 1007.504 331.129 1008.804 C 331.673 1009.348 331.741 1010.232 332.217 1010.98 C 333.149 1012.557 334.345 1013.96 335.753 1015.13 C 337.181 1016.218 338.61 1017.306 340.106 1018.259 C 342.758 1019.891 345.752 1020.843 348.336 1022.475 C 349.832 1023.427 351.336 1024.651 352.824 1025.675 C 353.572 1026.219 354.048 1027.103 355 1027.443 L 355 1027.243 C 354.524 1026.631 354.388 1025.747 353.912 1025.067 C 353.232 1024.387 352.552 1023.775 351.872 1023.095 C 349.88 1020.456 347.494 1018.138 344.798 1016.224 C 342.622 1014.728 337.86 1012.688 336.975 1010.17 L 336.839 1010.034 C 338.433 1009.809 340.004 1009.445 341.534 1008.946 C 343.846 1008.334 345.954 1008.47 348.334 1007.858 C 349.431 1007.572 350.519 1007.255 351.598 1006.906 L 351.598 1006.294 C 350.374 1005.07 349.49 1003.438 348.198 1002.282 C 344.678 999.208 340.926 996.411 336.975 993.916 C 334.867 992.556 332.145 991.672 329.901 990.516 C 329.085 990.116 327.725 989.904 327.249 989.224 C 326.133 987.583 325.199 985.827 324.461 983.985 C 322.489 980.243 320.585 976.095 318.883 972.151 C 317.88 969.501 316.722 966.912 315.415 964.397 C 309.111 953.687 300.014 944.893 289.098 938.954 C 286.341 937.622 283.41 936.683 280.392 936.166 C 278.692 936.098 276.992 935.966 275.29 935.894 C 274.191 935.177 273.145 934.382 272.161 933.514 C 268.285 931.066 258.287 925.76 255.429 932.766 C 253.593 937.186 258.149 941.54 259.713 943.784 C 261.03 945.369 262.192 947.077 263.181 948.884 C 263.657 950.04 263.793 951.264 264.269 952.484 C 265.265 955.591 266.446 958.634 267.805 961.599 C 268.538 963.065 269.379 964.474 270.321 965.815 C 270.865 966.563 271.817 966.903 272.022 968.127 C 271.269 969.747 270.742 971.463 270.457 973.227 C 268.009 980.913 268.961 990.428 272.429 996.08 C 273.518 997.78 276.102 1001.522 279.572 1000.092 C 282.632 998.868 281.952 994.992 282.836 991.59 C 283.036 990.774 282.904 990.23 283.312 989.686 L 283.312 989.822 C 284.264 991.726 285.216 993.562 286.1 995.466 C 288.527 998.968 291.515 1002.048 294.942 1004.58 C 296.574 1005.804 297.866 1007.912 299.908 1008.66 L 299.908 1008.46 L 299.772 1008.46 C 299.316 1007.937 298.79 1007.479 298.208 1007.1 C 296.92 1005.839 295.738 1004.474 294.672 1003.02 C 291.794 999.112 289.246 994.972 287.054 990.642 C 285.966 988.534 285.014 986.222 284.13 984.111 C 283.73 983.295 283.73 982.071 283.042 981.663 C 281.786 983.079 280.692 984.63 279.778 986.288 C 278.678 989.608 278.037 993.064 277.874 996.558 C 277.602 996.626 277.738 996.558 277.602 996.694 C 275.426 996.15 274.678 993.906 273.862 992 C 271.746 986.162 271.532 979.806 273.25 973.839 C 273.726 972.411 275.766 967.921 274.95 966.561 C 274.55 965.269 273.182 964.521 272.434 963.501 C 271.487 962.128 270.667 960.671 269.985 959.149 C 268.353 955.349 267.537 951.122 265.769 947.314 C 264.789 945.474 263.651 943.722 262.369 942.078 C 260.954 940.434 259.702 938.657 258.629 936.772 C 258.289 936.024 257.813 934.8 258.357 933.984 C 258.443 933.511 258.831 933.151 259.309 933.1 C 260.193 932.352 262.709 933.3 263.593 933.712 C 265.955 934.597 268.213 935.737 270.327 937.112 C 271.279 937.792 272.299 939.084 273.528 939.424 L 274.956 939.424 C 277.132 939.9 279.58 939.56 281.622 940.172 C 285.072 941.321 288.365 942.898 291.422 944.866 C 300.43 950.605 307.752 958.632 312.643 968.127 C 313.459 969.691 313.799 971.127 314.547 972.751 C 315.975 976.083 317.747 979.485 319.171 982.751 C 320.423 985.966 322.044 989.024 323.999 991.866 C 325.019 993.294 329.101 994.042 330.937 994.79 C 332.534 995.342 334.101 995.977 335.631 996.694 C 337.944 998.122 340.256 999.754 342.432 1001.318 C 343.52 1002.134 346.92 1003.834 347.124 1005.194 L 347.118 1005.2 Z  M 277.742 946.094 C 276.801 946.085 275.864 946.2 274.954 946.434 L 274.954 946.57 L 275.09 946.57 C 275.739 947.557 276.466 948.489 277.266 949.358 C 277.81 950.446 278.286 951.534 278.83 952.622 L 278.966 952.487 C 279.991 951.671 280.529 950.389 280.394 949.086 C 280.096 948.625 279.824 948.149 279.578 947.658 C 279.178 946.978 278.286 946.638 277.742 946.094 L 277.742 946.094 Z " fill-rule="evenodd" fill="rgb(35,245,215)"/></svg>