<?xml version="1.0" standalone="no"?><!-- Generator: Gravit.io --><svg xmlns="http://www.w3.org/2000/svg" xmlns:xlink="http://www.w3.org/1999/xlink" style="isolation:isolate" viewBox="285.914 166.105 208.172 218.27" width="208.172" height="218.27"><path d=" M 444.253 324.34 C 444.253 323.232 444.317 322.295 444.36 321.251 C 444.295 319.887 444.253 318.885 444.253 318.885 C 444.253 318.885 444.317 318.843 444.423 318.757 C 445.233 304.182 449.261 298.556 453.565 295.36 C 452.969 294.529 452.265 293.634 451.626 292.781 C 449.815 290.394 447.535 287.433 445.127 283.639 L 444.679 282.787 C 444.317 281.892 443.422 280.336 442.293 278.312 C 435.857 266.634 422.411 242.342 431.616 226.999 C 435.644 220.286 443.188 216.408 454.098 215.449 C 449.623 202.791 432.938 172.212 395.071 171.594 C 395.071 171.594 395.049 171.594 395.049 171.594 C 362.084 171.062 351.258 201.001 347.743 218.901 C 352.579 216.856 358.141 215.598 363.213 215.598 C 363.277 215.598 363.362 215.598 363.447 215.598 C 375.935 215.684 384.523 222.353 387.016 233.903 C 388.848 242.363 389.722 249.757 389.701 256.555 C 389.658 271.386 386.653 279.186 384.032 286.069 L 383.18 288.285 C 382.498 290.118 381.795 291.801 381.113 293.399 C 380.431 295.04 379.813 296.468 379.387 297.789 C 382.029 298.386 384.096 299.217 385.524 299.856 L 386.334 300.218 C 386.59 300.325 386.845 300.453 387.08 300.58 C 391.704 303.393 394.602 307.719 395.22 312.769 C 395.54 315.497 395.497 334.015 395.369 350.168 C 395.859 357.178 397.031 363.06 398.608 367.322 C 400.846 373.395 406.408 385.008 417.126 384.348 C 424.606 383.879 431.787 379.319 436.56 373.331 C 441.675 366.895 443.55 359.757 444.274 351.744 L 444.274 324.34 L 444.253 324.34 L 444.253 324.34 L 444.253 324.34 L 444.253 324.34 L 444.253 324.34 L 444.253 324.34 Z  M 346.677 296.617 C 337.876 287.433 333.593 275.073 335.212 263.566 C 336.768 252.464 335.873 241.617 335.404 235.757 C 335.255 233.818 335.148 232.369 335.148 231.559 C 335.148 231.516 335.17 231.474 335.17 231.431 C 335.17 231.41 335.148 231.41 335.148 231.389 C 335.809 214.895 342.159 188.898 359.655 173.448 C 351.152 170.081 337.258 165.67 324.238 166.139 C 303.824 166.885 284.07 180.992 286.051 220.691 C 286.797 235.587 303.632 324.895 326.646 324.34 C 329.928 324.255 333.337 322.146 336.853 317.926 C 342.394 311.256 347.785 305.205 351.621 300.985 C 349.894 299.685 348.254 298.258 346.677 296.617 L 346.677 296.617 L 346.677 296.617 L 346.677 296.617 L 346.677 296.617 L 346.677 296.617 Z  M 466.202 219.221 C 466.287 220.073 466.202 220.777 466.074 221.458 C 466.244 226.466 465.711 231.346 465.157 236.055 C 464.753 239.529 464.348 243.109 464.22 246.71 C 464.113 250.226 464.604 253.7 465.136 257.365 C 466.351 265.974 467.629 275.691 460.959 287.028 C 462.174 288.647 463.261 290.139 464.135 291.588 C 489.28 250.823 499.402 202.344 489.749 189.984 C 475.109 171.296 454.844 165.883 438.798 166.139 C 433.769 166.224 429.209 166.906 425.309 167.737 C 452.99 181.162 465.328 209.93 466.202 219.221 L 466.202 219.221 L 466.202 219.221 L 466.202 219.221 L 466.202 219.221 Z  M 487.895 302.903 C 473.362 305.908 466.372 304.31 462.963 302.221 C 462.43 302.605 461.876 302.946 461.365 303.265 C 459.34 304.48 456.122 306.441 455.334 318.438 C 455.803 318.523 456.186 318.566 456.676 318.672 L 459.063 318.885 C 466.266 319.205 475.684 317.202 481.225 314.623 C 493.137 309.083 499.636 300.495 487.895 302.903 L 487.895 302.903 L 487.895 302.903 L 487.895 302.903 Z  M 384.374 314.069 C 384.16 312.45 383.287 311.129 381.689 310.084 L 381.092 309.829 C 379.131 308.955 376.894 307.975 373.335 307.975 L 373.314 307.975 C 372.611 308.039 371.928 308.081 371.247 308.081 C 370.948 308.081 370.672 308.039 370.394 308.039 C 367.816 310.021 364.13 311.555 355.03 313.43 C 338.771 317.564 348.382 322.465 354.604 323.211 C 360.635 324.724 374.976 326.557 384.501 318.8 C 384.48 316.349 384.437 314.687 384.374 314.069 L 384.374 314.069 L 384.374 314.069 Z  M 377.043 239.785 C 375.466 241.447 372.951 242.874 370.16 242.427 C 365.642 241.702 362.19 236.247 362.446 234.201 C 362.68 232.156 366.537 231.09 371.033 231.836 C 372.611 232.092 374.038 232.539 375.232 233.072 C 373.484 229.322 370.33 227.148 365.514 226.637 C 356.97 225.678 347.913 230.131 346.102 232.603 C 346.123 233.221 346.208 233.988 346.272 234.883 C 346.783 241.148 347.721 252.805 345.995 265.1 C 344.866 273.198 348.147 282.382 354.54 289.073 C 358.674 293.378 363.49 296.105 368.263 296.915 C 368.86 294.294 369.947 291.758 371.055 289.137 C 371.673 287.688 372.334 286.154 372.951 284.492 L 373.825 282.169 C 376.233 275.861 378.726 269.341 378.79 256.513 C 378.812 251.569 378.193 245.943 377.043 239.785 L 377.043 239.785 Z  M 454.332 258.92 C 453.757 254.936 453.182 250.823 453.31 246.348 C 453.437 242.299 453.885 238.485 454.332 234.798 C 454.652 231.879 454.929 229.087 455.078 226.338 C 448.046 226.914 443.379 228.959 441.163 232.39 C 442.079 232.071 443.102 231.815 444.253 231.687 C 449.133 231.048 452.67 232.454 453.075 235.16 C 453.395 237.142 451.711 238.996 450.965 239.721 C 449.453 241.191 447.556 242.129 445.617 242.384 C 445.276 242.427 444.914 242.448 444.572 242.448 C 442.633 242.448 440.801 241.788 439.394 240.807 C 440.012 251.569 447.94 265.974 451.839 273.027 C 452.692 274.54 453.331 275.755 453.864 276.778 C 455.995 270.683 455.206 265.121 454.332 258.92 Z " fill-rule="evenodd" fill="rgb(23,204,195)"/></svg>