<?xml version="1.0" standalone="no"?><!-- Generator: Gravit.io --><svg xmlns="http://www.w3.org/2000/svg" xmlns:xlink="http://www.w3.org/1999/xlink" style="isolation:isolate" viewBox="276.251 1057.637 193.498 100" width="193.498px" height="100px"><g><linearGradient id="_lgradient_0" x1="0.5" y1="0" x2="0.49694363211180287" y2="0.9161150997465914" gradientTransform="matrix(100,0,0,100,369.749,1057.637)" gradientUnits="userSpaceOnUse"><stop offset="0%" stop-opacity="1" style="stop-color:rgb(246,19,94)"/><stop offset="23.916355945333546%" stop-opacity="1" style="stop-color:rgb(161,18,88)"/><stop offset="100%" stop-opacity="1" style="stop-color:rgb(40,1,35)"/></linearGradient><path d=" M 419.749 1057.637 C 415.297 1068.55 412.594 1075.698 407.64 1086.287 C 410.677 1089.508 414.411 1093.245 420.469 1097.481 C 413.957 1094.801 409.518 1092.118 406.199 1089.326 C 399.857 1102.561 389.913 1121.406 369.749 1157.637 C 385.593 1148.49 397.877 1142.847 409.324 1140.693 C 408.833 1138.582 408.572 1136.289 408.591 1133.906 L 408.604 1133.406 C 408.855 1123.253 414.138 1115.445 420.396 1115.975 C 426.652 1116.504 431.524 1125.168 431.272 1135.323 C 431.224 1137.236 431.002 1139.073 430.625 1140.779 C 441.949 1142.995 454.116 1148.612 469.749 1157.637 C 466.666 1151.962 463.905 1146.848 461.277 1141.975 C 457.138 1138.767 452.822 1134.593 444.016 1130.073 C 450.069 1131.647 454.407 1133.465 457.785 1135.493 C 431.069 1085.751 428.91 1079.137 419.749 1057.637 L 419.749 1057.637 L 419.749 1057.637 Z " fill="url(#_lgradient_0)"/><g><path d=" M 297.448 1057.643 C 296.946 1057.652 296.397 1057.848 295.783 1058.331 C 294.267 1057.746 292.807 1057.541 291.486 1058.731 C 289.458 1058.471 288.807 1059.01 288.305 1059.643 C 287.859 1059.634 284.985 1059.187 283.655 1061.159 C 280.334 1060.768 279.283 1063.112 280.474 1065.298 C 279.795 1066.349 279.097 1067.391 280.678 1069.4 C 280.12 1070.516 280.464 1071.715 281.785 1073.185 C 281.441 1074.757 282.129 1075.864 283.357 1076.729 C 283.124 1078.868 285.319 1080.114 285.98 1080.561 C 286.231 1081.807 286.761 1082.988 289.263 1083.639 C 289.682 1085.509 291.188 1085.825 292.649 1086.216 C 287.821 1089.024 283.683 1092.717 283.71 1101.776 L 283.004 1103.041 C 277.46 1106.408 272.484 1117.234 280.269 1126.033 C 280.781 1128.776 281.636 1130.758 282.399 1132.943 C 283.534 1141.77 290.947 1145.899 292.909 1146.392 C 295.774 1148.569 298.824 1150.643 302.954 1152.094 C 306.851 1156.112 311.074 1157.646 315.315 1157.637 C 315.38 1157.637 315.445 1157.637 315.501 1157.637 C 319.742 1157.646 323.965 1156.112 327.862 1152.094 C 331.991 1150.643 335.042 1148.569 337.916 1146.392 C 339.869 1145.899 347.291 1141.77 348.417 1132.943 C 349.179 1130.758 350.035 1128.776 350.547 1126.033 C 358.331 1117.234 353.356 1106.408 347.812 1103.041 L 347.105 1101.776 C 347.133 1092.717 342.994 1089.024 338.167 1086.216 C 339.627 1085.825 341.134 1085.509 341.553 1083.639 C 344.064 1082.988 344.585 1081.807 344.836 1080.551 C 345.496 1080.114 347.691 1078.868 347.468 1076.719 C 348.696 1075.864 349.384 1074.757 349.031 1073.185 C 350.351 1071.725 350.695 1070.506 350.137 1069.4 C 351.728 1067.391 351.021 1066.358 350.342 1065.298 C 351.533 1063.112 350.482 1060.768 347.161 1061.159 C 345.84 1059.187 342.957 1059.634 342.511 1059.643 C 342.018 1059.01 341.357 1058.471 339.33 1058.731 C 338.018 1057.541 336.549 1057.746 335.033 1058.331 C 333.238 1056.908 332.047 1058.043 330.689 1058.48 C 328.522 1057.764 328.02 1058.741 326.95 1059.141 C 324.579 1058.638 323.862 1059.727 322.718 1060.88 L 321.398 1060.852 C 317.817 1062.963 316.04 1067.26 315.408 1069.465 C 314.785 1067.251 313.008 1062.963 309.427 1060.852 L 308.107 1060.88 C 306.963 1059.727 306.246 1058.638 303.875 1059.141 C 302.805 1058.741 302.303 1057.764 300.136 1058.48 C 299.234 1058.192 298.415 1057.615 297.448 1057.643 Z " fill="rgb(25,16,46)"/><path d=" M 290.323 1066.925 C 299.82 1071.818 305.335 1075.771 308.358 1079.147 C 306.814 1085.351 298.741 1085.639 295.783 1085.462 C 296.388 1085.183 296.899 1084.839 297.076 1084.318 C 296.332 1083.797 293.7 1084.272 291.867 1083.239 C 292.574 1083.09 292.9 1082.951 293.235 1082.43 C 291.505 1081.872 289.635 1081.398 288.538 1080.486 C 289.124 1080.495 289.682 1080.616 290.454 1080.077 C 288.9 1079.24 287.245 1078.58 285.961 1077.305 C 286.761 1077.277 287.626 1077.296 287.877 1076.998 C 286.454 1076.115 285.254 1075.138 284.259 1074.069 C 285.385 1074.208 285.859 1074.087 286.129 1073.892 C 285.059 1072.794 283.701 1071.864 283.05 1070.506 C 283.887 1070.795 284.65 1070.906 285.199 1070.478 C 284.836 1069.66 283.273 1069.167 282.371 1067.251 C 283.245 1067.335 284.185 1067.437 284.371 1067.251 C 283.952 1065.586 283.255 1064.656 282.576 1063.689 C 284.454 1063.661 287.301 1063.698 287.17 1063.54 L 286.008 1062.349 C 287.849 1061.856 289.728 1062.424 291.086 1062.852 C 291.7 1062.368 291.077 1061.763 290.333 1061.14 C 291.886 1061.345 293.3 1061.708 294.574 1062.201 C 295.253 1061.587 294.127 1060.973 293.588 1060.359 C 295.997 1060.815 297.02 1061.457 298.034 1062.098 C 298.769 1061.391 298.08 1060.787 297.578 1060.173 C 299.401 1060.852 300.331 1061.717 301.317 1062.573 C 301.652 1062.126 302.173 1061.791 301.55 1060.712 C 302.842 1061.457 303.81 1062.331 304.526 1063.307 C 305.326 1062.796 305.009 1062.108 305.009 1061.466 C 306.349 1062.554 307.204 1063.717 308.237 1064.851 C 308.451 1064.703 308.637 1064.182 308.795 1063.363 C 311.994 1066.46 316.515 1074.282 309.958 1077.38 C 304.377 1072.776 297.708 1069.427 290.323 1066.925 Z  M 340.697 1066.925 C 331.21 1071.818 325.685 1075.771 322.672 1079.147 C 324.216 1085.351 332.298 1085.639 335.247 1085.462 C 334.642 1085.183 334.14 1084.839 333.954 1084.318 C 334.698 1083.797 337.321 1084.272 339.162 1083.239 C 338.455 1083.09 338.13 1082.951 337.795 1082.43 C 339.534 1081.872 341.404 1081.398 342.501 1080.486 C 341.906 1080.495 341.348 1080.616 340.576 1080.077 C 342.129 1079.24 343.785 1078.58 345.078 1077.305 C 344.269 1077.277 343.404 1077.296 343.152 1076.998 C 344.575 1076.115 345.775 1075.138 346.77 1074.069 C 345.645 1074.208 345.171 1074.087 344.901 1073.892 C 345.971 1072.794 347.329 1071.864 347.98 1070.506 C 347.143 1070.795 346.38 1070.906 345.831 1070.478 C 346.194 1069.66 347.766 1069.167 348.668 1067.251 C 347.784 1067.335 346.854 1067.437 346.668 1067.251 C 347.077 1065.586 347.775 1064.656 348.463 1063.689 C 346.584 1063.661 343.738 1063.698 343.859 1063.54 L 345.022 1062.349 C 343.19 1061.856 341.311 1062.424 339.944 1062.852 C 339.33 1062.368 339.962 1061.763 340.706 1061.14 C 339.144 1061.345 337.73 1061.698 336.465 1062.201 C 335.777 1061.587 336.902 1060.973 337.451 1060.359 C 335.033 1060.805 334.019 1061.457 333.005 1062.098 C 332.261 1061.391 332.959 1060.787 333.452 1060.173 C 331.638 1060.852 330.699 1061.717 329.713 1062.573 C 329.378 1062.126 328.866 1061.791 329.489 1060.712 C 328.197 1061.447 327.229 1062.331 326.504 1063.307 C 325.713 1062.796 326.029 1062.108 326.029 1061.466 C 324.69 1062.554 323.834 1063.717 322.793 1064.851 C 322.588 1064.703 322.402 1064.182 322.244 1063.363 C 319.035 1066.46 314.524 1074.282 321.081 1077.38 C 326.653 1072.776 333.312 1069.427 340.697 1066.925 Z " fill-rule="evenodd" fill="rgb(100,221,23)"/><linearGradient id="_lgradient_1" x1="0.4999999999999999" y1="0" x2="0.49999999999999994" y2="1" gradientTransform="matrix(70.97,0,0,68.793,279.421,1085.738)" gradientUnits="userSpaceOnUse"><stop offset="0%" stop-opacity="1" style="stop-color:rgb(247,26,114)"/><stop offset="100%" stop-opacity="1" style="stop-color:rgb(176,15,79)"/></linearGradient><path d=" M 327.006 1130.116 C 327.043 1135.91 321.984 1140.626 315.696 1140.663 C 309.418 1140.691 304.303 1136.022 304.265 1130.227 C 304.265 1130.19 304.265 1130.153 304.265 1130.116 C 304.237 1124.321 309.297 1119.606 315.575 1119.569 C 321.863 1119.541 326.978 1124.21 327.006 1130.004 C 327.006 1130.041 327.006 1130.079 327.006 1130.116 L 327.006 1130.116 L 327.006 1130.116 L 327.006 1130.116 L 327.006 1130.116 L 327.006 1130.116 L 327.006 1130.116 L 327.006 1130.116 L 327.006 1130.116 L 327.006 1130.116 Z  M 309.055 1100.167 C 313.771 1103.245 314.617 1110.24 310.953 1115.792 C 307.288 1121.336 300.499 1123.326 295.792 1120.238 C 291.077 1117.15 290.23 1110.156 293.895 1104.613 C 297.559 1099.069 304.349 1097.079 309.055 1100.167 L 309.055 1100.167 L 309.055 1100.167 L 309.055 1100.167 L 309.055 1100.167 L 309.055 1100.167 L 309.055 1100.167 L 309.055 1100.167 L 309.055 1100.167 L 309.055 1100.167 Z  M 321.779 1099.6 C 317.063 1102.687 316.217 1109.682 319.882 1115.225 C 323.546 1120.778 330.336 1122.768 335.042 1119.68 C 339.758 1116.592 340.613 1109.598 336.949 1104.045 C 333.284 1098.502 326.485 1096.512 321.779 1099.6 L 321.779 1099.6 L 321.779 1099.6 L 321.779 1099.6 L 321.779 1099.6 L 321.779 1099.6 L 321.779 1099.6 L 321.779 1099.6 L 321.779 1099.6 Z  M 285.505 1105.208 C 290.593 1103.85 287.226 1126.256 283.087 1124.414 C 278.539 1120.75 277.07 1110.026 285.505 1105.208 L 285.505 1105.208 L 285.505 1105.208 L 285.505 1105.208 L 285.505 1105.208 L 285.505 1105.208 L 285.505 1105.208 L 285.505 1105.208 Z  M 344.306 1104.929 C 339.209 1103.571 342.585 1125.977 346.724 1124.135 C 351.272 1120.471 352.742 1109.747 344.306 1104.929 L 344.306 1104.929 L 344.306 1104.929 L 344.306 1104.929 L 344.306 1104.929 L 344.306 1104.929 L 344.306 1104.929 Z  M 327.015 1088.243 C 335.795 1086.755 343.106 1091.973 342.808 1101.488 C 342.52 1105.143 323.779 1088.783 327.015 1088.243 L 327.015 1088.243 L 327.015 1088.243 L 327.015 1088.243 L 327.015 1088.243 L 327.015 1088.243 Z  M 302.759 1087.955 C 293.979 1086.476 286.677 1091.694 286.966 1101.209 C 287.254 1104.864 305.995 1088.504 302.759 1087.955 L 302.759 1087.955 L 302.759 1087.955 L 302.759 1087.955 L 302.759 1087.955 Z  M 315.371 1085.741 C 310.125 1085.602 305.102 1089.629 305.084 1091.963 C 305.075 1094.8 309.232 1097.702 315.399 1097.777 C 321.705 1097.823 325.732 1095.451 325.75 1092.531 C 325.778 1089.21 320.021 1085.685 315.371 1085.741 L 315.371 1085.741 L 315.371 1085.741 L 315.371 1085.741 Z  M 315.687 1143.918 C 320.254 1143.714 326.383 1145.388 326.402 1147.601 C 326.476 1149.759 320.84 1154.624 315.389 1154.521 C 309.734 1154.772 304.2 1149.899 304.275 1148.215 C 304.182 1145.732 311.148 1143.807 315.687 1143.918 L 315.687 1143.918 L 315.687 1143.918 Z  M 298.815 1130.776 C 302.07 1134.692 303.549 1141.584 300.833 1143.611 C 298.266 1145.165 292.035 1144.523 287.598 1138.161 C 284.613 1132.813 284.994 1127.381 287.096 1125.782 C 290.23 1123.866 295.085 1126.442 298.815 1130.776 L 298.815 1130.776 Z  M 331.917 1129.539 C 328.392 1133.659 326.439 1141.175 329.006 1143.602 C 331.452 1145.481 338.046 1145.22 342.911 1138.468 C 346.445 1133.929 345.264 1126.349 343.245 1124.331 C 340.241 1122.024 335.935 1124.982 331.917 1129.539 Z " fill-rule="evenodd" fill="url(#_lgradient_1)"/></g></g></svg>