<?xml version="1.0" encoding="UTF-8" standalone="no"?><!-- Generator: Gravit.io --><svg xmlns="http://www.w3.org/2000/svg" xmlns:xlink="http://www.w3.org/1999/xlink" style="isolation:isolate" viewBox="536.251 1323.637 204.495 100" width="204.495pt" height="100pt"><g><g><path d=" M 656.775 1413.637 C 638.484 1395.346 638.484 1365.646 656.775 1347.355 C 675.066 1329.064 704.766 1329.064 723.056 1347.355 C 741.347 1365.646 741.347 1395.346 723.056 1413.637" fill="none" vector-effect="non-scaling-stroke" stroke-width="7.944" stroke="rgb(0,0,0)" stroke-opacity="0.3" stroke-linejoin="miter" stroke-linecap="round" stroke-miterlimit="3"/><linearGradient id="_lgradient_5" x1="-0.0906114653271879" y1="-0.08758368894078751" x2="0.03462293090556122" y2="1.0912531277718012"><stop offset="2.1739130434782608%" stop-opacity="1" style="stop-color:rgb(236,8,99)"/><stop offset="98.26086956521739%" stop-opacity="1" style="stop-color:rgb(106,8,47)"/><stop offset="100%" stop-opacity="1" style="stop-color:rgb(176,15,79)"/></linearGradient><path d=" M 656.775 1347.355 C 675.066 1329.064 704.766 1329.064 723.056 1347.355 C 741.347 1365.646 741.347 1395.346 723.056 1413.637" fill="none" vector-effect="non-scaling-stroke" stroke-width="7.944" stroke="url(#_lgradient_5)" stroke-linejoin="miter" stroke-linecap="round" stroke-miterlimit="3"/><text transform="matrix(0.53,0,0,0.53,676.676,1376.699)" style="font-family:'Poiret One';font-weight:400;font-size:20px;font-style:normal;fill:#e01666;stroke:none;">Temp:</text><text transform="matrix(0.53,0,0,0.53,680.118,1402.497)" style="font-family:'Poiret One';font-weight:400;font-size:30px;font-style:normal;fill:#e01666;stroke:none;">54</text></g><g><path d=" M 557.448 1323.643 C 556.946 1323.652 556.397 1323.848 555.783 1324.331 C 554.267 1323.746 552.807 1323.541 551.486 1324.731 C 549.458 1324.471 548.807 1325.01 548.305 1325.643 C 547.859 1325.634 544.985 1325.187 543.655 1327.159 C 540.334 1326.768 539.283 1329.112 540.474 1331.298 C 539.795 1332.349 539.097 1333.391 540.678 1335.4 C 540.12 1336.516 540.464 1337.715 541.785 1339.185 C 541.441 1340.757 542.129 1341.864 543.357 1342.729 C 543.124 1344.868 545.319 1346.114 545.98 1346.561 C 546.231 1347.807 546.761 1348.988 549.263 1349.639 C 549.682 1351.509 551.188 1351.825 552.649 1352.216 C 547.821 1355.024 543.683 1358.717 543.71 1367.776 L 543.004 1369.041 C 537.46 1372.408 532.484 1383.234 540.269 1392.033 C 540.781 1394.776 541.636 1396.758 542.399 1398.943 C 543.534 1407.77 550.947 1411.899 552.909 1412.392 C 555.774 1414.569 558.824 1416.643 562.954 1418.094 C 566.851 1422.112 571.074 1423.646 575.315 1423.637 C 575.38 1423.637 575.445 1423.637 575.501 1423.637 C 579.742 1423.646 583.965 1422.112 587.862 1418.094 C 591.991 1416.643 595.042 1414.569 597.916 1412.392 C 599.869 1411.899 607.291 1407.77 608.417 1398.943 C 609.179 1396.758 610.035 1394.776 610.547 1392.033 C 618.331 1383.234 613.356 1372.408 607.812 1369.041 L 607.105 1367.776 C 607.133 1358.717 602.994 1355.024 598.167 1352.216 C 599.627 1351.825 601.134 1351.509 601.553 1349.639 C 604.064 1348.988 604.585 1347.807 604.836 1346.551 C 605.496 1346.114 607.691 1344.868 607.468 1342.719 C 608.696 1341.864 609.384 1340.757 609.031 1339.185 C 610.351 1337.725 610.695 1336.506 610.137 1335.4 C 611.728 1333.391 611.021 1332.358 610.342 1331.298 C 611.533 1329.112 610.482 1326.768 607.161 1327.159 C 605.84 1325.187 602.957 1325.634 602.511 1325.643 C 602.018 1325.01 601.357 1324.471 599.33 1324.731 C 598.018 1323.541 596.549 1323.746 595.033 1324.331 C 593.238 1322.908 592.047 1324.043 590.689 1324.48 C 588.522 1323.764 588.02 1324.741 586.95 1325.141 C 584.579 1324.638 583.862 1325.727 582.718 1326.88 L 581.398 1326.852 C 577.817 1328.963 576.04 1333.26 575.408 1335.465 C 574.785 1333.251 573.008 1328.963 569.427 1326.852 L 568.107 1326.88 C 566.963 1325.727 566.246 1324.638 563.875 1325.141 C 562.805 1324.741 562.303 1323.764 560.136 1324.48 C 559.234 1324.192 558.415 1323.615 557.448 1323.643 Z " fill="rgb(25,16,46)"/><path d=" M 550.323 1332.925 C 559.82 1337.818 565.335 1341.771 568.358 1345.147 C 566.814 1351.351 558.741 1351.639 555.783 1351.462 C 556.388 1351.183 556.899 1350.839 557.076 1350.318 C 556.332 1349.797 553.7 1350.272 551.867 1349.239 C 552.574 1349.09 552.9 1348.951 553.235 1348.43 C 551.505 1347.872 549.635 1347.398 548.538 1346.486 C 549.124 1346.495 549.682 1346.616 550.454 1346.077 C 548.9 1345.24 547.245 1344.58 545.961 1343.305 C 546.761 1343.277 547.626 1343.296 547.877 1342.998 C 546.454 1342.115 545.254 1341.138 544.259 1340.069 C 545.385 1340.208 545.859 1340.087 546.129 1339.892 C 545.059 1338.794 543.701 1337.864 543.05 1336.506 C 543.887 1336.795 544.65 1336.906 545.199 1336.478 C 544.836 1335.66 543.273 1335.167 542.371 1333.251 C 543.245 1333.335 544.185 1333.437 544.371 1333.251 C 543.952 1331.586 543.255 1330.656 542.576 1329.689 C 544.454 1329.661 547.301 1329.698 547.17 1329.54 L 546.008 1328.349 C 547.849 1327.856 549.728 1328.424 551.086 1328.852 C 551.7 1328.368 551.077 1327.763 550.333 1327.14 C 551.886 1327.345 553.3 1327.708 554.574 1328.201 C 555.253 1327.587 554.127 1326.973 553.588 1326.359 C 555.997 1326.815 557.02 1327.457 558.034 1328.098 C 558.769 1327.391 558.08 1326.787 557.578 1326.173 C 559.401 1326.852 560.331 1327.717 561.317 1328.573 C 561.652 1328.126 562.173 1327.791 561.55 1326.712 C 562.842 1327.457 563.81 1328.331 564.526 1329.307 C 565.326 1328.796 565.009 1328.108 565.009 1327.466 C 566.349 1328.554 567.204 1329.717 568.237 1330.851 C 568.451 1330.703 568.637 1330.182 568.795 1329.363 C 571.994 1332.46 576.515 1340.282 569.958 1343.38 C 564.377 1338.776 557.708 1335.427 550.323 1332.925 Z  M 600.697 1332.925 C 591.21 1337.818 585.685 1341.771 582.672 1345.147 C 584.216 1351.351 592.298 1351.639 595.247 1351.462 C 594.642 1351.183 594.14 1350.839 593.954 1350.318 C 594.698 1349.797 597.321 1350.272 599.162 1349.239 C 598.455 1349.09 598.13 1348.951 597.795 1348.43 C 599.534 1347.872 601.404 1347.398 602.501 1346.486 C 601.906 1346.495 601.348 1346.616 600.576 1346.077 C 602.129 1345.24 603.785 1344.58 605.078 1343.305 C 604.269 1343.277 603.404 1343.296 603.152 1342.998 C 604.575 1342.115 605.775 1341.138 606.77 1340.069 C 605.645 1340.208 605.171 1340.087 604.901 1339.892 C 605.971 1338.794 607.329 1337.864 607.98 1336.506 C 607.143 1336.795 606.38 1336.906 605.831 1336.478 C 606.194 1335.66 607.766 1335.167 608.668 1333.251 C 607.784 1333.335 606.854 1333.437 606.668 1333.251 C 607.077 1331.586 607.775 1330.656 608.463 1329.689 C 606.584 1329.661 603.738 1329.698 603.859 1329.54 L 605.022 1328.349 C 603.19 1327.856 601.311 1328.424 599.944 1328.852 C 599.33 1328.368 599.962 1327.763 600.706 1327.14 C 599.144 1327.345 597.73 1327.698 596.465 1328.201 C 595.777 1327.587 596.902 1326.973 597.451 1326.359 C 595.033 1326.805 594.019 1327.457 593.005 1328.098 C 592.261 1327.391 592.959 1326.787 593.452 1326.173 C 591.638 1326.852 590.699 1327.717 589.713 1328.573 C 589.378 1328.126 588.866 1327.791 589.489 1326.712 C 588.197 1327.447 587.229 1328.331 586.504 1329.307 C 585.713 1328.796 586.029 1328.108 586.029 1327.466 C 584.69 1328.554 583.834 1329.717 582.793 1330.851 C 582.588 1330.703 582.402 1330.182 582.244 1329.363 C 579.035 1332.46 574.524 1340.282 581.081 1343.38 C 586.653 1338.776 593.312 1335.427 600.697 1332.925 Z " fill-rule="evenodd" fill="rgb(100,221,23)"/><linearGradient id="_lgradient_6" x1="0.5" y1="0" x2="0.5000000000000001" y2="1" gradientTransform="matrix(70.97,0,0,68.793,539.421,1351.738)" gradientUnits="userSpaceOnUse"><stop offset="0%" stop-opacity="1" style="stop-color:rgb(247,26,114)"/><stop offset="100%" stop-opacity="1" style="stop-color:rgb(176,15,79)"/></linearGradient><path d=" M 587.006 1396.116 C 587.043 1401.91 581.984 1406.626 575.696 1406.663 C 569.418 1406.691 564.303 1402.022 564.265 1396.227 C 564.265 1396.19 564.265 1396.153 564.265 1396.116 C 564.237 1390.321 569.297 1385.606 575.575 1385.569 C 581.863 1385.541 586.978 1390.21 587.006 1396.004 C 587.006 1396.041 587.006 1396.079 587.006 1396.116 L 587.006 1396.116 L 587.006 1396.116 L 587.006 1396.116 L 587.006 1396.116 L 587.006 1396.116 L 587.006 1396.116 L 587.006 1396.116 L 587.006 1396.116 L 587.006 1396.116 Z  M 569.055 1366.167 C 573.771 1369.245 574.617 1376.24 570.953 1381.792 C 567.288 1387.336 560.499 1389.326 555.792 1386.238 C 551.077 1383.15 550.23 1376.156 553.895 1370.613 C 557.559 1365.069 564.349 1363.079 569.055 1366.167 L 569.055 1366.167 L 569.055 1366.167 L 569.055 1366.167 L 569.055 1366.167 L 569.055 1366.167 L 569.055 1366.167 L 569.055 1366.167 L 569.055 1366.167 L 569.055 1366.167 Z  M 581.779 1365.6 C 577.063 1368.687 576.217 1375.682 579.882 1381.225 C 583.546 1386.778 590.336 1388.768 595.042 1385.68 C 599.758 1382.592 600.613 1375.598 596.949 1370.045 C 593.284 1364.502 586.485 1362.512 581.779 1365.6 L 581.779 1365.6 L 581.779 1365.6 L 581.779 1365.6 L 581.779 1365.6 L 581.779 1365.6 L 581.779 1365.6 L 581.779 1365.6 L 581.779 1365.6 Z  M 545.505 1371.208 C 550.593 1369.85 547.226 1392.256 543.087 1390.414 C 538.539 1386.75 537.07 1376.026 545.505 1371.208 L 545.505 1371.208 L 545.505 1371.208 L 545.505 1371.208 L 545.505 1371.208 L 545.505 1371.208 L 545.505 1371.208 L 545.505 1371.208 Z  M 604.306 1370.929 C 599.209 1369.571 602.585 1391.977 606.724 1390.135 C 611.272 1386.471 612.742 1375.747 604.306 1370.929 L 604.306 1370.929 L 604.306 1370.929 L 604.306 1370.929 L 604.306 1370.929 L 604.306 1370.929 L 604.306 1370.929 Z  M 587.015 1354.243 C 595.795 1352.755 603.106 1357.973 602.808 1367.488 C 602.52 1371.143 583.779 1354.783 587.015 1354.243 L 587.015 1354.243 L 587.015 1354.243 L 587.015 1354.243 L 587.015 1354.243 L 587.015 1354.243 Z  M 562.759 1353.955 C 553.979 1352.476 546.677 1357.694 546.966 1367.209 C 547.254 1370.864 565.995 1354.504 562.759 1353.955 L 562.759 1353.955 L 562.759 1353.955 L 562.759 1353.955 L 562.759 1353.955 Z  M 575.371 1351.741 C 570.125 1351.602 565.102 1355.629 565.084 1357.963 C 565.075 1360.8 569.232 1363.702 575.399 1363.777 C 581.705 1363.823 585.732 1361.451 585.75 1358.531 C 585.778 1355.21 580.021 1351.685 575.371 1351.741 L 575.371 1351.741 L 575.371 1351.741 L 575.371 1351.741 Z  M 575.687 1409.918 C 580.254 1409.714 586.383 1411.388 586.402 1413.601 C 586.476 1415.759 580.84 1420.624 575.389 1420.521 C 569.734 1420.772 564.2 1415.899 564.275 1414.215 C 564.182 1411.732 571.148 1409.807 575.687 1409.918 L 575.687 1409.918 L 575.687 1409.918 Z  M 558.815 1396.776 C 562.07 1400.692 563.549 1407.584 560.833 1409.611 C 558.266 1411.165 552.035 1410.523 547.598 1404.161 C 544.613 1398.813 544.994 1393.381 547.096 1391.782 C 550.23 1389.866 555.085 1392.442 558.815 1396.776 L 558.815 1396.776 Z  M 591.917 1395.539 C 588.392 1399.659 586.439 1407.175 589.006 1409.602 C 591.452 1411.481 598.046 1411.22 602.911 1404.468 C 606.445 1399.929 605.264 1392.349 603.245 1390.331 C 600.241 1388.024 595.935 1390.982 591.917 1395.539 Z " fill-rule="evenodd" fill="url(#_lgradient_6)"/></g></g></svg>