<?xml version="1.0" standalone="no"?><!-- Generator: Gravit.io --><svg xmlns="http://www.w3.org/2000/svg" xmlns:xlink="http://www.w3.org/1999/xlink" style="isolation:isolate" viewBox="536.251 1187.637 195.765 100" width="195.765px" height="100px"><g><g><path d=" M 557.448 1187.643 C 556.946 1187.652 556.397 1187.848 555.783 1188.331 C 554.267 1187.746 552.807 1187.541 551.486 1188.731 C 549.458 1188.471 548.807 1189.01 548.305 1189.643 C 547.859 1189.634 544.985 1189.187 543.655 1191.159 C 540.334 1190.768 539.283 1193.112 540.474 1195.298 C 539.795 1196.349 539.097 1197.391 540.678 1199.4 C 540.12 1200.516 540.464 1201.715 541.785 1203.185 C 541.441 1204.757 542.129 1205.864 543.357 1206.729 C 543.124 1208.868 545.319 1210.114 545.98 1210.561 C 546.231 1211.807 546.761 1212.988 549.263 1213.639 C 549.682 1215.509 551.188 1215.825 552.649 1216.216 C 547.821 1219.024 543.683 1222.717 543.71 1231.776 L 543.004 1233.041 C 537.46 1236.408 532.484 1247.234 540.269 1256.033 C 540.781 1258.776 541.636 1260.758 542.399 1262.943 C 543.534 1271.77 550.947 1275.899 552.909 1276.392 C 555.774 1278.569 558.824 1280.643 562.954 1282.094 C 566.851 1286.112 571.074 1287.646 575.315 1287.637 C 575.38 1287.637 575.445 1287.637 575.501 1287.637 C 579.742 1287.646 583.965 1286.112 587.862 1282.094 C 591.991 1280.643 595.042 1278.569 597.916 1276.392 C 599.869 1275.899 607.291 1271.77 608.417 1262.943 C 609.179 1260.758 610.035 1258.776 610.547 1256.033 C 618.331 1247.234 613.356 1236.408 607.812 1233.041 L 607.105 1231.776 C 607.133 1222.717 602.994 1219.024 598.167 1216.216 C 599.627 1215.825 601.134 1215.509 601.553 1213.639 C 604.064 1212.988 604.585 1211.807 604.836 1210.551 C 605.496 1210.114 607.691 1208.868 607.468 1206.719 C 608.696 1205.864 609.384 1204.757 609.031 1203.185 C 610.351 1201.725 610.695 1200.506 610.137 1199.4 C 611.728 1197.391 611.021 1196.358 610.342 1195.298 C 611.533 1193.112 610.482 1190.768 607.161 1191.159 C 605.84 1189.187 602.957 1189.634 602.511 1189.643 C 602.018 1189.01 601.357 1188.471 599.33 1188.731 C 598.018 1187.541 596.549 1187.746 595.033 1188.331 C 593.238 1186.908 592.047 1188.043 590.689 1188.48 C 588.522 1187.764 588.02 1188.741 586.95 1189.141 C 584.579 1188.638 583.862 1189.727 582.718 1190.88 L 581.398 1190.852 C 577.817 1192.963 576.04 1197.26 575.408 1199.465 C 574.785 1197.251 573.008 1192.963 569.427 1190.852 L 568.107 1190.88 C 566.963 1189.727 566.246 1188.638 563.875 1189.141 C 562.805 1188.741 562.303 1187.764 560.136 1188.48 C 559.234 1188.192 558.415 1187.615 557.448 1187.643 Z " fill="rgb(25,16,46)"/><path d=" M 550.323 1196.925 C 559.82 1201.818 565.335 1205.771 568.358 1209.147 C 566.814 1215.351 558.741 1215.639 555.783 1215.462 C 556.388 1215.183 556.899 1214.839 557.076 1214.318 C 556.332 1213.797 553.7 1214.272 551.867 1213.239 C 552.574 1213.09 552.9 1212.951 553.235 1212.43 C 551.505 1211.872 549.635 1211.398 548.538 1210.486 C 549.124 1210.495 549.682 1210.616 550.454 1210.077 C 548.9 1209.24 547.245 1208.58 545.961 1207.305 C 546.761 1207.277 547.626 1207.296 547.877 1206.998 C 546.454 1206.115 545.254 1205.138 544.259 1204.069 C 545.385 1204.208 545.859 1204.087 546.129 1203.892 C 545.059 1202.794 543.701 1201.864 543.05 1200.506 C 543.887 1200.795 544.65 1200.906 545.199 1200.478 C 544.836 1199.66 543.273 1199.167 542.371 1197.251 C 543.245 1197.335 544.185 1197.437 544.371 1197.251 C 543.952 1195.586 543.255 1194.656 542.576 1193.689 C 544.454 1193.661 547.301 1193.698 547.17 1193.54 L 546.008 1192.349 C 547.849 1191.856 549.728 1192.424 551.086 1192.852 C 551.7 1192.368 551.077 1191.763 550.333 1191.14 C 551.886 1191.345 553.3 1191.708 554.574 1192.201 C 555.253 1191.587 554.127 1190.973 553.588 1190.359 C 555.997 1190.815 557.02 1191.457 558.034 1192.098 C 558.769 1191.391 558.08 1190.787 557.578 1190.173 C 559.401 1190.852 560.331 1191.717 561.317 1192.573 C 561.652 1192.126 562.173 1191.791 561.55 1190.712 C 562.842 1191.457 563.81 1192.331 564.526 1193.307 C 565.326 1192.796 565.009 1192.108 565.009 1191.466 C 566.349 1192.554 567.204 1193.717 568.237 1194.851 C 568.451 1194.703 568.637 1194.182 568.795 1193.363 C 571.994 1196.46 576.515 1204.282 569.958 1207.38 C 564.377 1202.776 557.708 1199.427 550.323 1196.925 Z  M 600.697 1196.925 C 591.21 1201.818 585.685 1205.771 582.672 1209.147 C 584.216 1215.351 592.298 1215.639 595.247 1215.462 C 594.642 1215.183 594.14 1214.839 593.954 1214.318 C 594.698 1213.797 597.321 1214.272 599.162 1213.239 C 598.455 1213.09 598.13 1212.951 597.795 1212.43 C 599.534 1211.872 601.404 1211.398 602.501 1210.486 C 601.906 1210.495 601.348 1210.616 600.576 1210.077 C 602.129 1209.24 603.785 1208.58 605.078 1207.305 C 604.269 1207.277 603.404 1207.296 603.152 1206.998 C 604.575 1206.115 605.775 1205.138 606.77 1204.069 C 605.645 1204.208 605.171 1204.087 604.901 1203.892 C 605.971 1202.794 607.329 1201.864 607.98 1200.506 C 607.143 1200.795 606.38 1200.906 605.831 1200.478 C 606.194 1199.66 607.766 1199.167 608.668 1197.251 C 607.784 1197.335 606.854 1197.437 606.668 1197.251 C 607.077 1195.586 607.775 1194.656 608.463 1193.689 C 606.584 1193.661 603.738 1193.698 603.859 1193.54 L 605.022 1192.349 C 603.19 1191.856 601.311 1192.424 599.944 1192.852 C 599.33 1192.368 599.962 1191.763 600.706 1191.14 C 599.144 1191.345 597.73 1191.698 596.465 1192.201 C 595.777 1191.587 596.902 1190.973 597.451 1190.359 C 595.033 1190.805 594.019 1191.457 593.005 1192.098 C 592.261 1191.391 592.959 1190.787 593.452 1190.173 C 591.638 1190.852 590.699 1191.717 589.713 1192.573 C 589.378 1192.126 588.866 1191.791 589.489 1190.712 C 588.197 1191.447 587.229 1192.331 586.504 1193.307 C 585.713 1192.796 586.029 1192.108 586.029 1191.466 C 584.69 1192.554 583.834 1193.717 582.793 1194.851 C 582.588 1194.703 582.402 1194.182 582.244 1193.363 C 579.035 1196.46 574.524 1204.282 581.081 1207.38 C 586.653 1202.776 593.312 1199.427 600.697 1196.925 Z " fill-rule="evenodd" fill="rgb(100,221,23)"/><linearGradient id="_lgradient_2" x1="0.5" y1="0" x2="0.5000000000000001" y2="1" gradientTransform="matrix(70.97,0,0,68.793,539.421,1215.738)" gradientUnits="userSpaceOnUse"><stop offset="0%" stop-opacity="1" style="stop-color:rgb(247,26,114)"/><stop offset="100%" stop-opacity="1" style="stop-color:rgb(176,15,79)"/></linearGradient><path d=" M 587.006 1260.116 C 587.043 1265.91 581.984 1270.626 575.696 1270.663 C 569.418 1270.691 564.303 1266.022 564.265 1260.227 C 564.265 1260.19 564.265 1260.153 564.265 1260.116 C 564.237 1254.321 569.297 1249.606 575.575 1249.569 C 581.863 1249.541 586.978 1254.21 587.006 1260.004 C 587.006 1260.041 587.006 1260.079 587.006 1260.116 L 587.006 1260.116 L 587.006 1260.116 L 587.006 1260.116 L 587.006 1260.116 L 587.006 1260.116 L 587.006 1260.116 L 587.006 1260.116 L 587.006 1260.116 L 587.006 1260.116 Z  M 569.055 1230.167 C 573.771 1233.245 574.617 1240.24 570.953 1245.792 C 567.288 1251.336 560.499 1253.326 555.792 1250.238 C 551.077 1247.15 550.23 1240.156 553.895 1234.613 C 557.559 1229.069 564.349 1227.079 569.055 1230.167 L 569.055 1230.167 L 569.055 1230.167 L 569.055 1230.167 L 569.055 1230.167 L 569.055 1230.167 L 569.055 1230.167 L 569.055 1230.167 L 569.055 1230.167 L 569.055 1230.167 Z  M 581.779 1229.6 C 577.063 1232.687 576.217 1239.682 579.882 1245.225 C 583.546 1250.778 590.336 1252.768 595.042 1249.68 C 599.758 1246.592 600.613 1239.598 596.949 1234.045 C 593.284 1228.502 586.485 1226.512 581.779 1229.6 L 581.779 1229.6 L 581.779 1229.6 L 581.779 1229.6 L 581.779 1229.6 L 581.779 1229.6 L 581.779 1229.6 L 581.779 1229.6 L 581.779 1229.6 Z  M 545.505 1235.208 C 550.593 1233.85 547.226 1256.256 543.087 1254.414 C 538.539 1250.75 537.07 1240.026 545.505 1235.208 L 545.505 1235.208 L 545.505 1235.208 L 545.505 1235.208 L 545.505 1235.208 L 545.505 1235.208 L 545.505 1235.208 L 545.505 1235.208 Z  M 604.306 1234.929 C 599.209 1233.571 602.585 1255.977 606.724 1254.135 C 611.272 1250.471 612.742 1239.747 604.306 1234.929 L 604.306 1234.929 L 604.306 1234.929 L 604.306 1234.929 L 604.306 1234.929 L 604.306 1234.929 L 604.306 1234.929 Z  M 587.015 1218.243 C 595.795 1216.755 603.106 1221.973 602.808 1231.488 C 602.52 1235.143 583.779 1218.783 587.015 1218.243 L 587.015 1218.243 L 587.015 1218.243 L 587.015 1218.243 L 587.015 1218.243 L 587.015 1218.243 Z  M 562.759 1217.955 C 553.979 1216.476 546.677 1221.694 546.966 1231.209 C 547.254 1234.864 565.995 1218.504 562.759 1217.955 L 562.759 1217.955 L 562.759 1217.955 L 562.759 1217.955 L 562.759 1217.955 Z  M 575.371 1215.741 C 570.125 1215.602 565.102 1219.629 565.084 1221.963 C 565.075 1224.8 569.232 1227.702 575.399 1227.777 C 581.705 1227.823 585.732 1225.451 585.75 1222.531 C 585.778 1219.21 580.021 1215.685 575.371 1215.741 L 575.371 1215.741 L 575.371 1215.741 L 575.371 1215.741 Z  M 575.687 1273.918 C 580.254 1273.714 586.383 1275.388 586.402 1277.601 C 586.476 1279.759 580.84 1284.624 575.389 1284.521 C 569.734 1284.772 564.2 1279.899 564.275 1278.215 C 564.182 1275.732 571.148 1273.807 575.687 1273.918 L 575.687 1273.918 L 575.687 1273.918 Z  M 558.815 1260.776 C 562.07 1264.692 563.549 1271.584 560.833 1273.611 C 558.266 1275.165 552.035 1274.523 547.598 1268.161 C 544.613 1262.813 544.994 1257.381 547.096 1255.782 C 550.23 1253.866 555.085 1256.442 558.815 1260.776 L 558.815 1260.776 Z  M 591.917 1259.539 C 588.392 1263.659 586.439 1271.175 589.006 1273.602 C 591.452 1275.481 598.046 1275.22 602.911 1268.468 C 606.445 1263.929 605.264 1256.349 603.245 1254.331 C 600.241 1252.024 595.935 1254.982 591.917 1259.539 Z " fill-rule="evenodd" fill="url(#_lgradient_2)"/></g><g><path d=" M 711.222 1225.881 C 711.037 1220.015 711.194 1214.149 711.167 1208.282 C 711.198 1207.308 711.089 1206.335 710.842 1205.392 C 709.521 1201.051 706.288 1198.778 702.052 1197.92 C 696.494 1196.803 690.789 1196.622 685.172 1197.386 C 682.586 1197.756 680.038 1198.35 677.555 1199.161 C 675.468 1199.819 673.88 1201.276 673.281 1203.484 C 672.253 1207.26 672.803 1211.107 672.698 1215.078 L 674.739 1215.078 C 679.988 1215.078 685.237 1215.078 690.486 1215.078 C 691.44 1215.078 692.147 1215.078 692.153 1216.418 C 692.159 1217.758 691.536 1217.823 690.538 1217.817 Q 684.054 1217.795 677.57 1217.817 C 672.994 1217.838 668.412 1217.817 663.84 1217.962 C 661.231 1218.042 658.986 1219.197 657.081 1220.966 C 654.759 1223.127 653.762 1225.931 653.045 1228.938 C 651.288 1236.123 651.789 1243.675 654.481 1250.564 C 655.784 1253.96 658.152 1256.508 661.947 1256.946 C 664.531 1257.255 667.177 1257.005 670.077 1257.005 C 670.077 1254.393 670.077 1251.935 670.077 1249.48 C 670.077 1241.372 675.381 1236.092 683.523 1236.083 C 689.337 1236.083 695.16 1235.888 700.962 1236.135 C 706.702 1236.382 711.401 1231.575 711.222 1225.881 Z  M 681.059 1210.304 C 678.96 1210.304 677.419 1208.714 677.419 1206.581 C 677.419 1204.447 679.163 1202.672 681.186 1202.749 C 683.225 1202.867 684.8 1204.586 684.74 1206.627 C 684.766 1207.611 684.387 1208.562 683.691 1209.258 C 682.995 1209.953 682.043 1210.332 681.059 1210.304 L 681.059 1210.304 Z " fill="rgb(23,204,195)"/><path d=" M 731.363 1231.745 C 730.735 1228.585 729.778 1225.499 728.51 1222.538 C 727.148 1219.45 724.496 1217.832 720.951 1217.94 C 719.309 1217.993 717.66 1217.94 716.011 1217.94 C 713.995 1217.94 714.035 1217.94 713.976 1219.975 C 713.89 1223.001 714.112 1226.098 713.535 1229.034 C 712.371 1234.965 707.214 1238.865 701.042 1238.914 C 694.614 1238.964 688.182 1238.887 681.751 1238.97 C 677.459 1239.025 673.198 1242.789 673.038 1247.063 C 672.781 1253.942 672.892 1260.836 672.905 1267.722 C 672.905 1270.217 674.14 1272.208 676.11 1273.588 C 677.679 1274.737 679.395 1275.671 681.21 1276.367 C 686.151 1278.177 691.313 1278.914 696.5 1277.88 C 699.811 1277.235 703.034 1276.206 706.106 1274.814 C 709.502 1273.239 711.355 1270.325 711.111 1266.348 C 711.014 1264.755 711.014 1263.158 711.111 1261.565 C 711.185 1260.302 710.778 1259.873 709.475 1259.889 C 704.127 1259.953 698.773 1259.889 693.419 1259.935 C 692.243 1259.935 691.752 1259.595 691.758 1258.363 C 691.764 1257.131 692.375 1256.955 693.4 1256.965 C 698.081 1257.002 702.765 1256.965 707.446 1256.965 C 711.972 1256.965 716.502 1256.965 721.032 1256.965 C 721.697 1256.964 722.361 1256.9 723.014 1256.773 C 726.41 1256.106 727.954 1253.519 729.226 1250.681 C 731.943 1244.617 732.718 1238.254 731.363 1231.745 Z  M 702.821 1264.437 C 704.831 1264.412 706.622 1266.203 706.649 1268.268 C 706.685 1270.367 705.069 1272.124 702.975 1272.264 C 700.95 1272.341 699.048 1270.445 699.045 1268.352 C 699.042 1266.258 700.814 1264.464 702.821 1264.437 Z " fill="rgb(224,22,102)"/></g></g></svg>