<?xml version="1.0" standalone="no"?><!-- Generator: Gravit.io --><svg xmlns="http://www.w3.org/2000/svg" xmlns:xlink="http://www.w3.org/1999/xlink" style="isolation:isolate" viewBox="276.251 1187.637 78.313 100" width="78.313px" height="100px"><g><path d=" M 297.448 1187.643 C 296.946 1187.652 296.397 1187.848 295.783 1188.331 C 294.267 1187.746 292.807 1187.541 291.486 1188.731 C 289.458 1188.471 288.807 1189.01 288.305 1189.643 C 287.859 1189.634 284.985 1189.187 283.655 1191.159 C 280.334 1190.768 279.283 1193.112 280.474 1195.298 C 279.795 1196.349 279.097 1197.391 280.678 1199.4 C 280.12 1200.516 280.464 1201.715 281.785 1203.185 C 281.441 1204.757 282.129 1205.864 283.357 1206.729 C 283.124 1208.868 285.319 1210.114 285.98 1210.561 C 286.231 1211.807 286.761 1212.988 289.263 1213.639 C 289.682 1215.509 291.188 1215.825 292.649 1216.216 C 287.821 1219.024 283.683 1222.717 283.71 1231.776 L 283.004 1233.041 C 277.46 1236.408 272.484 1247.234 280.269 1256.033 C 280.781 1258.776 281.636 1260.758 282.399 1262.943 C 283.534 1271.77 290.947 1275.899 292.909 1276.392 C 295.774 1278.569 298.824 1280.643 302.954 1282.094 C 306.851 1286.112 311.074 1287.646 315.315 1287.637 C 315.38 1287.637 315.445 1287.637 315.501 1287.637 C 319.742 1287.646 323.965 1286.112 327.862 1282.094 C 331.991 1280.643 335.042 1278.569 337.916 1276.392 C 339.869 1275.899 347.291 1271.77 348.417 1262.943 C 349.179 1260.758 350.035 1258.776 350.547 1256.033 C 358.331 1247.234 353.356 1236.408 347.812 1233.041 L 347.105 1231.776 C 347.133 1222.717 342.994 1219.024 338.167 1216.216 C 339.627 1215.825 341.134 1215.509 341.553 1213.639 C 344.064 1212.988 344.585 1211.807 344.836 1210.551 C 345.496 1210.114 347.691 1208.868 347.468 1206.719 C 348.696 1205.864 349.384 1204.757 349.031 1203.185 C 350.351 1201.725 350.695 1200.506 350.137 1199.4 C 351.728 1197.391 351.021 1196.358 350.342 1195.298 C 351.533 1193.112 350.482 1190.768 347.161 1191.159 C 345.84 1189.187 342.957 1189.634 342.511 1189.643 C 342.018 1189.01 341.357 1188.471 339.33 1188.731 C 338.018 1187.541 336.549 1187.746 335.033 1188.331 C 333.238 1186.908 332.047 1188.043 330.689 1188.48 C 328.522 1187.764 328.02 1188.741 326.95 1189.141 C 324.579 1188.638 323.862 1189.727 322.718 1190.88 L 321.398 1190.852 C 317.817 1192.963 316.04 1197.26 315.408 1199.465 C 314.785 1197.251 313.008 1192.963 309.427 1190.852 L 308.107 1190.88 C 306.963 1189.727 306.246 1188.638 303.875 1189.141 C 302.805 1188.741 302.303 1187.764 300.136 1188.48 C 299.234 1188.192 298.415 1187.615 297.448 1187.643 Z " fill="rgb(25,16,46)"/><path d=" M 290.323 1196.925 C 299.82 1201.818 305.335 1205.771 308.358 1209.147 C 306.814 1215.351 298.741 1215.639 295.783 1215.462 C 296.388 1215.183 296.899 1214.839 297.076 1214.318 C 296.332 1213.797 293.7 1214.272 291.867 1213.239 C 292.574 1213.09 292.9 1212.951 293.235 1212.43 C 291.505 1211.872 289.635 1211.398 288.538 1210.486 C 289.124 1210.495 289.682 1210.616 290.454 1210.077 C 288.9 1209.24 287.245 1208.58 285.961 1207.305 C 286.761 1207.277 287.626 1207.296 287.877 1206.998 C 286.454 1206.115 285.254 1205.138 284.259 1204.069 C 285.385 1204.208 285.859 1204.087 286.129 1203.892 C 285.059 1202.794 283.701 1201.864 283.05 1200.506 C 283.887 1200.795 284.65 1200.906 285.199 1200.478 C 284.836 1199.66 283.273 1199.167 282.371 1197.251 C 283.245 1197.335 284.185 1197.437 284.371 1197.251 C 283.952 1195.586 283.255 1194.656 282.576 1193.689 C 284.454 1193.661 287.301 1193.698 287.17 1193.54 L 286.008 1192.349 C 287.849 1191.856 289.728 1192.424 291.086 1192.852 C 291.7 1192.368 291.077 1191.763 290.333 1191.14 C 291.886 1191.345 293.3 1191.708 294.574 1192.201 C 295.253 1191.587 294.127 1190.973 293.588 1190.359 C 295.997 1190.815 297.02 1191.457 298.034 1192.098 C 298.769 1191.391 298.08 1190.787 297.578 1190.173 C 299.401 1190.852 300.331 1191.717 301.317 1192.573 C 301.652 1192.126 302.173 1191.791 301.55 1190.712 C 302.842 1191.457 303.81 1192.331 304.526 1193.307 C 305.326 1192.796 305.009 1192.108 305.009 1191.466 C 306.349 1192.554 307.204 1193.717 308.237 1194.851 C 308.451 1194.703 308.637 1194.182 308.795 1193.363 C 311.994 1196.46 316.515 1204.282 309.958 1207.38 C 304.377 1202.776 297.708 1199.427 290.323 1196.925 Z  M 340.697 1196.925 C 331.21 1201.818 325.685 1205.771 322.672 1209.147 C 324.216 1215.351 332.298 1215.639 335.247 1215.462 C 334.642 1215.183 334.14 1214.839 333.954 1214.318 C 334.698 1213.797 337.321 1214.272 339.162 1213.239 C 338.455 1213.09 338.13 1212.951 337.795 1212.43 C 339.534 1211.872 341.404 1211.398 342.501 1210.486 C 341.906 1210.495 341.348 1210.616 340.576 1210.077 C 342.129 1209.24 343.785 1208.58 345.078 1207.305 C 344.269 1207.277 343.404 1207.296 343.152 1206.998 C 344.575 1206.115 345.775 1205.138 346.77 1204.069 C 345.645 1204.208 345.171 1204.087 344.901 1203.892 C 345.971 1202.794 347.329 1201.864 347.98 1200.506 C 347.143 1200.795 346.38 1200.906 345.831 1200.478 C 346.194 1199.66 347.766 1199.167 348.668 1197.251 C 347.784 1197.335 346.854 1197.437 346.668 1197.251 C 347.077 1195.586 347.775 1194.656 348.463 1193.689 C 346.584 1193.661 343.738 1193.698 343.859 1193.54 L 345.022 1192.349 C 343.19 1191.856 341.311 1192.424 339.944 1192.852 C 339.33 1192.368 339.962 1191.763 340.706 1191.14 C 339.144 1191.345 337.73 1191.698 336.465 1192.201 C 335.777 1191.587 336.902 1190.973 337.451 1190.359 C 335.033 1190.805 334.019 1191.457 333.005 1192.098 C 332.261 1191.391 332.959 1190.787 333.452 1190.173 C 331.638 1190.852 330.699 1191.717 329.713 1192.573 C 329.378 1192.126 328.866 1191.791 329.489 1190.712 C 328.197 1191.447 327.229 1192.331 326.504 1193.307 C 325.713 1192.796 326.029 1192.108 326.029 1191.466 C 324.69 1192.554 323.834 1193.717 322.793 1194.851 C 322.588 1194.703 322.402 1194.182 322.244 1193.363 C 319.035 1196.46 314.524 1204.282 321.081 1207.38 C 326.653 1202.776 333.312 1199.427 340.697 1196.925 Z " fill-rule="evenodd" fill="rgb(100,221,23)"/><linearGradient id="_lgradient_2" x1="0.5" y1="0" x2="0.5000000000000001" y2="1" gradientTransform="matrix(70.97,0,0,68.793,279.421,1215.738)" gradientUnits="userSpaceOnUse"><stop offset="0%" stop-opacity="1" style="stop-color:rgb(247,26,114)"/><stop offset="100%" stop-opacity="1" style="stop-color:rgb(176,15,79)"/></linearGradient><path d=" M 327.006 1260.116 C 327.043 1265.91 321.984 1270.626 315.696 1270.663 C 309.418 1270.691 304.303 1266.022 304.265 1260.227 C 304.265 1260.19 304.265 1260.153 304.265 1260.116 C 304.237 1254.321 309.297 1249.606 315.575 1249.569 C 321.863 1249.541 326.978 1254.21 327.006 1260.004 C 327.006 1260.041 327.006 1260.079 327.006 1260.116 L 327.006 1260.116 L 327.006 1260.116 L 327.006 1260.116 L 327.006 1260.116 L 327.006 1260.116 L 327.006 1260.116 L 327.006 1260.116 L 327.006 1260.116 L 327.006 1260.116 Z  M 309.055 1230.167 C 313.771 1233.245 314.617 1240.24 310.953 1245.792 C 307.288 1251.336 300.499 1253.326 295.792 1250.238 C 291.077 1247.15 290.23 1240.156 293.895 1234.613 C 297.559 1229.069 304.349 1227.079 309.055 1230.167 L 309.055 1230.167 L 309.055 1230.167 L 309.055 1230.167 L 309.055 1230.167 L 309.055 1230.167 L 309.055 1230.167 L 309.055 1230.167 L 309.055 1230.167 L 309.055 1230.167 Z  M 321.779 1229.6 C 317.063 1232.687 316.217 1239.682 319.882 1245.225 C 323.546 1250.778 330.336 1252.768 335.042 1249.68 C 339.758 1246.592 340.613 1239.598 336.949 1234.045 C 333.284 1228.502 326.485 1226.512 321.779 1229.6 L 321.779 1229.6 L 321.779 1229.6 L 321.779 1229.6 L 321.779 1229.6 L 321.779 1229.6 L 321.779 1229.6 L 321.779 1229.6 L 321.779 1229.6 Z  M 285.505 1235.208 C 290.593 1233.85 287.226 1256.256 283.087 1254.414 C 278.539 1250.75 277.07 1240.026 285.505 1235.208 L 285.505 1235.208 L 285.505 1235.208 L 285.505 1235.208 L 285.505 1235.208 L 285.505 1235.208 L 285.505 1235.208 L 285.505 1235.208 Z  M 344.306 1234.929 C 339.209 1233.571 342.585 1255.977 346.724 1254.135 C 351.272 1250.471 352.742 1239.747 344.306 1234.929 L 344.306 1234.929 L 344.306 1234.929 L 344.306 1234.929 L 344.306 1234.929 L 344.306 1234.929 L 344.306 1234.929 Z  M 327.015 1218.243 C 335.795 1216.755 343.106 1221.973 342.808 1231.488 C 342.52 1235.143 323.779 1218.783 327.015 1218.243 L 327.015 1218.243 L 327.015 1218.243 L 327.015 1218.243 L 327.015 1218.243 L 327.015 1218.243 Z  M 302.759 1217.955 C 293.979 1216.476 286.677 1221.694 286.966 1231.209 C 287.254 1234.864 305.995 1218.504 302.759 1217.955 L 302.759 1217.955 L 302.759 1217.955 L 302.759 1217.955 L 302.759 1217.955 Z  M 315.371 1215.741 C 310.125 1215.602 305.102 1219.629 305.084 1221.963 C 305.075 1224.8 309.232 1227.702 315.399 1227.777 C 321.705 1227.823 325.732 1225.451 325.75 1222.531 C 325.778 1219.21 320.021 1215.685 315.371 1215.741 L 315.371 1215.741 L 315.371 1215.741 L 315.371 1215.741 Z  M 315.687 1273.918 C 320.254 1273.714 326.383 1275.388 326.402 1277.601 C 326.476 1279.759 320.84 1284.624 315.389 1284.521 C 309.734 1284.772 304.2 1279.899 304.275 1278.215 C 304.182 1275.732 311.148 1273.807 315.687 1273.918 L 315.687 1273.918 L 315.687 1273.918 Z  M 298.815 1260.776 C 302.07 1264.692 303.549 1271.584 300.833 1273.611 C 298.266 1275.165 292.035 1274.523 287.598 1268.161 C 284.613 1262.813 284.994 1257.381 287.096 1255.782 C 290.23 1253.866 295.085 1256.442 298.815 1260.776 L 298.815 1260.776 Z  M 331.917 1259.539 C 328.392 1263.659 326.439 1271.175 329.006 1273.602 C 331.452 1275.481 338.046 1275.22 342.911 1268.468 C 346.445 1263.929 345.264 1256.349 343.245 1254.331 C 340.241 1252.024 335.935 1254.982 331.917 1259.539 Z " fill-rule="evenodd" fill="url(#_lgradient_2)"/></g></svg>