<?xml version="1.0" standalone="no"?><!-- Generator: Gravit.io --><svg xmlns="http://www.w3.org/2000/svg" xmlns:xlink="http://www.w3.org/1999/xlink" style="isolation:isolate" viewBox="245.7 797.337 118.6 118.635" width="118.6" height="118.635"><g><defs><filter id="8k28ztCApHvajTgAAtCPvvDNXhHn5D5k" x="-200%" y="-200%" width="400%" height="400%" filterUnits="objectBoundingBox" color-interpolation-filters="sRGB"><feGaussianBlur xmlns="http://www.w3.org/2000/svg" in="SourceGraphic" stdDeviation="2.146804531419514"/><feOffset xmlns="http://www.w3.org/2000/svg" dx="0" dy="0" result="pf_100_offsetBlur"/><feFlood xmlns="http://www.w3.org/2000/svg" flood-color="#000000" flood-opacity="0.45"/><feComposite xmlns="http://www.w3.org/2000/svg" in2="pf_100_offsetBlur" operator="in" result="pf_100_dropShadow"/><feBlend xmlns="http://www.w3.org/2000/svg" in="SourceGraphic" in2="pf_100_dropShadow" mode="normal"/></filter></defs><g filter="url(#8k28ztCApHvajTgAAtCPvvDNXhHn5D5k)"><path d=" M 318.918 842.783 C 328.047 851.912 335.218 861.703 339.411 870.299 C 344.464 880.656 345.18 889.414 341.54 893.055 C 337.746 896.849 328.454 896.099 317.439 890.567 C 309.111 886.384 299.798 879.235 291.132 870.568 C 282.247 861.683 274.849 852.254 270.686 843.768 C 265.419 833.029 264.925 823.882 268.646 820.161 C 272.257 816.55 280.769 817.083 291.014 822.031 C 299.67 826.212 309.699 833.564 318.918 842.783 Z " fill="none" vector-effect="non-scaling-stroke" stroke-width="4.6" stroke="rgb(255,67,141)" stroke-linejoin="round" stroke-linecap="round" stroke-miterlimit="10"/></g><defs><filter id="B6YRghkOazTulAbKUG1qWRiwT6C0RoHL" x="-200%" y="-200%" width="400%" height="400%" filterUnits="objectBoundingBox" color-interpolation-filters="sRGB"><feGaussianBlur xmlns="http://www.w3.org/2000/svg" in="SourceGraphic" stdDeviation="2.146804531419514"/><feOffset xmlns="http://www.w3.org/2000/svg" dx="0" dy="0" result="pf_100_offsetBlur"/><feFlood xmlns="http://www.w3.org/2000/svg" flood-color="#000000" flood-opacity="0.45"/><feComposite xmlns="http://www.w3.org/2000/svg" in2="pf_100_offsetBlur" operator="in" result="pf_100_dropShadow"/><feBlend xmlns="http://www.w3.org/2000/svg" in="SourceGraphic" in2="pf_100_dropShadow" mode="normal"/></filter></defs><g filter="url(#B6YRghkOazTulAbKUG1qWRiwT6C0RoHL)"><path d=" M 299.93 837.7 C 312.4 834.352 324.464 833.032 334.005 833.694 C 345.501 834.491 353.446 838.245 354.781 843.218 C 356.172 848.4 350.881 856.075 340.586 862.853 C 332.802 867.977 321.956 872.473 310.12 875.651 C 297.984 878.909 286.12 880.608 276.689 879.974 C 264.755 879.173 256.584 875.031 255.22 869.948 C 253.896 865.016 258.61 857.908 268.014 851.505 C 275.96 846.095 287.339 841.081 299.93 837.7 Z " fill="none" vector-effect="non-scaling-stroke" stroke-width="4.6" stroke="rgb(255,67,141)" stroke-linejoin="round" stroke-linecap="round" stroke-miterlimit="10"/></g><defs><filter id="Y2bBu8zSI3YQvW30i8gI3bmLFy9cLvF3" x="-200%" y="-200%" width="400%" height="400%" filterUnits="objectBoundingBox" color-interpolation-filters="sRGB"><feGaussianBlur xmlns="http://www.w3.org/2000/svg" in="SourceGraphic" stdDeviation="2.146804531419514"/><feOffset xmlns="http://www.w3.org/2000/svg" dx="0" dy="0" result="pf_100_offsetBlur"/><feFlood xmlns="http://www.w3.org/2000/svg" flood-color="#000000" flood-opacity="0.45"/><feComposite xmlns="http://www.w3.org/2000/svg" in2="pf_100_offsetBlur" operator="in" result="pf_100_dropShadow"/><feBlend xmlns="http://www.w3.org/2000/svg" in="SourceGraphic" in2="pf_100_dropShadow" mode="normal"/></filter></defs><g filter="url(#Y2bBu8zSI3YQvW30i8gI3bmLFy9cLvF3)"><path d=" M 286.041 851.613 C 289.368 839.138 294.249 828.026 299.587 820.091 C 306.019 810.529 313.24 805.521 318.214 806.848 C 323.399 808.23 327.405 816.647 328.136 828.952 C 328.689 838.255 327.167 849.896 324.009 861.738 C 320.771 873.88 316.317 885.007 311.058 892.861 C 304.404 902.8 296.735 907.81 291.65 906.454 C 286.716 905.138 282.912 897.504 282.062 886.158 C 281.343 876.572 282.681 864.21 286.041 851.613 Z " fill="none" vector-effect="non-scaling-stroke" stroke-width="4.6" stroke="rgb(255,67,141)" stroke-linejoin="round" stroke-linecap="round" stroke-miterlimit="10"/></g><defs><filter id="jeNiIqxSGWuqesxB4dVfmuyHUpqR5w40" x="-200%" y="-200%" width="400%" height="400%" filterUnits="objectBoundingBox" color-interpolation-filters="sRGB"><feGaussianBlur xmlns="http://www.w3.org/2000/svg" in="SourceGraphic" stdDeviation="2.146804531419514"/><feOffset xmlns="http://www.w3.org/2000/svg" dx="0" dy="0" result="pf_100_offsetBlur"/><feFlood xmlns="http://www.w3.org/2000/svg" flood-color="#F64188" flood-opacity="1"/><feComposite xmlns="http://www.w3.org/2000/svg" in2="pf_100_offsetBlur" operator="in" result="pf_100_dropShadow"/><feBlend xmlns="http://www.w3.org/2000/svg" in="SourceGraphic" in2="pf_100_dropShadow" mode="normal"/></filter></defs><g filter="url(#jeNiIqxSGWuqesxB4dVfmuyHUpqR5w40)"><path d=" M 305.119 866.116 C 304.924 866.116 304.759 866.048 304.623 865.913 L 297.593 859.13 C 297.518 859.07 297.414 858.973 297.283 858.837 C 297.151 858.702 296.943 858.456 296.657 858.099 C 296.372 857.743 296.117 857.376 295.891 857.001 C 295.666 856.625 295.465 856.171 295.288 855.638 C 295.112 855.104 295.024 854.586 295.024 854.083 C 295.024 852.43 295.501 851.138 296.455 850.207 C 297.409 849.275 298.727 848.81 300.409 848.81 C 300.875 848.81 301.35 848.89 301.835 849.052 C 302.319 849.213 302.77 849.431 303.187 849.706 C 303.603 849.98 303.962 850.237 304.263 850.477 C 304.563 850.718 304.849 850.973 305.119 851.243 C 305.389 850.973 305.675 850.718 305.975 850.477 C 306.276 850.237 306.634 849.98 307.051 849.706 C 307.468 849.431 307.919 849.213 308.403 849.052 C 308.888 848.891 309.363 848.81 309.829 848.81 C 311.511 848.81 312.829 849.275 313.783 850.207 C 314.738 851.138 315.214 852.43 315.214 854.083 C 315.214 855.743 314.354 857.433 312.634 859.153 L 305.615 865.913 C 305.48 866.048 305.314 866.116 305.119 866.116 Z " fill="rgb(255,23,115)"/></g></g></svg>