<?xml version="1.0" standalone="no"?><!-- Generator: Gravit.io --><svg xmlns="http://www.w3.org/2000/svg" xmlns:xlink="http://www.w3.org/1999/xlink" style="isolation:isolate" viewBox="508 132.042 233 130.175" width="233" height="130.175"><g><defs><filter id="lnVgIgfCgs2gdCW95oQcNTG0T34Alggw" x="-200%" y="-200%" width="400%" height="400%" filterUnits="objectBoundingBox" color-interpolation-filters="sRGB"><feGaussianBlur xmlns="http://www.w3.org/2000/svg" in="SourceGraphic" stdDeviation="4.293609062839028"/><feOffset xmlns="http://www.w3.org/2000/svg" dx="0" dy="0" result="pf_100_offsetBlur"/><feFlood xmlns="http://www.w3.org/2000/svg" flood-color="#FF1C76" flood-opacity="1"/><feComposite xmlns="http://www.w3.org/2000/svg" in2="pf_100_offsetBlur" operator="in" result="pf_100_dropShadow"/><feBlend xmlns="http://www.w3.org/2000/svg" in="SourceGraphic" in2="pf_100_dropShadow" mode="normal"/></filter></defs><g filter="url(#lnVgIgfCgs2gdCW95oQcNTG0T34Alggw)"><path d=" M 528.626 219.863 C 524.874 213.083 522.753 205.345 522.753 197.129 C 522.753 188.913 524.874 181.175 528.627 174.395 C 529.791 174.283 530.703 173.339 530.703 172.191 C 530.703 171.865 530.63 171.555 530.492 171.28 C 539.143 158.073 554.229 149.148 571.535 148.552 C 571.95 149.107 572.628 149.465 573.393 149.465 C 574.157 149.465 574.835 149.107 575.25 148.553 C 592.559 149.147 607.646 158.076 616.289 171.291 L 616.289 171.291 C 616.154 171.563 616.083 171.869 616.083 172.191 C 616.083 173.338 616.994 174.283 618.159 174.395 C 620.085 177.873 621.579 181.604 622.578 185.522 C 623.343 186.036 624.072 186.597 624.762 187.202 C 623.779 182.495 622.112 178.025 619.86 173.894 C 620.367 173.486 620.69 172.875 620.69 172.191 C 620.69 170.971 619.658 169.98 618.386 169.98 C 618.104 169.98 617.833 170.029 617.585 170.123 C 608.666 156.693 593.288 147.602 575.659 146.886 C 575.482 145.839 574.534 145.042 573.393 145.042 C 572.252 145.042 571.304 145.839 571.127 146.887 L 571.127 146.887 C 553.498 147.603 538.119 156.693 529.199 170.122 C 528.952 170.028 528.682 169.98 528.4 169.98 C 527.128 169.98 526.096 170.971 526.096 172.191 C 526.096 172.876 526.42 173.488 526.928 173.896 L 526.928 173.896 C 523.138 180.843 521 188.747 521 197.129 C 521 205.511 523.138 213.416 526.928 220.362 C 526.42 220.77 526.096 221.383 526.096 222.067 C 526.096 223.288 527.128 224.279 528.4 224.279 C 528.682 224.279 528.952 224.23 529.199 224.136 C 538.119 237.565 553.498 246.655 571.127 247.371 L 571.127 247.371 L 571.127 247.371 L 571.127 247.371 C 571.304 248.419 572.252 249.217 573.393 249.217 C 574.532 249.217 575.478 248.422 575.658 247.377 C 593.287 246.659 608.664 237.565 617.586 224.137 L 617.586 224.137 C 617.836 224.23 618.107 224.278 618.386 224.279 C 618.997 224.279 619.584 224.046 620.016 223.631 C 620.448 223.216 620.691 222.653 620.69 222.067 C 620.69 221.724 620.606 221.385 620.446 221.078 L 620.446 221.078 C 620.007 221.304 619.56 221.514 619.105 221.708 C 619.109 221.703 619.112 221.697 619.115 221.692 C 618.27 222.058 617.402 222.371 616.516 222.631 C 616.513 222.635 616.51 222.64 616.507 222.644 C 616.402 222.675 616.298 222.705 616.193 222.734 C 616.22 222.817 616.253 222.898 616.292 222.975 C 607.642 236.183 592.558 245.112 575.251 245.707 C 574.837 245.152 574.158 244.793 573.393 244.793 C 572.628 244.793 571.95 245.152 571.535 245.706 C 554.229 245.111 539.143 236.185 530.492 222.979 C 530.63 222.703 530.703 222.393 530.703 222.067 C 530.703 220.92 529.791 219.975 528.626 219.863 Z  M 571.168 159.164 C 550.44 160.319 533.988 176.837 533.988 197.024 C 533.988 217.196 550.416 233.706 571.123 234.883 L 571.123 234.883 C 571.292 235.94 572.245 236.748 573.393 236.748 C 574.538 236.748 575.488 235.944 575.661 234.892 C 586.496 234.339 596.171 229.582 602.959 222.296 C 602.376 222.097 601.801 221.874 601.237 221.628 C 594.708 228.408 585.515 232.789 575.245 233.229 C 574.83 232.679 574.154 232.324 573.393 232.324 C 572.636 232.324 571.964 232.675 571.548 233.219 C 551.591 232.251 535.742 216.424 535.742 197.024 C 535.742 177.67 551.516 161.873 571.406 160.837 C 571.804 161.493 572.545 161.934 573.393 161.934 C 574.248 161.934 574.995 161.486 575.392 160.82 C 589.856 161.502 602.172 169.989 607.873 181.988 C 608.487 181.919 609.105 181.874 609.723 181.855 C 603.89 169.046 590.9 159.919 575.614 159.145 C 575.352 158.204 574.456 157.511 573.393 157.511 C 572.323 157.511 571.422 158.213 571.168 159.164 L 571.168 159.164 L 571.168 159.164 L 571.168 159.164 L 571.168 159.164 L 571.168 159.164 Z " fill-rule="evenodd" fill="rgb(249,32,119)"/></g><path d=" M 574.773 202.66 Q 574.773 202.66 587.578 219.041 Q 587.578 219.041 581.901 219.041 Q 581.901 219.041 566.498 199.152 Q 573.867 199.152 577.008 198.311 Q 583.622 196.427 583.622 189.178 Q 583.622 186.163 582.354 183.989 Q 581.115 181.814 578.79 180.741 Q 575.287 179.147 568.28 179.147 L 561.847 179.147 Q 561.847 179.147 561.847 219.041 Q 561.847 219.041 557.287 219.041 Q 557.287 219.041 557.287 175.175 Q 557.287 175.175 568.582 175.175 Q 577.521 175.175 581.719 177.407 Q 584.921 179.205 586.582 182.22 Q 588.273 185.235 588.273 189.236 Q 588.273 195.122 584.8 198.572 Q 581.357 201.993 574.773 202.66 L 574.773 202.66 L 574.773 202.66 L 574.773 202.66 Z  M 597.092 200.283 L 623.004 200.283 Q 621.857 195.441 618.323 192.629 Q 614.82 189.816 609.897 189.816 Q 605.095 189.816 601.562 192.716 Q 598.028 195.586 597.092 200.283 L 597.092 200.283 L 597.092 200.283 L 597.092 200.283 L 597.092 200.283 Z  M 650.306 189.816 Q 644.87 189.816 641.065 193.614 Q 637.259 197.383 637.259 202.776 Q 637.259 208.256 641.185 212.025 Q 645.142 215.765 650.91 215.765 Q 656.346 215.765 660.212 211.938 Q 664.078 208.111 664.078 202.718 Q 664.078 197.325 660.091 193.585 Q 656.105 189.816 650.306 189.816 L 650.306 189.816 L 650.306 189.816 L 650.306 189.816 Z  M 692.588 189.816 Q 687.031 189.816 683.346 193.556 Q 679.662 197.268 679.662 202.892 Q 679.662 208.459 683.437 212.112 Q 687.212 215.765 692.95 215.765 Q 698.537 215.765 702.101 212.17 Q 705.695 208.546 705.695 202.95 Q 705.695 197.21 702.01 193.527 Q 698.326 189.816 692.588 189.816 L 692.588 189.816 L 692.588 189.816 Z  M 627.565 204.255 Q 627.565 204.255 596.971 204.255 Q 597.243 209.068 601.078 212.431 Q 604.914 215.765 610.139 215.765 Q 614.004 215.765 617.266 213.736 Q 620.528 211.677 621.947 208.343 L 626.719 208.343 Q 624.847 213.475 620.316 216.664 Q 615.786 219.824 610.259 219.824 Q 606.575 219.824 603.253 218.49 Q 599.931 217.157 597.545 214.866 Q 595.159 212.576 593.77 209.387 Q 592.38 206.197 592.38 202.66 Q 592.38 198.021 594.706 194.136 Q 597.031 190.251 601.048 188.019 Q 605.065 185.786 609.897 185.786 Q 614.91 185.786 619.108 188.164 Q 623.337 190.541 625.541 194.629 Q 626.659 196.688 627.112 198.862 Q 627.565 201.008 627.565 204.255 L 627.565 204.255 L 627.565 204.255 L 627.565 204.255 L 627.565 204.255 Z  M 668.487 175.175 Q 668.487 175.175 668.487 219.041 Q 668.487 219.041 663.897 219.041 Q 663.897 219.041 663.897 213.156 Q 661.269 216.693 658.249 218.258 Q 655.259 219.824 651.031 219.824 Q 645.867 219.824 641.638 217.621 Q 637.44 215.417 635.024 211.532 Q 632.608 207.647 632.608 202.892 Q 632.608 198.079 634.934 194.165 Q 637.289 190.251 641.397 188.019 Q 645.534 185.786 650.608 185.786 Q 658.732 185.786 663.897 191.73 L 663.897 175.175 L 668.487 175.175 L 668.487 175.175 L 668.487 175.175 L 668.487 175.175 Z  M 692.95 185.786 Q 697.873 185.786 701.829 188.019 Q 705.816 190.222 708.051 194.136 Q 710.316 198.05 710.316 202.892 Q 710.316 210.198 705.423 215.011 Q 700.531 219.824 693.071 219.824 Q 687.967 219.824 683.829 217.621 Q 679.692 215.417 677.336 211.532 Q 675.011 207.647 675.011 202.834 Q 675.011 195.441 680.084 190.628 Q 685.158 185.786 692.95 185.786 L 692.95 185.786 L 692.95 185.786 Z  M 712.279 219.041 Q 712.279 219.041 724.057 202.486 Q 724.057 202.486 712.279 186.569 Q 712.279 186.569 717.473 186.569 Q 717.473 186.569 726.654 199.094 Q 726.654 199.094 735.745 186.569 Q 735.745 186.569 741 186.569 Q 741 186.569 729.161 202.486 Q 729.161 202.486 741 219.041 Q 741 219.041 735.745 219.041 Q 735.745 219.041 726.654 206.023 Q 726.654 206.023 717.473 219.041 Q 717.473 219.041 712.279 219.041 Z " fill-rule="evenodd" fill="rgb(198,16,89)"/></g></svg>