<?xml version="1.0" standalone="no"?><!-- Generator: Gravit.io --><svg xmlns="http://www.w3.org/2000/svg" xmlns:xlink="http://www.w3.org/1999/xlink" style="isolation:isolate" viewBox="536 563.298 192.003 192.003" width="192.003" height="192.003"><g><path d=" M 548.863 707.3 C 522.371 661.415 538.116 602.653 584.001 576.161 C 629.887 549.67 688.648 565.415 715.14 611.3 C 741.632 657.185 725.887 715.946 680.001 742.438 C 634.116 768.93 575.355 753.185 548.863 707.3 Z " fill="rgb(255,23,115)"/><path d=" M 548.863 707.3 C 534.145 681.808 532.464 652.342 541.744 626.643 L 632.001 659.3 L 548.863 707.3 L 548.863 707.3 L 548.863 707.3 Z  M 584.001 576.161 C 609.493 561.444 638.959 559.762 664.658 569.042 L 632.001 659.3 L 584.001 576.161 L 584.001 576.161 L 584.001 576.161 Z  M 715.14 611.3 C 729.858 636.792 731.539 666.258 722.259 691.957 L 632.001 659.3 L 715.14 611.3 L 715.14 611.3 Z  M 680.001 742.438 C 654.51 757.156 625.044 758.838 599.345 749.557 L 632.001 659.3 L 680.001 742.438 Z " fill-rule="evenodd" fill="rgb(255,255,255)" fill-opacity="0.19"/><defs><filter id="tMcuN4hKpsj0buky0M2uNqva4jW5sUFQ" x="-200%" y="-200%" width="400%" height="400%" filterUnits="objectBoundingBox" color-interpolation-filters="sRGB"><feGaussianBlur xmlns="http://www.w3.org/2000/svg" in="SourceGraphic" stdDeviation="6.440413594258542"/><feOffset xmlns="http://www.w3.org/2000/svg" dx="0" dy="0" result="pf_100_offsetBlur"/><feFlood xmlns="http://www.w3.org/2000/svg" flood-color="#000000" flood-opacity="0.65"/><feComposite xmlns="http://www.w3.org/2000/svg" in2="pf_100_offsetBlur" operator="in" result="pf_100_dropShadow"/><feBlend xmlns="http://www.w3.org/2000/svg" in="SourceGraphic" in2="pf_100_dropShadow" mode="normal"/></filter></defs><g filter="url(#tMcuN4hKpsj0buky0M2uNqva4jW5sUFQ)"><path d=" M 563.401 696.4 L 563.401 689.5 L 591.201 637.3 L 594.501 633.3 L 563.401 633.3 L 563.401 626.4 L 601.501 626.4 L 601.501 633.3 L 573.601 685.8 L 570.401 689.5 L 601.501 689.5 L 601.501 696.4 L 563.401 696.4 L 563.401 696.4 Z  M 607.701 694 L 610.301 687.1 L 610.301 687.1 Q 612.201 688.4 615.651 689.55 L 615.651 689.55 L 615.651 689.55 Q 619.101 690.7 623.501 690.7 L 623.501 690.7 L 623.501 690.7 Q 629.101 690.7 632.601 687.95 L 632.601 687.95 L 632.601 687.95 Q 636.101 685.2 636.101 679.3 L 636.101 679.3 L 636.101 679.3 Q 636.101 675.4 634.101 672.5 L 634.101 672.5 L 634.101 672.5 Q 632.101 669.6 629.101 667.15 L 629.101 667.15 L 629.101 667.15 Q 626.101 664.7 622.651 662.35 L 622.651 662.35 L 622.651 662.35 Q 619.201 660 616.201 657.15 L 616.201 657.15 L 616.201 657.15 Q 613.201 654.3 611.201 650.6 L 611.201 650.6 L 611.201 650.6 Q 609.201 646.9 609.201 641.7 L 609.201 641.7 L 609.201 641.7 Q 609.201 633.3 614.251 629.25 L 614.251 629.25 L 614.251 629.25 Q 619.301 625.2 627.401 625.2 L 627.401 625.2 L 627.401 625.2 Q 632.401 625.2 636.301 626.1 L 636.301 626.1 L 636.301 626.1 Q 640.201 627 642.601 628.4 L 642.601 628.4 L 640.201 635 L 640.201 635 Q 638.401 633.9 635.051 633 L 635.051 633 L 635.051 633 Q 631.701 632.1 627.301 632.1 L 627.301 632.1 L 627.301 632.1 Q 621.901 632.1 619.301 634.75 L 619.301 634.75 L 619.301 634.75 Q 616.701 637.4 616.701 641.4 L 616.701 641.4 L 616.701 641.4 Q 616.701 644.9 618.701 647.6 L 618.701 647.6 L 618.701 647.6 Q 620.701 650.3 623.701 652.7 L 623.701 652.7 L 623.701 652.7 Q 626.701 655.1 630.151 657.55 L 630.151 657.55 L 630.151 657.55 Q 633.601 660 636.601 663 L 636.601 663 L 636.601 663 Q 639.601 666 641.601 669.8 L 641.601 669.8 L 641.601 669.8 Q 643.601 673.6 643.601 678.8 L 643.601 678.8 L 643.601 678.8 Q 643.601 687.6 638.401 692.6 L 638.401 692.6 L 638.401 692.6 Q 633.201 697.6 623.701 697.6 L 623.701 697.6 L 623.701 697.6 Q 617.701 697.6 613.851 696.5 L 613.851 696.5 L 613.851 696.5 Q 610.001 695.4 607.701 694 L 607.701 694 L 607.701 694 Z  M 686.901 696.4 L 686.901 664.1 L 661.101 664.1 L 661.101 696.4 L 653.601 696.4 L 653.601 626.4 L 661.101 626.4 L 661.101 657.2 L 686.901 657.2 L 686.901 626.4 L 694.401 626.4 L 694.401 696.4 L 686.901 696.4 L 686.901 696.4 Z " fill-rule="evenodd" fill="rgb(255,164,201)"/></g></g></svg>