<?xml version="1.0" standalone="no"?><!-- Generator: Gravit.io --><svg xmlns="http://www.w3.org/2000/svg" xmlns:xlink="http://www.w3.org/1999/xlink" style="isolation:isolate" viewBox="771 539.543 240 239.514" width="240" height="239.514"><g><g><g><path d=" M 1002.448 616.551 Q 1000.306 611.36 997.618 606.38 C 996.609 604.5 995.539 602.633 994.406 600.803 C 989.538 592.911 983.6 585.454 976.592 578.445 C 953.648 555.502 925.937 544.024 893.484 544.024 C 861.03 544.024 833.331 555.502 810.388 578.445 C 787.445 601.388 775.967 629.087 775.967 661.541 C 775.967 693.995 787.445 721.706 810.388 744.649 C 833.331 767.592 861.03 779.057 893.484 779.057 C 925.937 779.057 953.648 767.592 976.592 744.649 C 989.227 732.001 998.389 717.909 1004.066 702.385 C 1008.685 689.725 1011 676.118 1011 661.541 C 1011 650.362 1009.643 639.743 1006.917 629.684 C 1006.606 628.551 1006.282 627.419 1005.946 626.298 C 1004.925 622.987 1003.755 619.738 1002.448 616.551 Z " fill="rgb(0,0,0)" fill-opacity="0.09803921568627451"/></g></g><g><g><path d=" M 1002.473 627.182 C 1002.199 626.099 1001.888 624.941 1001.564 623.796 C 1000.941 621.617 1000.232 619.414 999.46 617.235 C 997.854 612.692 995.937 608.26 993.696 603.878 C 992.75 602.036 991.717 600.156 990.634 598.301 C 985.58 589.711 979.231 581.57 971.625 573.964 C 961.927 564.266 951.37 556.61 939.88 550.971 C 930.095 546.165 919.601 542.866 908.472 541.086 C 904.426 540.439 900.305 539.991 896.011 539.754 C 893.596 539.617 891.068 539.543 888.516 539.543 C 886.189 539.543 883.886 539.605 881.57 539.729 C 879.902 539.817 878.246 539.929 876.578 540.09 C 862.424 541.385 849.241 545.02 837.003 551.045 C 825.65 556.622 815.118 564.266 805.421 573.964 C 783.2 596.185 771.734 622.887 771.037 654.009 Q 771 655.528 771 657.059 C 771 689.513 782.478 717.224 805.421 740.167 C 826.646 761.392 851.942 772.795 881.284 774.376 C 881.371 774.389 881.47 774.389 881.57 774.401 C 881.607 774.401 881.632 774.401 881.67 774.401 C 883.786 774.513 885.803 774.576 887.77 774.576 C 888.068 774.576 888.292 774.576 888.516 774.576 C 891.081 774.576 893.62 774.501 896.011 774.376 C 896.633 774.339 897.193 774.302 897.741 774.264 C 902.77 773.903 907.675 773.256 912.356 772.347 C 914.335 771.961 916.29 771.526 918.182 771.065 C 938.299 766.011 956.064 755.728 971.625 740.167 C 973.143 738.648 974.612 737.117 975.982 735.611 C 985.903 724.693 993.348 712.805 998.352 699.883 C 1000.618 694.044 1002.373 687.994 1003.655 681.695 C 1004.95 675.272 1005.722 668.587 1005.958 661.665 C 1006.008 660.159 1006.033 658.615 1006.033 657.059 C 1006.033 656.897 1006.033 656.723 1006.033 656.561 C 1006.033 656.474 1006.033 656.399 1006.033 656.312 C 1006.033 655.54 1006.02 654.769 1006.008 653.984 C 1005.796 644.722 1004.626 635.809 1002.473 627.182 Z " fill="rgb(79,54,99)"/></g></g><g><g><path d=" M 1003.655 681.695 C 1004.489 677.55 1005.112 673.305 1005.51 668.923 L 907.737 571.15 L 899.969 578.632 L 882.871 561.533 L 874.574 581.881 L 887.39 594.697 L 833.356 740.727 L 865.051 772.422 C 870.391 773.43 875.769 774.078 881.284 774.376 C 881.371 774.389 881.47 774.389 881.57 774.401 C 881.607 774.401 881.632 774.401 881.67 774.401 C 883.786 774.513 885.803 774.576 887.77 774.576 Q 888.143 774.576 888.516 774.576 C 891.081 774.576 893.62 774.501 896.011 774.376 C 896.633 774.339 897.193 774.302 897.741 774.264 C 902.77 773.903 907.675 773.256 912.356 772.347 C 914.335 771.961 916.29 771.526 918.182 771.065 C 938.299 766.011 956.064 755.728 971.625 740.167 C 973.143 738.648 974.612 737.117 975.982 735.611 C 985.903 724.693 993.348 712.805 998.352 699.883 C 1000.618 694.044 1002.373 687.994 1003.655 681.695 Z " fill="rgb(0,0,0)" fill-opacity="0.2"/></g></g><g><g><path d=" M 868.847 591.84 L 868.847 595.176 C 868.424 605.646 863.868 613.302 855.191 618.132 C 854.432 618.493 853.672 618.879 852.913 619.29 C 846.253 622.825 840.041 627.468 834.29 633.22 C 819.314 648.196 811.832 666.271 811.832 687.447 C 811.832 708.622 819.314 726.698 834.29 741.673 C 849.265 756.649 867.341 764.131 888.516 764.131 C 888.877 764.131 889.239 764.131 889.537 764.131 L 889.537 764.125 L 889.537 748.091 L 889.537 748.097 C 889.201 748.097 888.853 748.097 888.516 748.097 C 872.37 748.097 858.59 742.383 847.174 730.968 C 835.759 719.552 830.057 705.784 830.057 689.638 C 830.057 673.492 835.759 659.711 847.174 648.295 C 858.59 636.88 872.37 631.178 888.516 631.178 C 888.853 631.178 889.201 631.178 889.537 631.191 L 889.537 631.184 L 889.537 595.22 L 889.537 595.226 C 882.392 594.678 875.495 593.284 868.847 591.84 Z " fill="rgb(253,252,223)"/><path d=" M 889.537 631.191 C 889.201 631.178 888.853 631.178 888.516 631.178 C 872.37 631.178 858.59 636.88 847.174 648.295 C 835.759 659.711 830.057 673.492 830.057 689.638 C 830.057 705.784 835.759 719.552 847.174 730.968 C 858.59 742.383 872.37 748.097 888.516 748.097 C 888.853 748.097 889.201 748.097 889.537 748.097 L 889.537 748.091 L 889.537 730.669 C 889.438 730.681 889.338 730.681 889.226 730.681 C 888.99 730.681 888.753 730.681 888.516 730.681 C 886.649 730.681 884.832 730.569 883.064 730.358 C 881.794 730.196 880.549 729.984 879.317 729.71 C 872.059 728.092 865.636 724.482 860.021 718.867 C 852.154 711 848.22 701.501 848.22 690.384 C 848.22 679.243 852.154 669.744 860.021 661.864 C 865.636 656.275 872.059 652.665 879.317 651.059 C 880.549 650.785 881.794 650.573 883.064 650.411 C 884.832 650.187 886.649 650.075 888.516 650.075 C 888.753 650.075 888.99 650.075 889.226 650.075 C 889.338 650.075 889.438 650.075 889.537 650.088 L 889.537 650.082 L 889.537 631.184" fill="rgb(234,234,206)"/><path d=" M 965.201 687.447 Q 965.201 655.677 942.743 633.22 C 936.805 627.282 930.369 622.514 923.373 618.891 C 913.875 614.497 908.82 606.318 908.186 594.33 C 901.787 595.537 895.575 595.674 889.537 595.226 L 889.537 595.22 L 889.537 631.184 L 889.537 650.082 L 889.537 667.603 L 889.537 714.243 L 889.537 730.669 L 889.537 748.091 L 889.537 764.125 L 889.537 764.131 C 910.314 763.882 928.029 756.388 942.743 741.673 C 957.719 726.698 965.201 708.622 965.201 687.447 Z " fill="rgb(115,90,147)"/><path d=" M 888.516 650.075 C 886.649 650.075 884.832 650.187 883.064 650.411 C 881.794 650.573 880.549 650.785 879.317 651.059 C 872.059 652.665 865.636 656.275 860.021 661.864 C 852.154 669.744 848.22 679.243 848.22 690.384 C 848.22 701.501 852.154 711 860.021 718.867 C 865.636 724.482 872.059 728.092 879.317 729.71 C 880.549 729.984 881.794 730.196 883.064 730.358 C 884.832 730.569 886.649 730.681 888.516 730.681 C 888.753 730.681 888.99 730.681 889.226 730.681 C 889.338 730.681 889.438 730.681 889.537 730.669 L 889.537 714.243 L 889.537 714.249 C 889.4 714.249 889.251 714.249 889.102 714.261 C 889.052 714.261 888.99 714.261 888.927 714.261 C 888.79 714.261 888.653 714.261 888.516 714.261 C 887.433 714.261 886.388 714.199 885.354 714.075 C 885.317 714.075 885.292 714.075 885.255 714.062 C 884.545 713.975 883.861 713.85 883.188 713.714 C 881.595 713.352 880.076 712.83 878.62 712.145 C 876.23 711.012 874.026 709.444 872.009 707.427 C 867.453 702.871 865.175 697.368 865.175 690.932 C 865.175 684.471 867.453 678.969 872.009 674.413 C 874.026 672.408 876.23 670.84 878.62 669.707 C 880.076 669.022 881.595 668.5 883.188 668.151 C 883.861 668.002 884.545 667.877 885.255 667.79 C 885.292 667.778 885.317 667.778 885.354 667.778 C 886.388 667.641 887.433 667.578 888.516 667.578 C 888.653 667.578 888.79 667.578 888.927 667.578 C 888.99 667.578 889.052 667.578 889.102 667.591 C 889.251 667.591 889.4 667.591 889.537 667.603 L 889.537 650.082 L 889.537 650.088 C 889.438 650.075 889.338 650.075 889.226 650.075 C 888.99 650.075 888.753 650.075 888.516 650.075 Z " fill="rgb(209,209,184)"/><path d=" M 888.516 667.578 C 887.433 667.578 886.388 667.641 885.354 667.778 C 885.317 667.778 885.292 667.778 885.255 667.79 C 884.545 667.877 883.861 668.002 883.188 668.151 C 881.595 668.5 880.076 669.022 878.62 669.707 C 876.23 670.84 874.026 672.408 872.009 674.413 C 867.453 678.969 865.175 684.471 865.175 690.932 C 865.175 697.368 867.453 702.871 872.009 707.427 C 874.026 709.444 876.23 711.012 878.62 712.145 C 880.076 712.83 881.595 713.352 883.188 713.714 C 883.861 713.85 884.545 713.975 885.255 714.062 C 885.292 714.075 885.317 714.075 885.354 714.075 C 886.388 714.199 887.433 714.261 888.516 714.261 C 888.653 714.261 888.79 714.261 888.927 714.261 C 888.99 714.261 889.052 714.261 889.102 714.261 C 889.251 714.249 889.4 714.249 889.537 714.249 L 889.537 714.243 L 889.537 667.603 C 889.4 667.591 889.251 667.591 889.102 667.591 C 889.052 667.578 888.99 667.578 888.927 667.578 C 888.79 667.578 888.653 667.578 888.516 667.578 Z " fill="rgb(191,191,169)"/></g></g><g><g><path d=" M 871.424 550.087 C 871.337 550.41 871.25 550.734 871.188 551.008 Q 863.47 581.346 887.409 591.267 C 892.077 575.769 887.172 562.386 872.632 551.008 C 872.283 550.734 871.86 550.41 871.424 550.087 Z " fill="rgb(120,175,82)"/><path d=" M 891.579 591.267 C 890.222 581.109 895.625 574.362 907.737 571.15 C 906.418 582.329 901.04 589.027 891.579 591.267 Z " fill="rgb(120,175,82)"/></g></g></g></svg>